<svg xmlns="http://www.w3.org/2000/svg" xmlns:xlink="http://www.w3.org/1999/xlink" width="1000" zoomAndPan="magnify" viewBox="0 0 750 225" height="300" preserveAspectRatio="xMidYMid meet" version="1.0"><defs><filter x="0%" y="0%" width="100%" height="100%" id="5eae40ea22"><feColorMatrix values="0 0 0 0 1 0 0 0 0 1 0 0 0 0 1 0 0 0 1 0" color-interpolation-filters="sRGB"/></filter><g/><clipPath id="b3f11d204a"><path d="M 86.371094 69.03125 L 226.632812 69.03125 L 226.632812 175.582031 L 86.371094 175.582031 Z M 86.371094 69.03125 " clip-rule="nonzero"/></clipPath><clipPath id="06a6c0ba0c"><path d="M 124.804688 69.03125 L 223.851562 69.03125 C 224.722656 69.03125 225.539062 69.449219 226.046875 70.152344 C 226.554688 70.859375 226.691406 71.765625 226.417969 72.589844 L 193.273438 172.023438 C 192.566406 174.148438 190.578125 175.582031 188.335938 175.582031 L 89.289062 175.582031 C 88.417969 175.582031 87.601562 175.164062 87.09375 174.457031 C 86.585938 173.753906 86.449219 172.847656 86.722656 172.023438 L 119.867188 72.589844 C 120.578125 70.464844 122.566406 69.03125 124.804688 69.03125 Z M 124.804688 69.03125 " clip-rule="nonzero"/></clipPath><mask id="a38d20b549"><g filter="url(#5eae40ea22)"><rect x="-75" width="900" fill="#000000" y="-22.5" height="270" fill-opacity="0.8"/></g></mask><clipPath id="509656919b"><path d="M 1 0.417969 L 141.140625 0.417969 L 141.140625 106.96875 L 1 106.96875 Z M 1 0.417969 " clip-rule="nonzero"/></clipPath><clipPath id="fb25331a22"><path d="M 39.3125 0.417969 L 138.363281 0.417969 C 139.230469 0.417969 140.046875 0.835938 140.554688 1.542969 C 141.0625 2.246094 141.203125 3.152344 140.925781 3.976562 L 107.78125 103.410156 C 107.074219 105.535156 105.085938 106.96875 102.847656 106.96875 L 3.796875 106.96875 C 2.929688 106.96875 2.113281 106.550781 1.605469 105.847656 C 1.097656 105.140625 0.957031 104.234375 1.234375 103.410156 L 34.378906 3.976562 C 35.085938 1.851562 37.074219 0.417969 39.3125 0.417969 Z M 39.3125 0.417969 " clip-rule="nonzero"/></clipPath><clipPath id="9ff17593a7"><rect x="0" width="143" y="0" height="107"/></clipPath></defs><rect x="-75" width="900" fill="#ffffff" y="-22.5" height="270" fill-opacity="1"/><rect x="-75" width="900" fill="#ffffff" y="-22.5" height="270" fill-opacity="1"/><g clip-path="url(#b3f11d204a)"><g clip-path="url(#06a6c0ba0c)"><path fill="#0558ee" d="M 85.539062 69.03125 L 227.464844 69.03125 L 227.464844 175.582031 L 85.539062 175.582031 Z M 85.539062 69.03125 " fill-opacity="1" fill-rule="nonzero"/></g></g><g mask="url(#a38d20b549)"><g transform="matrix(1, 0, 0, 1, 66, 49)"><g clip-path="url(#9ff17593a7)"><g clip-path="url(#509656919b)"><g clip-path="url(#fb25331a22)"><path fill="#21e8e6" d="M 0.046875 0.417969 L 141.972656 0.417969 L 141.972656 106.96875 L 0.046875 106.96875 Z M 0.046875 0.417969 " fill-opacity="1" fill-rule="nonzero"/></g></g></g></g></g><g fill="#ffffff" fill-opacity="1"><g transform="translate(253.449393, 128.704331)"><g><path d="M 21.683594 1.324219 C 32.292969 1.324219 39.703125 -3.277344 39.703125 -13.261719 C 39.703125 -21.917969 35.410156 -25.351562 26.988281 -27.066406 L 20.046875 -28.546875 C 17.785156 -29.09375 16.457031 -29.71875 16.457031 -31.746094 C 16.457031 -33.695312 17.785156 -35.101562 22.621094 -35.101562 C 28.15625 -35.101562 33.773438 -33.773438 37.675781 -31.980469 L 37.675781 -42.355469 C 33.070312 -43.914062 27.535156 -45.160156 22.074219 -45.160156 C 10.140625 -45.160156 4.289062 -40.402344 4.289062 -30.964844 C 4.289062 -23.398438 8.503906 -19.578125 16.691406 -17.863281 L 23.632812 -16.378906 C 26.285156 -15.757812 27.535156 -14.820312 27.535156 -12.636719 C 27.535156 -10.375 26.050781 -8.734375 21.683594 -8.734375 C 15.445312 -8.734375 9.59375 -9.90625 3.664062 -13.261719 L 3.664062 -2.496094 C 9.671875 0.3125 14.585938 1.324219 21.683594 1.324219 Z M 21.683594 1.324219 "/></g></g></g><g fill="#ffffff" fill-opacity="1"><g transform="translate(296.50137, 128.704331)"><g><path d="M 5.851562 -51.167969 L 17.863281 -51.167969 L 17.863281 -62.945312 L 5.851562 -62.945312 Z M 5.851562 0 L 17.863281 0 L 17.863281 -43.914062 L 5.851562 -43.914062 Z M 5.851562 0 "/></g></g></g><g fill="#ffffff" fill-opacity="1"><g transform="translate(320.211156, 128.704331)"><g><path d="M 58.03125 -44.851562 C 52.648438 -44.851562 48.359375 -42.511719 43.835938 -37.984375 C 41.261719 -42.742188 36.503906 -44.851562 29.71875 -44.851562 C 25.273438 -44.851562 21.605469 -43.289062 17.863281 -40.167969 L 17.863281 -43.914062 L 5.851562 -43.914062 L 5.851562 0 L 17.863281 0 L 17.863281 -30.03125 C 20.824219 -32.605469 23.867188 -34.085938 27.222656 -34.085938 C 32.527344 -34.085938 34.164062 -31.355469 34.164062 -26.363281 L 34.164062 0 L 46.175781 0 L 46.175781 -26.363281 C 46.175781 -27.613281 46.097656 -28.78125 46.019531 -29.875 C 49.0625 -32.527344 52.105469 -34.085938 55.535156 -34.085938 C 60.839844 -34.085938 62.476562 -31.355469 62.476562 -26.363281 L 62.476562 0 L 74.488281 0 L 74.488281 -26.363281 C 74.488281 -39.546875 68.953125 -44.851562 58.03125 -44.851562 Z M 58.03125 -44.851562 "/></g></g></g><g fill="#ffffff" fill-opacity="1"><g transform="translate(399.841684, 128.704331)"><g><path d="M 29.875 -45.160156 C 25.351562 -45.160156 21.449219 -43.445312 17.863281 -40.636719 L 17.863281 -43.914062 L 5.851562 -43.914062 L 5.851562 18.25 L 17.863281 18.25 L 17.863281 -3.121094 C 21.449219 -0.390625 25.351562 1.324219 29.875 1.324219 C 41.417969 1.324219 49.839844 -6.316406 49.839844 -21.917969 C 49.839844 -37.441406 41.417969 -45.160156 29.875 -45.160156 Z M 27.378906 -9.359375 C 23.945312 -9.359375 20.746094 -10.84375 17.863281 -12.949219 L 17.863281 -30.886719 C 20.746094 -32.992188 23.945312 -34.398438 27.378906 -34.398438 C 34.007812 -34.398438 37.363281 -30.03125 37.363281 -21.917969 C 37.363281 -13.726562 34.007812 -9.359375 27.378906 -9.359375 Z M 27.378906 -9.359375 "/></g></g></g><g fill="#ffffff" fill-opacity="1"><g transform="translate(452.876726, 128.704331)"><g><path d="M 18.875 1.015625 C 21.605469 1.015625 23.789062 0.625 26.441406 0.078125 L 26.441406 -10.296875 C 25.195312 -9.90625 23.867188 -9.671875 21.996094 -9.671875 C 18.796875 -9.671875 17.863281 -10.921875 17.863281 -14.585938 L 17.863281 -65.988281 L 5.851562 -65.988281 L 5.851562 -10.375 C 5.851562 -2.964844 9.90625 1.015625 18.875 1.015625 Z M 18.875 1.015625 "/></g></g></g><g fill="#ffffff" fill-opacity="1"><g transform="translate(481.266075, 128.704331)"><g><path d="M 15.910156 -18.640625 L 44.460938 -18.640625 L 44.460938 -23.398438 C 44.460938 -37.90625 36.582031 -45.160156 24.335938 -45.160156 C 12.636719 -45.160156 3.121094 -37.128906 3.121094 -21.996094 C 3.121094 -8.191406 11.308594 1.324219 26.675781 1.324219 C 33.382812 1.324219 38.296875 0.3125 43.679688 -2.652344 L 40.480469 -12.011719 C 35.800781 -9.75 32.292969 -8.734375 28.234375 -8.734375 C 19.890625 -8.734375 16.691406 -13.027344 15.910156 -18.640625 Z M 24.335938 -35.101562 C 28.9375 -35.101562 31.355469 -32.835938 31.902344 -27.769531 L 16.144531 -27.769531 C 17.238281 -33.148438 20.203125 -35.101562 24.335938 -35.101562 Z M 24.335938 -35.101562 "/></g></g></g><g fill="#ffffff" fill-opacity="1"><g transform="translate(528.37365, 128.704331)"><g><path d="M 33.695312 1.324219 C 39.546875 1.324219 46.488281 -0.234375 52.726562 -3.433594 L 49.0625 -13.648438 C 43.992188 -10.996094 39.15625 -9.203125 33.695312 -9.203125 C 22.230469 -9.203125 15.757812 -17.472656 15.757812 -29.484375 C 15.757812 -41.105469 23.011719 -49.6875 34.085938 -49.6875 C 38.765625 -49.6875 43.367188 -48.75 48.046875 -46.488281 L 48.046875 -57.328125 C 43.289062 -59.28125 39.390625 -60.214844 33.695312 -60.214844 C 13.261719 -60.214844 3.121094 -46.410156 3.121094 -29.40625 C 3.121094 -11.074219 12.714844 1.324219 33.695312 1.324219 Z M 33.695312 1.324219 "/></g></g></g><g fill="#ffffff" fill-opacity="1"><g transform="translate(583.826466, 128.704331)"><g><path d="M 48.671875 -59.125 L 3.121094 -59.125 L 3.121094 -48.4375 L 19.65625 -48.4375 L 19.65625 0 L 32.136719 0 L 32.136719 -48.4375 L 48.671875 -48.4375 Z M 48.671875 -59.125 "/></g></g></g><g fill="#ffffff" fill-opacity="1"><g transform="translate(635.613604, 128.704331)"><g><path d="M 45.003906 -48.4375 L 45.003906 -59.125 L 6.785156 -59.125 L 6.785156 0 L 19.1875 0 L 19.1875 -22.933594 L 41.105469 -22.933594 L 41.105469 -33.617188 L 19.1875 -33.617188 L 19.1875 -48.4375 Z M 45.003906 -48.4375 "/></g></g></g></svg>