<svg xmlns="http://www.w3.org/2000/svg" xmlns:xlink="http://www.w3.org/1999/xlink" width="273" zoomAndPan="magnify" viewBox="0 0 204.75 61.499998" height="82" preserveAspectRatio="xMidYMid meet" version="1.0"><defs><filter x="0%" y="0%" width="100%" height="100%" id="3f4c3c96a8"><feColorMatrix values="0 0 0 0 1 0 0 0 0 1 0 0 0 0 1 0 0 0 1 0" color-interpolation-filters="sRGB"/></filter><g/><clipPath id="1b7f3e5a46"><path d="M 24.089844 18.730469 L 62.074219 18.730469 L 62.074219 47.585938 L 24.089844 47.585938 Z M 24.089844 18.730469 " clip-rule="nonzero"/></clipPath><clipPath id="07554617c7"><path d="M 34.5 18.730469 L 61.320312 18.730469 C 61.554688 18.730469 61.777344 18.84375 61.914062 19.035156 C 62.050781 19.226562 62.089844 19.472656 62.015625 19.695312 L 53.039062 46.621094 C 52.847656 47.195312 52.308594 47.585938 51.703125 47.585938 L 24.878906 47.585938 C 24.644531 47.585938 24.425781 47.472656 24.285156 47.28125 C 24.148438 47.089844 24.113281 46.84375 24.1875 46.621094 L 33.160156 19.695312 C 33.355469 19.117188 33.890625 18.730469 34.5 18.730469 Z M 34.5 18.730469 " clip-rule="nonzero"/></clipPath><mask id="3f098f5de4"><g filter="url(#3f4c3c96a8)"><rect x="-20.475" width="245.7" fill="#000000" y="-6.15" height="73.799998" fill-opacity="0.8"/></g></mask><clipPath id="6b1ee3557b"><path d="M 0.8125 0.417969 L 38.796875 0.417969 L 38.796875 29.273438 L 0.8125 29.273438 Z M 0.8125 0.417969 " clip-rule="nonzero"/></clipPath><clipPath id="2ab7a154e1"><path d="M 11.21875 0.417969 L 38.042969 0.417969 C 38.277344 0.417969 38.5 0.53125 38.636719 0.722656 C 38.773438 0.914062 38.8125 1.160156 38.738281 1.382812 L 29.761719 28.308594 C 29.570312 28.886719 29.03125 29.273438 28.425781 29.273438 L 1.601562 29.273438 C 1.367188 29.273438 1.144531 29.160156 1.007812 28.96875 C 0.871094 28.777344 0.832031 28.53125 0.910156 28.308594 L 9.882812 1.382812 C 10.074219 0.808594 10.613281 0.417969 11.21875 0.417969 Z M 11.21875 0.417969 " clip-rule="nonzero"/></clipPath><clipPath id="099889aec4"><rect x="0" width="40" y="0" height="30"/></clipPath></defs><g fill="#ffffff" fill-opacity="1"><g transform="translate(97.539574, 31.731257)"><g><path d="M 1.179688 0.0703125 C 1.757812 0.0703125 2.160156 -0.179688 2.160156 -0.722656 C 2.160156 -1.191406 1.925781 -1.378906 1.46875 -1.472656 L 1.089844 -1.554688 C 0.96875 -1.582031 0.894531 -1.617188 0.894531 -1.726562 C 0.894531 -1.835938 0.96875 -1.910156 1.230469 -1.910156 C 1.53125 -1.910156 1.839844 -1.839844 2.050781 -1.742188 L 2.050781 -2.304688 C 1.800781 -2.390625 1.5 -2.457031 1.203125 -2.457031 C 0.550781 -2.457031 0.234375 -2.199219 0.234375 -1.683594 C 0.234375 -1.273438 0.460938 -1.066406 0.910156 -0.972656 L 1.285156 -0.890625 C 1.429688 -0.859375 1.5 -0.808594 1.5 -0.6875 C 1.5 -0.566406 1.417969 -0.476562 1.179688 -0.476562 C 0.839844 -0.476562 0.523438 -0.539062 0.199219 -0.722656 L 0.199219 -0.136719 C 0.527344 0.015625 0.792969 0.0703125 1.179688 0.0703125 Z M 1.179688 0.0703125 "/></g></g></g><g fill="#ffffff" fill-opacity="1"><g transform="translate(99.883136, 31.731257)"><g><path d="M 0.320312 -2.785156 L 0.972656 -2.785156 L 0.972656 -3.425781 L 0.320312 -3.425781 Z M 0.320312 0 L 0.972656 0 L 0.972656 -2.390625 L 0.320312 -2.390625 Z M 0.320312 0 "/></g></g></g><g fill="#ffffff" fill-opacity="1"><g transform="translate(101.173793, 31.731257)"><g><path d="M 3.160156 -2.441406 C 2.867188 -2.441406 2.632812 -2.3125 2.386719 -2.066406 C 2.246094 -2.328125 1.988281 -2.441406 1.617188 -2.441406 C 1.375 -2.441406 1.175781 -2.355469 0.972656 -2.1875 L 0.972656 -2.390625 L 0.320312 -2.390625 L 0.320312 0 L 0.972656 0 L 0.972656 -1.632812 C 1.132812 -1.773438 1.300781 -1.855469 1.480469 -1.855469 C 1.769531 -1.855469 1.859375 -1.707031 1.859375 -1.433594 L 1.859375 0 L 2.511719 0 L 2.511719 -1.433594 C 2.511719 -1.503906 2.507812 -1.566406 2.503906 -1.625 C 2.671875 -1.769531 2.835938 -1.855469 3.023438 -1.855469 C 3.3125 -1.855469 3.402344 -1.707031 3.402344 -1.433594 L 3.402344 0 L 4.054688 0 L 4.054688 -1.433594 C 4.054688 -2.152344 3.753906 -2.441406 3.160156 -2.441406 Z M 3.160156 -2.441406 "/></g></g></g><g fill="#ffffff" fill-opacity="1"><g transform="translate(105.508532, 31.731257)"><g><path d="M 1.625 -2.457031 C 1.378906 -2.457031 1.167969 -2.363281 0.972656 -2.210938 L 0.972656 -2.390625 L 0.320312 -2.390625 L 0.320312 0.992188 L 0.972656 0.992188 L 0.972656 -0.167969 C 1.167969 -0.0195312 1.378906 0.0703125 1.625 0.0703125 C 2.253906 0.0703125 2.714844 -0.34375 2.714844 -1.191406 C 2.714844 -2.039062 2.253906 -2.457031 1.625 -2.457031 Z M 1.488281 -0.507812 C 1.304688 -0.507812 1.128906 -0.589844 0.972656 -0.703125 L 0.972656 -1.679688 C 1.128906 -1.796875 1.304688 -1.871094 1.488281 -1.871094 C 1.851562 -1.871094 2.035156 -1.632812 2.035156 -1.191406 C 2.035156 -0.746094 1.851562 -0.507812 1.488281 -0.507812 Z M 1.488281 -0.507812 "/></g></g></g><g fill="#ffffff" fill-opacity="1"><g transform="translate(108.395529, 31.731257)"><g><path d="M 1.027344 0.0546875 C 1.175781 0.0546875 1.296875 0.0351562 1.4375 0.00390625 L 1.4375 -0.558594 C 1.371094 -0.539062 1.300781 -0.527344 1.199219 -0.527344 C 1.023438 -0.527344 0.972656 -0.59375 0.972656 -0.792969 L 0.972656 -3.59375 L 0.320312 -3.59375 L 0.320312 -0.566406 C 0.320312 -0.160156 0.539062 0.0546875 1.027344 0.0546875 Z M 1.027344 0.0546875 "/></g></g></g><g fill="#ffffff" fill-opacity="1"><g transform="translate(109.94092, 31.731257)"><g><path d="M 0.867188 -1.015625 L 2.421875 -1.015625 L 2.421875 -1.273438 C 2.421875 -2.0625 1.992188 -2.457031 1.324219 -2.457031 C 0.6875 -2.457031 0.167969 -2.019531 0.167969 -1.199219 C 0.167969 -0.445312 0.617188 0.0703125 1.453125 0.0703125 C 1.816406 0.0703125 2.085938 0.015625 2.378906 -0.144531 L 2.203125 -0.652344 C 1.949219 -0.53125 1.757812 -0.476562 1.535156 -0.476562 C 1.082031 -0.476562 0.910156 -0.710938 0.867188 -1.015625 Z M 1.324219 -1.910156 C 1.574219 -1.910156 1.707031 -1.789062 1.738281 -1.511719 L 0.878906 -1.511719 C 0.9375 -1.804688 1.101562 -1.910156 1.324219 -1.910156 Z M 1.324219 -1.910156 "/></g></g></g><g fill="#ffffff" fill-opacity="1"><g transform="translate(112.505252, 31.731257)"><g><path d="M 1.835938 0.0703125 C 2.152344 0.0703125 2.53125 -0.0117188 2.871094 -0.1875 L 2.671875 -0.742188 C 2.394531 -0.597656 2.132812 -0.5 1.835938 -0.5 C 1.210938 -0.5 0.859375 -0.949219 0.859375 -1.605469 C 0.859375 -2.238281 1.253906 -2.703125 1.855469 -2.703125 C 2.109375 -2.703125 2.359375 -2.652344 2.617188 -2.53125 L 2.617188 -3.121094 C 2.355469 -3.226562 2.144531 -3.277344 1.835938 -3.277344 C 0.722656 -3.277344 0.167969 -2.527344 0.167969 -1.601562 C 0.167969 -0.601562 0.691406 0.0703125 1.835938 0.0703125 Z M 1.835938 0.0703125 "/></g></g></g><g fill="#ffffff" fill-opacity="1"><g transform="translate(115.523861, 31.731257)"><g><path d="M 2.648438 -3.21875 L 0.167969 -3.21875 L 0.167969 -2.636719 L 1.070312 -2.636719 L 1.070312 0 L 1.75 0 L 1.75 -2.636719 L 2.648438 -2.636719 Z M 2.648438 -3.21875 "/></g></g></g><g fill="#ffffff" fill-opacity="1"><g transform="translate(118.342927, 31.731257)"><g><path d="M 2.449219 -2.636719 L 2.449219 -3.21875 L 0.371094 -3.21875 L 0.371094 0 L 1.042969 0 L 1.042969 -1.25 L 2.238281 -1.25 L 2.238281 -1.828125 L 1.042969 -1.828125 L 1.042969 -2.636719 Z M 2.449219 -2.636719 "/></g></g></g><g clip-path="url(#1b7f3e5a46)"><g clip-path="url(#07554617c7)"><path fill="#0558ee" d="M 23.863281 18.730469 L 62.296875 18.730469 L 62.296875 47.585938 L 23.863281 47.585938 Z M 23.863281 18.730469 " fill-opacity="1" fill-rule="nonzero"/></g></g><g mask="url(#3f098f5de4)"><g transform="matrix(1, 0, 0, 1, 18, 13)"><g clip-path="url(#099889aec4)"><g clip-path="url(#6b1ee3557b)"><g clip-path="url(#2ab7a154e1)"><path fill="#21e8e6" d="M 0.585938 0.417969 L 39.019531 0.417969 L 39.019531 29.273438 L 0.585938 29.273438 Z M 0.585938 0.417969 " fill-opacity="1" fill-rule="nonzero"/></g></g></g></g></g><g fill="#000000" fill-opacity="1"><g transform="translate(69.335311, 34.890109)"><g><path d="M 5.871094 0.359375 C 8.746094 0.359375 10.75 -0.886719 10.75 -3.589844 C 10.75 -5.933594 9.589844 -6.863281 7.308594 -7.328125 L 5.429688 -7.730469 C 4.816406 -7.878906 4.457031 -8.046875 4.457031 -8.597656 C 4.457031 -9.125 4.816406 -9.503906 6.125 -9.503906 C 7.625 -9.503906 9.144531 -9.144531 10.203125 -8.660156 L 10.203125 -11.46875 C 8.957031 -11.890625 7.457031 -12.230469 5.976562 -12.230469 C 2.746094 -12.230469 1.160156 -10.941406 1.160156 -8.386719 C 1.160156 -6.335938 2.300781 -5.300781 4.519531 -4.835938 L 6.398438 -4.4375 C 7.117188 -4.265625 7.457031 -4.011719 7.457031 -3.421875 C 7.457031 -2.808594 7.054688 -2.367188 5.871094 -2.367188 C 4.183594 -2.367188 2.597656 -2.683594 0.992188 -3.589844 L 0.992188 -0.675781 C 2.621094 0.0859375 3.949219 0.359375 5.871094 0.359375 Z M 5.871094 0.359375 "/></g></g></g><g fill="#000000" fill-opacity="1"><g transform="translate(80.993717, 34.890109)"><g><path d="M 1.585938 -13.855469 L 4.835938 -13.855469 L 4.835938 -17.046875 L 1.585938 -17.046875 Z M 1.585938 0 L 4.835938 0 L 4.835938 -11.890625 L 1.585938 -11.890625 Z M 1.585938 0 "/></g></g></g><g fill="#000000" fill-opacity="1"><g transform="translate(87.414288, 34.890109)"><g><path d="M 15.714844 -12.144531 C 14.257812 -12.144531 13.097656 -11.511719 11.871094 -10.285156 C 11.171875 -11.574219 9.886719 -12.144531 8.046875 -12.144531 C 6.84375 -12.144531 5.851562 -11.722656 4.835938 -10.878906 L 4.835938 -11.890625 L 1.585938 -11.890625 L 1.585938 0 L 4.835938 0 L 4.835938 -8.132812 C 5.640625 -8.828125 6.464844 -9.230469 7.371094 -9.230469 C 8.808594 -9.230469 9.25 -8.492188 9.25 -7.140625 L 9.25 0 L 12.503906 0 L 12.503906 -7.140625 C 12.503906 -7.476562 12.484375 -7.792969 12.460938 -8.089844 C 13.285156 -8.808594 14.109375 -9.230469 15.039062 -9.230469 C 16.476562 -9.230469 16.917969 -8.492188 16.917969 -7.140625 L 16.917969 0 L 20.171875 0 L 20.171875 -7.140625 C 20.171875 -10.707031 18.671875 -12.144531 15.714844 -12.144531 Z M 15.714844 -12.144531 "/></g></g></g><g fill="#000000" fill-opacity="1"><g transform="translate(108.978106, 34.890109)"><g><path d="M 8.089844 -12.230469 C 6.863281 -12.230469 5.808594 -11.765625 4.835938 -11.003906 L 4.835938 -11.890625 L 1.585938 -11.890625 L 1.585938 4.941406 L 4.835938 4.941406 L 4.835938 -0.84375 C 5.808594 -0.105469 6.863281 0.359375 8.089844 0.359375 C 11.214844 0.359375 13.496094 -1.710938 13.496094 -5.933594 C 13.496094 -10.136719 11.214844 -12.230469 8.089844 -12.230469 Z M 7.414062 -2.535156 C 6.484375 -2.535156 5.617188 -2.9375 4.835938 -3.507812 L 4.835938 -8.363281 C 5.617188 -8.933594 6.484375 -9.316406 7.414062 -9.316406 C 9.210938 -9.316406 10.117188 -8.132812 10.117188 -5.933594 C 10.117188 -3.71875 9.210938 -2.535156 7.414062 -2.535156 Z M 7.414062 -2.535156 "/></g></g></g><g fill="#000000" fill-opacity="1"><g transform="translate(123.339909, 34.890109)"><g><path d="M 5.113281 0.273438 C 5.851562 0.273438 6.441406 0.167969 7.160156 0.0195312 L 7.160156 -2.789062 C 6.824219 -2.683594 6.464844 -2.621094 5.957031 -2.621094 C 5.089844 -2.621094 4.835938 -2.957031 4.835938 -3.949219 L 4.835938 -17.871094 L 1.585938 -17.871094 L 1.585938 -2.808594 C 1.585938 -0.800781 2.683594 0.273438 5.113281 0.273438 Z M 5.113281 0.273438 "/></g></g></g><g fill="#000000" fill-opacity="1"><g transform="translate(131.027699, 34.890109)"><g><path d="M 4.308594 -5.046875 L 12.039062 -5.046875 L 12.039062 -6.335938 C 12.039062 -10.265625 9.90625 -12.230469 6.589844 -12.230469 C 3.421875 -12.230469 0.84375 -10.054688 0.84375 -5.957031 C 0.84375 -2.21875 3.0625 0.359375 7.222656 0.359375 C 9.039062 0.359375 10.371094 0.0859375 11.828125 -0.71875 L 10.960938 -3.253906 C 9.695312 -2.640625 8.746094 -2.367188 7.644531 -2.367188 C 5.386719 -2.367188 4.519531 -3.527344 4.308594 -5.046875 Z M 6.589844 -9.503906 C 7.835938 -9.503906 8.492188 -8.890625 8.640625 -7.519531 L 4.371094 -7.519531 C 4.667969 -8.976562 5.46875 -9.503906 6.589844 -9.503906 Z M 6.589844 -9.503906 "/></g></g></g><g fill="#000000" fill-opacity="1"><g transform="translate(143.784354, 34.890109)"><g><path d="M 9.125 0.359375 C 10.707031 0.359375 12.589844 -0.0625 14.277344 -0.929688 L 13.285156 -3.695312 C 11.914062 -2.976562 10.601562 -2.492188 9.125 -2.492188 C 6.019531 -2.492188 4.265625 -4.730469 4.265625 -7.984375 C 4.265625 -11.132812 6.230469 -13.453125 9.230469 -13.453125 C 10.496094 -13.453125 11.742188 -13.203125 13.011719 -12.589844 L 13.011719 -15.523438 C 11.722656 -16.054688 10.667969 -16.304688 9.125 -16.304688 C 3.589844 -16.304688 0.84375 -12.566406 0.84375 -7.964844 C 0.84375 -3 3.441406 0.359375 9.125 0.359375 Z M 9.125 0.359375 "/></g></g></g><g fill="#000000" fill-opacity="1"><g transform="translate(158.800886, 34.890109)"><g><path d="M 13.179688 -16.011719 L 0.84375 -16.011719 L 0.84375 -13.117188 L 5.324219 -13.117188 L 5.324219 0 L 8.703125 0 L 8.703125 -13.117188 L 13.179688 -13.117188 Z M 13.179688 -16.011719 "/></g></g></g><g fill="#000000" fill-opacity="1"><g transform="translate(172.824759, 34.890109)"><g><path d="M 12.1875 -13.117188 L 12.1875 -16.011719 L 1.835938 -16.011719 L 1.835938 0 L 5.195312 0 L 5.195312 -6.210938 L 11.132812 -6.210938 L 11.132812 -9.105469 L 5.195312 -9.105469 L 5.195312 -13.117188 Z M 12.1875 -13.117188 "/></g></g></g></svg>