<svg xmlns="http://www.w3.org/2000/svg" xmlns:xlink="http://www.w3.org/1999/xlink" width="1330" zoomAndPan="magnify" viewBox="0 0 997.5 809.999993" height="1080" preserveAspectRatio="xMidYMid meet" version="1.0"><defs><clipPath id="a00946c269"><path d="M 0 0.203125 L 997 0.203125 L 997 809.796875 L 0 809.796875 Z M 0 0.203125 " clip-rule="nonzero"/></clipPath><clipPath id="b2fe205580"><path d="M 0 0.203125 L 997 0.203125 L 997 809 L 0 809 Z M 0 0.203125 " clip-rule="nonzero"/></clipPath><clipPath id="be2a991e01"><path d="M 0 0.203125 L 997 0.203125 L 997 708 L 0 708 Z M 0 0.203125 " clip-rule="nonzero"/></clipPath></defs><g clip-path="url(#a00946c269)"><path fill="#ffffff" d="M 0 0.203125 L 997 0.203125 L 997 809.796875 L 0 809.796875 Z M 0 0.203125 " fill-opacity="1" fill-rule="nonzero"/><path fill="#ffffff" d="M 0 0.203125 L 997 0.203125 L 997 809.796875 L 0 809.796875 Z M 0 0.203125 " fill-opacity="1" fill-rule="nonzero"/></g><g clip-path="url(#b2fe205580)"><path fill="#ffffff" d="M 912.878906 659.269531 C 913.660156 658.65625 914.039062 657.617188 913.757812 656.601562 L 905.644531 627.363281 C 909.113281 622.472656 921.210938 604.105469 915.78125 592.855469 C 910.558594 582.027344 887.742188 577.464844 880.5625 576.28125 C 879.363281 568.605469 874.820312 543.085938 866.597656 537.386719 C 864.882812 536.195312 862.992188 535.792969 861.136719 536.199219 C 851.761719 538.28125 853.941406 566.410156 856.914062 587.292969 C 853.910156 589.023438 848.015625 593.089844 846.0625 599.308594 C 846.003906 599.507812 845.964844 599.703125 845.910156 599.902344 C 833.515625 583.800781 819.222656 565.199219 804.058594 545.398438 C 762.777344 491.484375 745.257812 471.847656 688.28125 463.054688 L 698.332031 418.1875 C 721.75 418.902344 744.714844 390.253906 759.40625 368.207031 C 774.945312 344.890625 781.554688 328.367188 783.539062 307.871094 C 785.523438 287.375 772.960938 266.714844 761.890625 265.96875 C 750.8125 265.226562 750.15625 281.753906 750.15625 281.753906 C 750.15625 281.753906 742.304688 248.617188 728.335938 248.699219 C 714.371094 248.78125 717.097656 267.210938 717.097656 267.210938 C 717.097656 267.210938 700.734375 234.15625 688.339844 236.136719 C 675.941406 238.121094 678.09375 253.328125 678.09375 253.328125 C 678.09375 253.328125 663.214844 229.03125 651.480469 232.089844 C 639.746094 235.148438 643.050781 250.023438 643.050781 250.023438 C 643.050781 250.023438 630.820312 226.054688 621.730469 234.488281 C 613.046875 242.539062 602.320312 283.296875 617.167969 292.976562 C 616.078125 294.789062 607.96875 308.421875 599.273438 326.367188 C 596.515625 328.8125 581.996094 341.878906 575.78125 351.816406 C 573.519531 355.4375 573.054688 358.738281 574.402344 361.621094 C 576.011719 365.058594 579.777344 366.769531 582.460938 367.582031 C 577.042969 384.878906 574.492188 401.460938 578.878906 412.601562 C 583.859375 425.242188 593.113281 432.125 602.832031 435.808594 L 596.792969 454.296875 C 596.777344 454.347656 596.789062 454.394531 596.777344 454.445312 C 579.71875 449.933594 560.167969 442.8125 541.230469 431.578125 C 541.453125 431.199219 541.617188 430.785156 541.617188 430.3125 L 541.617188 326.355469 C 541.617188 324.957031 540.480469 323.820312 539.082031 323.820312 L 539.082031 302.710938 L 441.789062 302.710938 C 443.691406 306.625 445.667969 310.59375 447.699219 314.582031 C 432.125 283.988281 419.996094 254.929688 414.394531 239.125 C 411.636719 240.472656 408.417969 242.019531 404.914062 243.6875 L 386.042969 194.605469 L 394.503906 182.796875 C 396.40625 180.277344 402.734375 171.566406 406.183594 162.96875 L 675.832031 162.96875 C 677.234375 162.96875 678.367188 161.832031 678.367188 160.433594 L 678.367188 28.140625 C 678.367188 26.742188 677.234375 25.609375 675.832031 25.609375 L 675.832031 2.988281 L 225.867188 2.988281 C 225.859375 1.59375 224.730469 0.46875 223.335938 0.46875 L 140.816406 0.46875 C 139.417969 0.46875 138.28125 1.601562 138.28125 3.003906 L 138.28125 79.183594 L 98.683594 79.183594 C 97.285156 79.183594 96.148438 80.320312 96.148438 81.71875 C 96.148438 83.117188 97.285156 84.253906 98.683594 84.253906 L 138.28125 84.253906 L 138.28125 160.433594 C 138.28125 161.832031 139.417969 162.96875 140.816406 162.96875 L 291.121094 162.96875 C 289.636719 168.066406 294.628906 177.726562 301.3125 187.660156 L 271.667969 187.660156 C 270.265625 187.660156 269.132812 188.796875 269.132812 190.195312 C 269.132812 191.59375 270.265625 192.730469 271.667969 192.730469 L 304.171875 192.730469 C 304.382812 192.730469 304.566406 192.65625 304.761719 192.609375 C 311.152344 201.503906 318.234375 210.019531 322.527344 215.011719 L 214.808594 215.011719 C 213.410156 215.011719 212.273438 216.148438 212.273438 217.546875 C 212.273438 218.945312 213.410156 220.082031 214.808594 220.082031 L 324.003906 220.082031 C 324.21875 220.082031 324.414062 220.007812 324.617188 219.957031 L 339.449219 273.316406 C 339.515625 273.5625 339.632812 273.777344 339.761719 273.980469 C 336.804688 275.335938 334.0625 276.589844 331.648438 277.695312 C 333.3125 283.957031 336.574219 293.1875 340.828125 304.382812 C 340.617188 303.832031 340.394531 303.253906 340.191406 302.710938 L 116.15625 302.710938 C 116.15625 301.3125 115.023438 300.175781 113.625 300.175781 L 36.046875 300.175781 C 34.648438 300.175781 33.515625 301.3125 33.515625 302.710938 L 33.515625 450.765625 C 33.515625 452.164062 34.648438 453.300781 36.046875 453.300781 L 401.117188 453.300781 C 401.53125 453.300781 401.90625 453.179688 402.25 453 C 423.761719 495.140625 448.449219 532.210938 466.0625 556.746094 L 437.40625 556.746094 C 437.40625 555.347656 436.273438 554.214844 434.875 554.214844 L 36.046875 554.214844 C 34.648438 554.214844 33.515625 555.347656 33.515625 556.746094 L 33.515625 704.800781 C 33.515625 706.203125 34.648438 707.335938 36.046875 707.335938 L 492.132812 707.335938 L 494.832031 804.777344 C 494.839844 805.164062 494.953125 805.515625 495.117188 805.839844 L 495.140625 808.355469 L 764.6875 808.355469 L 764.6875 777.390625 L 765.765625 708.777344 C 772.203125 717.996094 807.464844 764.519531 862.867188 762.738281 C 924.347656 760.734375 920.523438 695.425781 917.558594 670.640625 C 917.054688 666.417969 915.34375 662.644531 912.878906 659.269531 Z M 352.53125 334.242188 C 353.941406 337.78125 355.382812 341.398438 356.855469 345.078125 C 355.136719 340.777344 353.457031 336.570312 351.824219 332.46875 C 352.054688 333.050781 352.296875 333.660156 352.53125 334.242188 Z M 348.386719 323.808594 C 349.488281 326.601562 350.625 329.460938 351.785156 332.378906 C 350.628906 329.46875 349.488281 326.597656 348.386719 323.808594 Z M 352.980469 335.378906 C 353.71875 337.21875 354.445312 339.050781 355.195312 340.929688 C 354.445312 339.054688 353.714844 337.214844 352.980469 335.378906 Z M 358.496094 349.191406 C 358.855469 350.085938 359.210938 350.980469 359.570312 351.878906 C 359.210938 350.984375 358.851562 350.078125 358.496094 349.191406 Z M 362.082031 358.179688 C 362.546875 359.339844 363.007812 360.5 363.472656 361.671875 C 363.007812 360.503906 362.542969 359.335938 362.082031 358.179688 Z M 365.726562 367.347656 C 366.207031 368.570312 366.691406 369.789062 367.175781 371.019531 C 366.691406 369.792969 366.207031 368.570312 365.726562 367.347656 Z M 369.398438 376.660156 C 369.875 377.878906 370.355469 379.09375 370.832031 380.316406 C 370.355469 379.09375 369.875 377.878906 369.398438 376.660156 Z M 373.164062 386.300781 C 373.585938 387.390625 374.011719 388.476562 374.433594 389.566406 C 374.011719 388.476562 373.585938 387.390625 373.164062 386.300781 Z M 44.183594 3.003906 C 44.183594 1.601562 45.320312 0.46875 46.71875 0.46875 L 115.363281 0.46875 C 116.761719 0.46875 117.894531 1.601562 117.894531 3.003906 C 117.894531 4.402344 116.761719 5.535156 115.363281 5.535156 L 46.71875 5.535156 C 45.320312 5.535156 44.183594 4.402344 44.183594 3.003906 Z M 784.253906 382.707031 L 968.140625 382.707031 C 969.539062 382.707031 970.671875 383.84375 970.671875 385.242188 L 994.492188 385.242188 L 994.492188 427.789062 L 833.992188 427.789062 C 833.992188 429.1875 832.855469 430.324219 831.457031 430.324219 L 784.253906 430.324219 C 782.855469 430.324219 781.71875 429.1875 781.71875 427.789062 L 781.71875 385.242188 C 781.71875 383.84375 782.851562 382.707031 784.253906 382.707031 Z M 40.21875 160.433594 C 40.21875 159.035156 41.351562 157.898438 42.75 157.898438 L 113.625 157.898438 C 115.023438 157.898438 116.160156 159.035156 116.160156 160.433594 C 116.160156 161.832031 115.023438 162.96875 113.625 162.96875 L 42.75 162.96875 C 41.351562 162.96875 40.21875 161.832031 40.21875 160.433594 Z M 163.074219 220.082031 C 161.675781 220.082031 160.542969 218.945312 160.542969 217.546875 C 160.542969 216.148438 161.675781 215.011719 163.074219 215.011719 L 190.234375 215.011719 C 191.636719 215.011719 192.769531 216.148438 192.769531 217.546875 C 192.769531 218.945312 191.636719 220.082031 190.234375 220.082031 Z M 20.824219 3.003906 C 20.824219 4.402344 19.6875 5.535156 18.289062 5.535156 L 2.535156 5.535156 C 1.136719 5.535156 0 4.402344 0 3.003906 C 0 1.601562 1.136719 0.46875 2.535156 0.46875 L 18.289062 0.46875 C 19.6875 0.46875 20.824219 1.601562 20.824219 3.003906 Z M 997.023438 481.945312 L 997.023438 503.21875 C 997.023438 504.621094 995.886719 505.753906 994.488281 505.753906 L 902.445312 505.753906 C 901.046875 505.753906 899.910156 504.621094 899.910156 503.21875 L 834.003906 503.21875 L 834.003906 460.671875 L 994.492188 460.671875 L 994.492188 479.410156 C 995.886719 479.410156 997.023438 480.546875 997.023438 481.945312 Z M 997.023438 481.945312 " fill-opacity="1" fill-rule="nonzero"/></g><path fill="#ffffff" d="M 38.582031 601.746094 L 493.992188 601.746094 L 493.992188 707.339844 L 38.582031 707.339844 Z M 612.304688 349.695312 C 613.714844 350.519531 615.175781 351.214844 616.691406 351.730469 C 623.882812 354.132812 631.070312 352.421875 634.78125 351.160156 C 632.597656 347.910156 627.90625 342.199219 620.710938 339.78125 C 619.839844 339.484375 618.949219 339.265625 618.0625 339.082031 C 618.535156 340.710938 618.535156 342.5 617.949219 344.226562 C 617.03125 346.964844 614.867188 348.902344 612.304688 349.695312 Z M 223.335938 41.070312 C 227.539062 41.070312 230.953125 37.652344 230.953125 33.453125 C 230.953125 29.253906 227.535156 25.832031 223.335938 25.832031 C 219.136719 25.832031 215.71875 29.253906 215.71875 33.453125 C 215.71875 37.652344 219.136719 41.070312 223.335938 41.070312 Z M 175.628906 41.070312 C 179.832031 41.070312 183.25 37.652344 183.25 33.453125 C 183.25 29.253906 179.828125 25.832031 175.628906 25.832031 C 171.429688 25.832031 168.011719 29.253906 168.011719 33.453125 C 168.011719 37.652344 171.429688 41.070312 175.628906 41.070312 Z M 496.425781 679.289062 L 760.878906 697.347656 L 762.09375 620.140625 L 493.992188 591.445312 Z M 900.84375 625.355469 C 905.058594 619.683594 915.132812 603.175781 911.21875 595.058594 C 907.238281 586.808594 885.875 582.121094 877.980469 581.011719 C 876.859375 580.855469 875.980469 579.976562 875.820312 578.855469 C 874.074219 566.464844 869.242188 545.382812 863.710938 541.550781 C 863.003906 541.058594 862.550781 541.074219 862.234375 541.148438 C 858.476562 541.984375 858.648438 563.148438 862.210938 588.273438 C 862.234375 588.410156 862.269531 588.539062 862.269531 588.675781 C 862.824219 592.578125 863.460938 596.566406 864.179688 600.589844 C 864.425781 601.96875 863.507812 603.285156 862.128906 603.53125 C 860.746094 603.789062 859.433594 602.859375 859.1875 601.480469 C 858.742188 598.972656 858.238281 596.007812 857.730469 592.761719 C 855.257812 594.4375 852.023438 597.207031 850.894531 600.839844 C 850.3125 602.699219 850.394531 604.59375 851.046875 606.566406 C 860.402344 618.710938 868.460938 629.144531 874.726562 637.253906 C 881.953125 639.289062 897.390625 644.449219 907.664062 653.585938 L 900.433594 627.539062 C 900.226562 626.792969 900.375 625.984375 900.84375 625.355469 Z M 662.945312 361.183594 C 667.777344 357.425781 678.511719 350.425781 684.558594 352.21875 C 686.460938 352.785156 687.773438 354.3125 688.5625 356.882812 C 693.246094 372.09375 673.082031 386.5 672.878906 386.640625 C 672.382812 386.992188 672.023438 387.511719 671.875 388.101562 C 671.769531 388.523438 669.347656 398.566406 675.085938 407.566406 C 678.71875 413.257812 684.707031 417.171875 692.914062 419.21875 L 683.253906 462.328125 C 678.382812 461.65625 673.273438 461.042969 667.808594 460.496094 C 666.394531 460.371094 665.175781 461.375 665.035156 462.769531 C 665.03125 462.800781 665.046875 462.828125 665.046875 462.863281 C 659.179688 462.472656 653.085938 462.25 646.695312 462.25 C 646.695312 462.25 627.640625 461.996094 601.675781 455.6875 L 607.644531 437.402344 C 614.378906 439.257812 621.035156 439.785156 626.371094 439.785156 C 633 439.785156 637.585938 438.984375 637.726562 438.957031 C 639.105469 438.703125 640.015625 437.382812 639.761719 436.007812 C 639.507812 434.632812 638.191406 433.722656 636.8125 433.972656 C 635.128906 434.277344 595.566406 441.121094 583.59375 410.742188 C 577.476562 395.210938 586.75 366.769531 597.664062 342.023438 C 598.054688 342.65625 598.558594 343.425781 599.171875 344.28125 C 600.621094 346.292969 603.082031 349.253906 606.570312 351.953125 C 609.195312 353.964844 612.050781 355.503906 615.070312 356.53125 C 618.316406 357.613281 621.511719 358.015625 624.480469 358.015625 C 632.792969 358.015625 639.253906 354.855469 639.617188 354.675781 C 640.867188 354.050781 641.375 352.539062 640.761719 351.289062 C 640.519531 350.792969 634.660156 339.125 622.328125 334.976562 C 620.566406 334.382812 618.753906 333.96875 616.96875 333.75 C 610.566406 332.902344 604.78125 334.25 601.054688 335.523438 C 600.859375 335.589844 600.703125 335.648438 600.523438 335.714844 C 610.746094 313.609375 621.359375 295.847656 621.589844 295.460938 C 621.71875 295.246094 621.773438 295.011719 621.832031 294.78125 C 627.601562 296.375 642.042969 301.035156 645.203125 308.535156 C 649.167969 317.953125 645.203125 330.351562 645.203125 330.351562 L 654.128906 339.113281 L 640.410156 365.722656 L 653.136719 371.839844 C 653.136719 371.839844 657.433594 366.59375 662.945312 361.183594 Z M 641.894531 337.03125 C 642.285156 337.03125 642.679688 336.9375 643.050781 336.75 C 644.296875 336.109375 644.789062 334.582031 644.148438 333.335938 C 639.191406 323.695312 631.675781 312.625 616.710938 313.015625 C 615.3125 313.046875 614.203125 314.207031 614.234375 315.609375 C 614.265625 317.007812 615.394531 318.140625 616.824219 318.082031 C 626.371094 317.867188 633.191406 323.121094 639.640625 335.652344 C 640.085938 336.527344 640.972656 337.03125 641.894531 337.03125 Z M 615.386719 396.222656 C 615.335938 394.824219 614.238281 393.722656 612.757812 393.789062 C 597.5 394.34375 592.265625 387.578125 592.015625 387.242188 C 591.207031 386.113281 589.640625 385.839844 588.5 386.644531 C 587.351562 387.449219 587.078125 389.027344 587.878906 390.175781 C 588.140625 390.542969 594.199219 398.894531 610.933594 398.894531 C 611.589844 398.894531 612.261719 398.878906 612.953125 398.851562 C 614.351562 398.796875 615.441406 397.617188 615.386719 396.222656 Z M 667.203125 365.296875 C 668.15625 366.292969 669.765625 366.316406 670.78125 365.382812 C 672.347656 363.9375 678.765625 360.980469 680.089844 362.085938 C 680.691406 364.644531 675.503906 369.8125 671.53125 372.5625 C 670.378906 373.359375 670.089844 374.9375 670.886719 376.089844 C 671.378906 376.800781 672.167969 377.183594 672.976562 377.183594 C 673.472656 377.183594 673.972656 377.039062 674.414062 376.734375 C 676.46875 375.3125 686.660156 367.878906 685.027344 360.925781 C 684.550781 358.910156 683.222656 357.496094 681.289062 356.945312 C 676.160156 355.492188 668.195312 360.800781 667.214844 361.78125 C 666.238281 362.757812 666.25 364.300781 667.203125 365.296875 Z M 580.082031 354.503906 C 578.789062 356.570312 578.425781 358.242188 578.992188 359.46875 C 579.765625 361.132812 582.152344 362.183594 584.042969 362.75 C 586.796875 354.652344 590.085938 346.511719 593.519531 338.769531 C 588.671875 343.601562 583.171875 349.5625 580.082031 354.503906 Z M 61.757812 585.378906 C 61.757812 589.246094 64.902344 592.394531 68.769531 592.394531 C 72.636719 592.394531 75.785156 589.25 75.785156 585.378906 C 75.785156 581.515625 72.636719 578.367188 68.769531 578.367188 C 64.902344 578.367188 61.757812 581.511719 61.757812 585.378906 Z M 68.769531 338.367188 C 72.636719 338.367188 75.785156 335.21875 75.785156 331.351562 C 75.785156 327.484375 72.636719 324.339844 68.769531 324.339844 C 64.902344 324.339844 61.757812 327.484375 61.757812 331.351562 C 61.757812 335.21875 64.902344 338.367188 68.769531 338.367188 Z M 113.625 338.367188 C 117.488281 338.367188 120.636719 335.21875 120.636719 331.351562 C 120.636719 327.484375 117.492188 324.339844 113.625 324.339844 C 109.757812 324.339844 106.609375 327.484375 106.609375 331.351562 C 106.609375 335.21875 109.757812 338.367188 113.625 338.367188 Z M 359.449219 94.644531 L 341.710938 94.644531 C 346.273438 102.917969 350.695312 114.71875 354.078125 124.882812 C 354.976562 112.683594 356.59375 101.066406 359.449219 94.644531 Z M 106.609375 585.378906 C 106.609375 589.246094 109.757812 592.394531 113.625 592.394531 C 117.488281 592.394531 120.636719 589.25 120.636719 585.378906 C 120.636719 581.515625 117.492188 578.367188 113.625 578.367188 C 109.757812 578.367188 106.609375 581.511719 106.609375 585.378906 Z M 390.425781 179.789062 C 394.804688 173.996094 399.730469 165.941406 402.085938 159.535156 C 402.101562 159.488281 402.117188 159.441406 402.136719 159.394531 C 403.527344 155.566406 403.984375 152.347656 402.828125 150.582031 C 402.496094 150.074219 402.144531 149.863281 401.5625 149.820312 C 397.617188 149.554688 389.484375 156.332031 383.859375 162.175781 C 383.835938 162.203125 383.816406 162.226562 383.792969 162.25 C 383.15625 162.910156 382.546875 163.5625 381.984375 164.191406 C 381.320312 164.933594 380.277344 165.210938 379.328125 164.914062 C 378.378906 164.613281 377.691406 163.78125 377.582031 162.789062 C 377.492188 162.023438 377.398438 161.257812 377.308594 160.488281 C 377.308594 160.464844 377.300781 160.453125 377.300781 160.433594 C 377.300781 160.429688 377.300781 160.421875 377.300781 160.417969 C 373.894531 131.824219 368.335938 100.355469 364.636719 94.972656 C 361.683594 98.976562 359.070312 120.300781 358.40625 139.109375 C 358.359375 140.347656 357.425781 141.375 356.191406 141.53125 C 354.953125 141.675781 353.792969 140.929688 353.445312 139.738281 C 345.683594 113.585938 335.902344 90.933594 331.742188 89.332031 C 328.761719 93.269531 330.546875 121.5 334.175781 146.125 C 334.34375 147.269531 333.71875 148.378906 332.65625 148.828125 C 331.59375 149.28125 330.359375 148.949219 329.65625 148.035156 C 329.546875 147.894531 318.808594 134.085938 310.578125 138.8125 C 309.074219 139.675781 308.195312 140.835938 307.816406 142.464844 C 306.613281 147.636719 310.984375 155.652344 312.769531 158.304688 C 313.410156 159.253906 313.332031 160.515625 312.585938 161.378906 C 311.835938 162.242188 310.601562 162.5 309.570312 162.007812 C 307.933594 161.226562 302.898438 159.492188 299.402344 160.828125 C 298.625 161.125 297.960938 161.558594 297.390625 162.140625 C 297.363281 162.171875 297.339844 162.210938 297.308594 162.242188 C 296.777344 162.8125 296.332031 163.503906 295.976562 164.347656 C 293.804688 169.523438 310.796875 193.8125 327.792969 213.347656 C 328.039062 213.632812 328.21875 213.96875 328.320312 214.332031 L 344.320312 271.890625 C 361.113281 264.179688 383.390625 253.886719 400.332031 245.867188 L 380.828125 195.144531 C 380.523438 194.351562 380.640625 193.453125 381.136719 192.761719 Z M 399.859375 448.230469 L 38.582031 448.230469 L 38.582031 353.625 L 360.261719 353.625 C 357.355469 346.332031 354.527344 339.261719 351.820312 332.472656 C 359.964844 352.921875 369.351562 376.140625 377.953125 398.734375 C 384.382812 415.640625 391.875 432.265625 399.859375 448.230469 Z M 71.492188 390.335938 L 298.605469 390.335938 L 298.605469 374.46875 L 71.492188 374.46875 Z M 350.175781 406.761719 L 71.492188 406.761719 L 71.492188 422.628906 L 350.175781 422.628906 Z M 294.589844 157.898438 L 143.351562 157.898438 L 143.351562 57.144531 L 673.300781 57.144531 L 673.300781 157.898438 L 407.835938 157.898438 C 408.769531 154.023438 408.785156 150.4375 407.066406 147.808594 C 405.867188 145.984375 404.09375 144.929688 401.9375 144.769531 C 395.722656 144.316406 387.070312 151.800781 381.976562 156.851562 C 377.300781 118.125 373.035156 101.648438 369.820312 94.644531 L 473.140625 94.644531 L 473.140625 78.777344 L 179.742188 78.777344 L 179.742188 94.644531 L 325.527344 94.644531 C 324.316406 106.585938 326.4375 126.558594 328.078125 139.101562 C 323.058594 134.738281 315.378906 130.210938 308.050781 134.417969 C 305.3125 135.988281 303.574219 138.3125 302.875 141.328125 C 301.785156 146.015625 303.597656 151.511719 305.460938 155.53125 C 303.027344 155.132812 300.207031 155.101562 297.613281 156.082031 C 296.472656 156.515625 295.488281 157.152344 294.589844 157.898438 Z M 562.472656 138.691406 C 562.472656 140.089844 563.605469 141.226562 565.003906 141.226562 L 646.234375 141.226562 C 647.632812 141.226562 648.765625 140.089844 648.765625 138.691406 L 648.765625 94.289062 C 648.765625 92.890625 647.632812 91.753906 646.234375 91.753906 C 644.835938 91.753906 643.699219 92.890625 643.699219 94.289062 L 643.699219 136.15625 L 565.003906 136.15625 C 563.605469 136.15625 562.472656 137.292969 562.472656 138.691406 Z M 516.011719 136.15625 L 459.929688 136.15625 C 458.527344 136.15625 457.394531 137.292969 457.394531 138.691406 C 457.394531 140.089844 458.527344 141.226562 459.929688 141.226562 L 516.011719 141.226562 C 517.410156 141.226562 518.546875 140.089844 518.546875 138.691406 C 518.546875 137.292969 517.410156 136.15625 516.011719 136.15625 Z M 512.804688 410.671875 C 520.378906 417.570312 528.386719 423.515625 536.550781 428.695312 L 536.550781 353.625 L 469.25 353.625 C 482.96875 376.386719 497.941406 397.148438 512.804688 410.671875 Z M 512.804688 410.671875 " fill-opacity="1" fill-rule="nonzero"/><path fill="#88028f" d="M 225.867188 3.003906 C 225.867188 4.402344 224.734375 5.535156 223.335938 5.535156 L 143.351562 5.535156 L 143.351562 57.144531 L 673.300781 57.144531 L 673.300781 28.140625 C 673.300781 26.742188 674.433594 25.609375 675.832031 25.609375 L 675.832031 2.988281 L 225.867188 2.988281 C 225.867188 2.996094 225.867188 2.996094 225.867188 3.003906 Z M 175.628906 46.136719 C 168.632812 46.136719 162.945312 40.445312 162.945312 33.453125 C 162.945312 26.457031 168.636719 20.765625 175.628906 20.765625 C 182.625 20.765625 188.316406 26.457031 188.316406 33.453125 C 188.316406 40.445312 182.628906 46.136719 175.628906 46.136719 Z M 236.023438 33.453125 C 236.023438 40.449219 230.332031 46.136719 223.335938 46.136719 C 216.34375 46.136719 210.648438 40.445312 210.648438 33.453125 C 210.648438 26.457031 216.34375 20.765625 223.335938 20.765625 C 230.332031 20.765625 236.023438 26.453125 236.023438 33.453125 Z M 348.386719 323.808594 C 348.300781 323.59375 348.214844 323.378906 348.132812 323.164062 C 347.28125 321.015625 346.453125 318.910156 345.644531 316.847656 C 345.484375 316.429688 345.316406 316.007812 345.15625 315.597656 C 344.753906 314.566406 344.355469 313.546875 343.964844 312.539062 C 343.726562 311.921875 343.492188 311.320312 343.257812 310.714844 C 342.65625 309.164062 342.074219 307.648438 341.507812 306.160156 C 341.277344 305.5625 341.054688 304.96875 340.832031 304.382812 C 340.621094 303.832031 340.398438 303.253906 340.195312 302.710938 L 116.160156 302.710938 C 116.160156 304.109375 115.023438 305.246094 113.625 305.246094 L 38.585938 305.246094 L 38.585938 353.625 L 360.265625 353.625 C 356.097656 343.179688 352.074219 333.136719 348.386719 323.808594 Z M 68.769531 343.433594 C 62.109375 343.433594 56.691406 338.011719 56.691406 331.351562 C 56.691406 324.691406 62.109375 319.273438 68.769531 319.273438 C 75.429688 319.273438 80.851562 324.691406 80.851562 331.351562 C 80.851562 338.011719 75.429688 343.433594 68.769531 343.433594 Z M 113.625 343.433594 C 106.964844 343.433594 101.542969 338.011719 101.542969 331.351562 C 101.542969 324.691406 106.964844 319.273438 113.625 319.273438 C 120.285156 319.273438 125.703125 324.691406 125.703125 331.351562 C 125.703125 338.011719 120.285156 343.433594 113.625 343.433594 Z M 441.792969 302.710938 L 539.085938 302.710938 L 539.085938 323.820312 C 537.6875 323.820312 536.550781 324.957031 536.550781 326.355469 L 536.550781 353.625 L 469.242188 353.625 C 469.101562 353.390625 468.96875 353.152344 468.828125 352.914062 C 466.546875 349.113281 464.292969 345.265625 462.089844 341.378906 C 461.882812 341.015625 461.679688 340.648438 461.472656 340.285156 C 459.3125 336.460938 457.191406 332.613281 455.113281 328.757812 C 454.832031 328.234375 454.558594 327.710938 454.277344 327.1875 C 452.261719 323.417969 450.289062 319.648438 448.371094 315.898438 C 448.144531 315.457031 447.929688 315.023438 447.703125 314.582031 C 445.671875 310.59375 443.691406 306.625 441.792969 302.710938 Z M 466.070312 556.75 L 437.40625 556.75 C 437.40625 558.152344 436.273438 559.285156 434.875 559.285156 L 38.582031 559.285156 L 38.582031 607.664062 L 491.035156 607.664062 L 489.460938 587.695312 C 489.460938 587.695312 479.984375 576.136719 466.070312 556.75 Z M 68.769531 597.460938 C 62.109375 597.460938 56.691406 592.039062 56.691406 585.378906 C 56.691406 578.71875 62.109375 573.296875 68.769531 573.296875 C 75.429688 573.296875 80.851562 578.71875 80.851562 585.378906 C 80.851562 592.042969 75.429688 597.460938 68.769531 597.460938 Z M 113.625 597.460938 C 106.964844 597.460938 101.542969 592.039062 101.542969 585.378906 C 101.542969 578.71875 106.964844 573.296875 113.625 573.296875 C 120.285156 573.296875 125.703125 578.71875 125.703125 585.378906 C 125.703125 592.042969 120.285156 597.460938 113.625 597.460938 Z M 994.488281 385.242188 L 994.488281 427.789062 L 833.988281 427.789062 C 833.988281 426.390625 832.851562 425.253906 831.453125 425.253906 L 786.785156 425.253906 L 786.785156 387.777344 L 968.140625 387.777344 C 969.539062 387.777344 970.671875 386.640625 970.671875 385.242188 Z M 994.488281 385.242188 " fill-opacity="1" fill-rule="nonzero"/><path fill="#000000" d="M 912.878906 659.269531 C 912.621094 659.472656 912.328125 659.628906 911.996094 659.722656 C 911.765625 659.78125 911.539062 659.8125 911.316406 659.8125 C 910.203125 659.8125 909.1875 659.078125 908.875 657.957031 L 907.664062 653.59375 C 897.390625 644.453125 881.953125 639.296875 874.722656 637.261719 C 883.605469 648.753906 888.871094 655.546875 889.011719 655.726562 C 889.871094 656.832031 889.667969 658.425781 888.5625 659.28125 C 888.101562 659.640625 887.554688 659.8125 887.011719 659.8125 C 886.253906 659.8125 885.503906 659.476562 885.007812 658.828125 C 884.777344 658.535156 870.828125 640.539062 849.691406 613.117188 C 848.980469 612.996094 848.324219 612.59375 847.929688 611.925781 C 847.339844 610.933594 846.863281 609.941406 846.480469 608.953125 C 833.082031 591.558594 817.105469 570.773438 800.035156 548.484375 C 754.261719 488.699219 739.316406 472.761719 667.296875 465.539062 C 665.9375 465.402344 664.953125 464.207031 665.039062 462.855469 C 659.171875 462.46875 653.082031 462.242188 646.6875 462.242188 C 646.6875 462.242188 627.632812 461.988281 601.667969 455.683594 L 601.609375 455.863281 C 601.261719 456.933594 600.269531 457.613281 599.199219 457.613281 C 598.941406 457.613281 598.675781 457.574219 598.414062 457.484375 C 597.132812 457.066406 596.4375 455.726562 596.773438 454.441406 C 579.714844 449.929688 560.164062 442.808594 541.226562 431.574219 C 540.785156 432.316406 540.007812 432.84375 539.078125 432.84375 C 537.679688 432.84375 536.546875 431.707031 536.546875 430.308594 L 536.546875 428.6875 C 528.378906 423.511719 520.375 417.566406 512.796875 410.667969 C 497.9375 397.140625 482.964844 376.378906 469.242188 353.621094 L 469.234375 353.621094 C 469.09375 353.386719 468.960938 353.144531 468.820312 352.910156 C 466.539062 349.109375 464.285156 345.257812 462.082031 341.375 C 461.875 341.007812 461.675781 340.644531 461.464844 340.277344 C 459.304688 336.453125 457.179688 332.609375 455.109375 328.753906 C 454.828125 328.226562 454.550781 327.707031 454.269531 327.183594 C 452.253906 323.410156 450.28125 319.644531 448.363281 315.894531 C 448.136719 315.453125 447.921875 315.019531 447.695312 314.578125 C 432.125 283.980469 419.992188 254.925781 414.390625 239.121094 C 411.632812 240.46875 408.414062 242.011719 404.914062 243.683594 L 405.09375 244.152344 C 405.59375 245.460938 404.941406 246.925781 403.636719 247.425781 C 402.328125 247.929688 400.863281 247.277344 400.359375 245.96875 L 400.320312 245.863281 C 383.378906 253.882812 361.101562 264.171875 344.308594 271.886719 L 344.328125 271.953125 C 344.703125 273.300781 343.910156 274.699219 342.5625 275.074219 C 342.339844 275.136719 342.105469 275.167969 341.882812 275.167969 C 341.015625 275.167969 340.214844 274.707031 339.753906 273.976562 C 336.800781 275.332031 334.058594 276.585938 331.644531 277.691406 C 333.308594 283.953125 336.570312 293.183594 340.824219 304.378906 C 341.046875 304.964844 341.269531 305.558594 341.5 306.15625 C 342.066406 307.640625 342.652344 309.160156 343.25 310.710938 C 343.484375 311.316406 343.714844 311.921875 343.957031 312.535156 C 344.351562 313.542969 344.746094 314.5625 345.148438 315.59375 C 345.3125 316.003906 345.476562 316.425781 345.636719 316.839844 C 346.445312 318.90625 347.273438 321.011719 348.125 323.160156 C 348.207031 323.371094 348.292969 323.589844 348.378906 323.804688 C 357.234375 346.210938 368.105469 372.878906 377.945312 398.730469 C 384.371094 415.636719 391.867188 432.257812 399.851562 448.226562 L 401.109375 448.226562 C 402.507812 448.226562 403.644531 449.359375 403.644531 450.761719 C 403.644531 451.746094 403.0625 452.578125 402.242188 452.996094 C 423.753906 495.136719 448.441406 532.207031 466.054688 556.742188 L 466.0625 556.742188 C 479.976562 576.128906 489.453125 587.6875 489.453125 587.6875 L 491.027344 607.65625 L 489.367188 607.65625 L 494.824219 804.769531 C 494.835938 805.160156 494.949219 805.511719 495.113281 805.832031 L 495.136719 808.351562 L 764.683594 808.351562 L 764.683594 777.386719 L 765.761719 708.769531 C 772.195312 717.992188 807.457031 764.515625 862.859375 762.730469 C 924.34375 760.730469 920.515625 695.421875 917.550781 670.636719 C 917.054688 666.417969 915.34375 662.644531 912.878906 659.269531 Z M 760.878906 697.347656 L 496.425781 679.289062 L 493.992188 591.449219 L 762.09375 620.144531 Z M 71.492188 632.816406 L 320.894531 632.816406 L 320.894531 648.683594 L 71.492188 648.683594 Z M 298.605469 390.335938 L 71.492188 390.335938 L 71.492188 374.46875 L 298.605469 374.46875 Z M 325.527344 94.644531 L 179.742188 94.644531 L 179.742188 78.777344 L 473.140625 78.777344 L 473.140625 94.644531 L 369.820312 94.644531 C 367.417969 89.40625 365.597656 89.449219 364.636719 89.484375 C 362.558594 89.550781 360.855469 91.476562 359.449219 94.644531 L 341.710938 94.644531 C 338.398438 88.632812 335.007812 84.46875 331.878906 84.203125 C 330.527344 84.09375 329.222656 84.597656 328.230469 85.652344 C 326.796875 87.175781 325.953125 90.410156 325.527344 94.644531 Z M 71.492188 406.761719 L 350.175781 406.761719 L 350.175781 422.628906 L 71.492188 422.628906 Z M 994.488281 460.671875 L 994.488281 479.410156 C 993.089844 479.410156 991.953125 480.542969 991.953125 481.945312 L 991.953125 500.683594 L 902.445312 500.683594 C 901.046875 500.683594 899.910156 501.816406 899.910156 503.21875 L 834.003906 503.21875 L 834.003906 460.671875 Z M 994.488281 460.671875 " fill-opacity="1" fill-rule="nonzero"/><g clip-path="url(#be2a991e01)"><path fill="#6b0780" d="M 915.78125 592.855469 C 910.558594 582.027344 887.742188 577.464844 880.5625 576.28125 C 879.363281 568.605469 874.820312 543.085938 866.597656 537.386719 C 864.882812 536.195312 862.992188 535.792969 861.136719 536.199219 C 851.761719 538.28125 853.941406 566.410156 856.914062 587.292969 C 853.910156 589.023438 848.015625 593.089844 846.0625 599.308594 C 846.003906 599.507812 845.964844 599.703125 845.910156 599.902344 C 833.515625 583.800781 819.222656 565.199219 804.058594 545.398438 C 762.777344 491.484375 745.257812 471.847656 688.28125 463.054688 L 698.332031 418.1875 C 721.75 418.902344 744.714844 390.253906 759.40625 368.207031 C 774.945312 344.890625 781.554688 328.367188 783.539062 307.871094 C 785.523438 287.375 772.960938 266.714844 761.890625 265.96875 C 750.8125 265.226562 750.15625 281.753906 750.15625 281.753906 C 750.15625 281.753906 742.304688 248.617188 728.335938 248.699219 C 714.371094 248.78125 717.097656 267.210938 717.097656 267.210938 C 717.097656 267.210938 700.734375 234.15625 688.339844 236.136719 C 675.941406 238.121094 678.09375 253.328125 678.09375 253.328125 C 678.09375 253.328125 663.214844 229.03125 651.480469 232.089844 C 639.746094 235.148438 643.050781 250.023438 643.050781 250.023438 C 643.050781 250.023438 630.820312 226.054688 621.730469 234.488281 C 613.046875 242.539062 602.320312 283.296875 617.167969 292.976562 C 616.078125 294.789062 607.96875 308.421875 599.273438 326.367188 C 596.515625 328.8125 581.996094 341.878906 575.78125 351.816406 C 573.519531 355.4375 573.054688 358.738281 574.402344 361.621094 C 576.011719 365.058594 579.777344 366.769531 582.460938 367.582031 C 577.042969 384.878906 574.492188 401.460938 578.878906 412.601562 C 583.859375 425.242188 593.113281 432.125 602.832031 435.808594 L 596.792969 454.296875 C 596.777344 454.347656 596.789062 454.394531 596.777344 454.445312 C 596.441406 455.730469 597.136719 457.074219 598.414062 457.492188 C 598.675781 457.578125 598.941406 457.617188 599.203125 457.617188 C 600.269531 457.617188 601.265625 456.9375 601.613281 455.871094 L 601.671875 455.6875 L 607.644531 437.402344 C 614.375 439.257812 621.035156 439.785156 626.367188 439.785156 C 633 439.785156 637.582031 438.984375 637.726562 438.957031 C 639.101562 438.703125 640.011719 437.382812 639.761719 436.007812 C 639.507812 434.632812 638.1875 433.722656 636.808594 433.972656 C 635.128906 434.277344 595.5625 441.121094 583.59375 410.742188 C 577.472656 395.210938 586.746094 366.769531 597.660156 342.023438 C 598.050781 342.65625 598.554688 343.425781 599.171875 344.28125 C 600.621094 346.292969 603.078125 349.253906 606.570312 351.953125 C 609.191406 353.964844 612.046875 355.503906 615.070312 356.53125 C 618.3125 357.613281 621.511719 358.015625 624.476562 358.015625 C 632.789062 358.015625 639.25 354.855469 639.617188 354.675781 C 640.863281 354.050781 641.371094 352.539062 640.757812 351.289062 C 640.515625 350.792969 634.660156 339.125 622.324219 334.976562 C 620.5625 334.382812 618.75 333.96875 616.964844 333.75 C 610.5625 332.902344 604.777344 334.25 601.054688 335.523438 C 600.855469 335.589844 600.703125 335.648438 600.519531 335.714844 C 610.746094 313.609375 621.355469 295.847656 621.585938 295.460938 C 621.714844 295.246094 621.773438 295.011719 621.832031 294.78125 C 627.597656 296.375 642.042969 301.035156 645.199219 308.535156 C 649.164062 317.953125 645.199219 330.351562 645.199219 330.351562 L 654.125 339.113281 L 640.40625 365.722656 L 653.132812 371.839844 C 653.132812 371.839844 657.429688 366.59375 662.945312 361.1875 C 667.773438 357.429688 678.507812 350.429688 684.554688 352.222656 C 686.457031 352.789062 687.769531 354.3125 688.5625 356.882812 C 693.242188 372.09375 673.078125 386.503906 672.875 386.644531 C 672.378906 386.996094 672.023438 387.515625 671.871094 388.105469 C 671.765625 388.527344 669.347656 398.570312 675.082031 407.566406 C 678.714844 413.261719 684.703125 417.175781 692.914062 419.21875 L 683.25 462.332031 C 678.382812 461.660156 673.269531 461.046875 667.808594 460.5 C 666.390625 460.375 665.171875 461.375 665.03125 462.769531 C 665.03125 462.804688 665.042969 462.832031 665.042969 462.863281 C 664.960938 464.214844 665.941406 465.410156 667.300781 465.546875 C 739.320312 472.773438 754.261719 488.707031 800.039062 548.492188 C 817.105469 570.78125 833.085938 591.566406 846.484375 608.960938 C 846.867188 609.949219 847.34375 610.941406 847.933594 611.933594 C 848.328125 612.601562 848.984375 613.003906 849.691406 613.125 C 870.828125 640.546875 884.777344 658.542969 885.007812 658.835938 C 885.507812 659.484375 886.253906 659.820312 887.011719 659.820312 C 887.554688 659.820312 888.101562 659.648438 888.566406 659.289062 C 889.671875 658.433594 889.871094 656.839844 889.011719 655.734375 C 888.875 655.554688 883.605469 648.761719 874.726562 637.269531 C 868.460938 629.160156 860.40625 618.722656 851.050781 606.578125 C 850.398438 604.605469 850.320312 602.710938 850.898438 600.855469 C 852.027344 597.222656 855.261719 594.449219 857.730469 592.777344 C 858.242188 596.023438 858.742188 598.988281 859.191406 601.496094 C 859.4375 602.875 860.75 603.800781 862.132812 603.546875 C 863.507812 603.300781 864.425781 601.984375 864.183594 600.605469 C 863.464844 596.582031 862.828125 592.589844 862.269531 588.691406 C 862.269531 588.554688 862.234375 588.425781 862.210938 588.289062 C 858.652344 563.160156 858.480469 541.996094 862.234375 541.164062 C 862.550781 541.089844 863.003906 541.074219 863.714844 541.566406 C 869.242188 545.398438 874.074219 566.480469 875.820312 578.871094 C 875.980469 579.988281 876.859375 580.871094 877.980469 581.027344 C 885.875 582.136719 907.238281 586.824219 911.222656 595.074219 C 915.136719 603.191406 905.058594 619.699219 900.847656 625.371094 C 900.378906 625.996094 900.230469 626.804688 900.4375 627.558594 L 907.664062 653.605469 L 908.878906 657.972656 C 909.1875 659.089844 910.207031 659.824219 911.316406 659.824219 C 911.539062 659.824219 911.769531 659.796875 911.996094 659.734375 C 912.328125 659.640625 912.625 659.488281 912.882812 659.285156 C 913.660156 658.671875 914.042969 657.628906 913.761719 656.613281 L 905.648438 627.375 C 909.113281 622.476562 921.207031 604.105469 915.78125 592.855469 Z M 584.042969 362.746094 C 582.15625 362.183594 579.769531 361.132812 578.992188 359.464844 C 578.421875 358.238281 578.789062 356.570312 580.082031 354.5 C 583.171875 349.558594 588.667969 343.597656 593.519531 338.765625 C 590.085938 346.507812 586.796875 354.652344 584.042969 362.746094 Z M 617.949219 344.226562 C 618.53125 342.5 618.53125 340.710938 618.058594 339.082031 C 618.949219 339.265625 619.835938 339.484375 620.707031 339.78125 C 627.90625 342.199219 632.59375 347.910156 634.777344 351.160156 C 631.070312 352.421875 623.882812 354.132812 616.6875 351.730469 C 615.175781 351.214844 613.710938 350.519531 612.304688 349.695312 C 614.867188 348.902344 617.03125 346.964844 617.949219 344.226562 Z M 615.386719 396.222656 C 615.441406 397.621094 614.351562 398.800781 612.953125 398.851562 C 612.269531 398.878906 611.59375 398.894531 610.9375 398.894531 C 594.199219 398.894531 588.140625 390.542969 587.882812 390.175781 C 587.078125 389.027344 587.355469 387.449219 588.5 386.644531 C 589.640625 385.84375 591.207031 386.113281 592.019531 387.242188 C 592.269531 387.578125 597.5 394.34375 612.761719 393.789062 C 614.238281 393.722656 615.335938 394.824219 615.386719 396.222656 Z M 680.089844 362.085938 C 678.765625 360.980469 672.347656 363.9375 670.78125 365.382812 C 669.765625 366.320312 668.160156 366.292969 667.203125 365.296875 C 666.25 364.300781 666.238281 362.757812 667.210938 361.78125 C 668.191406 360.800781 676.152344 355.496094 681.285156 356.945312 C 683.21875 357.496094 684.546875 358.910156 685.019531 360.925781 C 686.65625 367.878906 676.46875 375.3125 674.40625 376.734375 C 673.96875 377.039062 673.464844 377.183594 672.96875 377.183594 C 672.167969 377.183594 671.375 376.800781 670.882812 376.089844 C 670.089844 374.9375 670.375 373.359375 671.527344 372.5625 C 675.503906 369.8125 680.691406 364.644531 680.089844 362.085938 Z M 562.472656 138.691406 C 562.472656 137.292969 563.605469 136.15625 565.003906 136.15625 L 643.699219 136.15625 L 643.699219 94.289062 C 643.699219 92.890625 644.835938 91.753906 646.234375 91.753906 C 647.632812 91.753906 648.765625 92.890625 648.765625 94.289062 L 648.765625 138.691406 C 648.765625 140.089844 647.632812 141.226562 646.234375 141.226562 L 565.003906 141.226562 C 563.605469 141.226562 562.472656 140.089844 562.472656 138.691406 Z M 457.390625 138.691406 C 457.390625 137.292969 458.527344 136.15625 459.925781 136.15625 L 516.007812 136.15625 C 517.410156 136.15625 518.542969 137.292969 518.542969 138.691406 C 518.542969 140.089844 517.410156 141.226562 516.007812 141.226562 L 459.925781 141.226562 C 458.527344 141.226562 457.390625 140.089844 457.390625 138.691406 Z M 162.941406 33.453125 C 162.941406 40.449219 168.632812 46.136719 175.628906 46.136719 C 182.621094 46.136719 188.316406 40.445312 188.316406 33.453125 C 188.316406 26.457031 182.621094 20.765625 175.628906 20.765625 C 168.632812 20.765625 162.941406 26.453125 162.941406 33.453125 Z M 183.25 33.453125 C 183.25 37.652344 179.828125 41.070312 175.628906 41.070312 C 171.429688 41.070312 168.011719 37.652344 168.011719 33.453125 C 168.011719 29.253906 171.429688 25.832031 175.628906 25.832031 C 179.828125 25.832031 183.25 29.25 183.25 33.453125 Z M 210.648438 33.453125 C 210.648438 40.449219 216.339844 46.136719 223.335938 46.136719 C 230.328125 46.136719 236.019531 40.445312 236.019531 33.453125 C 236.019531 26.457031 230.328125 20.765625 223.335938 20.765625 C 216.339844 20.765625 210.648438 26.453125 210.648438 33.453125 Z M 230.953125 33.453125 C 230.953125 37.652344 227.535156 41.070312 223.335938 41.070312 C 219.136719 41.070312 215.71875 37.652344 215.71875 33.453125 C 215.71875 29.253906 219.136719 25.832031 223.335938 25.832031 C 227.535156 25.832031 230.953125 29.25 230.953125 33.453125 Z M 541.617188 326.355469 L 541.617188 430.3125 C 541.617188 430.785156 541.457031 431.199219 541.230469 431.578125 C 540.789062 432.324219 540.011719 432.847656 539.085938 432.847656 C 537.6875 432.847656 536.550781 431.710938 536.550781 430.3125 L 536.550781 326.355469 C 536.550781 324.957031 537.6875 323.820312 539.085938 323.820312 C 540.484375 323.820312 541.617188 324.957031 541.617188 326.355469 Z M 33.515625 450.765625 L 33.515625 302.710938 C 33.515625 301.3125 34.648438 300.175781 36.046875 300.175781 L 113.625 300.175781 C 115.023438 300.175781 116.15625 301.3125 116.15625 302.710938 C 116.15625 304.109375 115.023438 305.246094 113.625 305.246094 L 38.582031 305.246094 L 38.582031 448.230469 L 401.117188 448.230469 C 402.515625 448.230469 403.652344 449.367188 403.652344 450.765625 C 403.652344 451.75 403.070312 452.582031 402.25 453 C 401.90625 453.175781 401.53125 453.300781 401.117188 453.300781 L 36.046875 453.300781 C 34.648438 453.300781 33.515625 452.164062 33.515625 450.765625 Z M 56.691406 331.351562 C 56.691406 338.011719 62.109375 343.433594 68.769531 343.433594 C 75.429688 343.433594 80.851562 338.011719 80.851562 331.351562 C 80.851562 324.691406 75.433594 319.273438 68.769531 319.273438 C 62.109375 319.273438 56.691406 324.691406 56.691406 331.351562 Z M 75.78125 331.351562 C 75.78125 335.21875 72.636719 338.367188 68.769531 338.367188 C 64.902344 338.367188 61.757812 335.21875 61.757812 331.351562 C 61.757812 327.484375 64.902344 324.339844 68.769531 324.339844 C 72.636719 324.339844 75.78125 327.484375 75.78125 331.351562 Z M 101.542969 331.351562 C 101.542969 338.011719 106.964844 343.433594 113.625 343.433594 C 120.285156 343.433594 125.703125 338.011719 125.703125 331.351562 C 125.703125 324.691406 120.285156 319.273438 113.625 319.273438 C 106.960938 319.273438 101.542969 324.691406 101.542969 331.351562 Z M 120.636719 331.351562 C 120.636719 335.21875 117.492188 338.367188 113.625 338.367188 C 109.757812 338.367188 106.609375 335.21875 106.609375 331.351562 C 106.609375 327.484375 109.757812 324.339844 113.625 324.339844 C 117.492188 324.339844 120.636719 327.484375 120.636719 331.351562 Z M 462.460938 704.804688 C 462.460938 706.207031 461.324219 707.339844 459.925781 707.339844 L 36.046875 707.339844 C 34.648438 707.339844 33.515625 706.207031 33.515625 704.804688 L 33.515625 556.75 C 33.515625 555.347656 34.648438 554.214844 36.046875 554.214844 L 434.875 554.214844 C 436.273438 554.214844 437.40625 555.347656 437.40625 556.75 C 437.40625 558.152344 436.273438 559.285156 434.875 559.285156 L 38.582031 559.285156 L 38.582031 702.269531 L 459.925781 702.269531 C 461.328125 702.269531 462.460938 703.402344 462.460938 704.804688 Z M 96.804688 681.796875 L 149.539062 681.796875 C 150.9375 681.796875 152.070312 682.929688 152.070312 684.332031 C 152.070312 685.734375 150.9375 686.867188 149.539062 686.867188 L 96.804688 686.867188 C 95.40625 686.867188 94.269531 685.734375 94.269531 684.332031 C 94.269531 682.929688 95.40625 681.796875 96.804688 681.796875 Z M 56.691406 585.378906 C 56.691406 592.042969 62.109375 597.464844 68.769531 597.464844 C 75.429688 597.464844 80.851562 592.042969 80.851562 585.378906 C 80.851562 578.71875 75.433594 573.300781 68.769531 573.300781 C 62.109375 573.300781 56.691406 578.71875 56.691406 585.378906 Z M 75.78125 585.378906 C 75.78125 589.246094 72.636719 592.394531 68.769531 592.394531 C 64.902344 592.394531 61.757812 589.25 61.757812 585.378906 C 61.757812 581.515625 64.902344 578.367188 68.769531 578.367188 C 72.636719 578.367188 75.78125 581.511719 75.78125 585.378906 Z M 125.703125 585.378906 C 125.703125 578.71875 120.285156 573.300781 113.625 573.300781 C 106.960938 573.300781 101.542969 578.71875 101.542969 585.378906 C 101.542969 592.042969 106.964844 597.464844 113.625 597.464844 C 120.285156 597.464844 125.703125 592.042969 125.703125 585.378906 Z M 106.609375 585.378906 C 106.609375 581.515625 109.757812 578.367188 113.625 578.367188 C 117.488281 578.367188 120.636719 581.511719 120.636719 585.378906 C 120.636719 589.246094 117.492188 592.394531 113.625 592.394531 C 109.757812 592.394531 106.609375 589.246094 106.609375 585.378906 Z M 98.683594 79.183594 L 138.28125 79.183594 L 138.28125 3.003906 C 138.28125 1.601562 139.417969 0.46875 140.816406 0.46875 L 223.335938 0.46875 C 224.730469 0.46875 225.859375 1.59375 225.867188 2.988281 C 225.867188 2.996094 225.867188 2.996094 225.867188 3.003906 C 225.867188 4.402344 224.734375 5.535156 223.335938 5.535156 L 143.351562 5.535156 L 143.351562 157.898438 L 294.589844 157.898438 C 295.488281 157.152344 296.472656 156.511719 297.613281 156.082031 C 300.207031 155.101562 303.027344 155.132812 305.460938 155.53125 C 303.597656 151.511719 301.785156 146.015625 302.875 141.328125 C 303.574219 138.3125 305.3125 135.988281 308.050781 134.417969 C 315.382812 130.210938 323.058594 134.738281 328.078125 139.101562 C 326.4375 126.558594 324.316406 106.589844 325.523438 94.644531 C 325.953125 90.410156 326.796875 87.175781 328.230469 85.652344 C 329.222656 84.597656 330.527344 84.09375 331.878906 84.203125 C 335.007812 84.46875 338.398438 88.632812 341.710938 94.644531 C 346.273438 102.917969 350.695312 114.71875 354.078125 124.882812 C 354.976562 112.683594 356.59375 101.066406 359.449219 94.644531 C 360.855469 91.476562 362.558594 89.550781 364.636719 89.484375 C 365.597656 89.449219 367.417969 89.40625 369.820312 94.644531 C 373.035156 101.648438 377.300781 118.121094 381.976562 156.851562 C 387.070312 151.800781 395.722656 144.316406 401.9375 144.769531 C 404.097656 144.929688 405.871094 145.984375 407.066406 147.808594 C 408.785156 150.4375 408.765625 154.023438 407.835938 157.898438 L 673.300781 157.898438 L 673.300781 28.140625 C 673.300781 26.742188 674.433594 25.609375 675.832031 25.609375 C 675.832031 25.609375 675.835938 25.609375 675.835938 25.609375 C 677.234375 25.609375 678.371094 26.742188 678.371094 28.140625 L 678.371094 160.433594 C 678.371094 161.832031 677.234375 162.96875 675.835938 162.96875 L 406.191406 162.96875 C 402.742188 171.5625 396.414062 180.277344 394.507812 182.796875 L 386.046875 194.605469 L 404.921875 243.6875 L 405.101562 244.15625 C 405.601562 245.464844 404.949219 246.929688 403.644531 247.433594 C 402.335938 247.933594 400.871094 247.28125 400.367188 245.972656 L 400.328125 245.867188 L 380.828125 195.144531 C 380.519531 194.351562 380.636719 193.453125 381.132812 192.761719 L 390.429688 179.789062 C 394.804688 173.996094 399.734375 165.941406 402.085938 159.535156 C 402.105469 159.488281 402.121094 159.441406 402.140625 159.394531 C 403.527344 155.566406 403.988281 152.347656 402.832031 150.582031 C 402.5 150.074219 402.144531 149.863281 401.566406 149.820312 C 397.621094 149.554688 389.488281 156.332031 383.863281 162.175781 C 383.839844 162.203125 383.820312 162.226562 383.792969 162.25 C 383.160156 162.910156 382.546875 163.5625 381.988281 164.191406 C 381.320312 164.933594 380.28125 165.210938 379.332031 164.914062 C 378.382812 164.613281 377.695312 163.78125 377.582031 162.789062 C 377.492188 162.023438 377.402344 161.257812 377.3125 160.488281 C 377.3125 160.464844 377.300781 160.453125 377.300781 160.433594 C 377.300781 160.429688 377.304688 160.421875 377.304688 160.417969 C 373.894531 131.824219 368.339844 100.355469 364.640625 94.972656 C 361.683594 98.976562 359.074219 120.300781 358.40625 139.109375 C 358.363281 140.347656 357.425781 141.375 356.191406 141.53125 C 354.957031 141.675781 353.796875 140.929688 353.445312 139.738281 C 345.6875 113.585938 335.902344 90.933594 331.746094 89.332031 C 328.765625 93.269531 330.546875 121.5 334.175781 146.125 C 334.34375 147.269531 333.722656 148.378906 332.65625 148.828125 C 331.597656 149.28125 330.359375 148.949219 329.660156 148.035156 C 329.550781 147.894531 318.8125 134.085938 310.582031 138.8125 C 309.074219 139.675781 308.199219 140.835938 307.816406 142.464844 C 306.613281 147.636719 310.984375 155.652344 312.773438 158.304688 C 313.410156 159.253906 313.335938 160.515625 312.585938 161.378906 C 311.839844 162.242188 310.601562 162.5 309.574219 162.007812 C 307.933594 161.226562 302.902344 159.492188 299.40625 160.828125 C 298.628906 161.125 297.960938 161.558594 297.394531 162.140625 C 297.363281 162.171875 297.34375 162.210938 297.3125 162.242188 C 296.78125 162.8125 296.335938 163.503906 295.980469 164.347656 C 293.804688 169.523438 310.800781 193.8125 327.792969 213.347656 C 328.042969 213.632812 328.222656 213.96875 328.324219 214.332031 L 344.324219 271.890625 L 344.339844 271.960938 C 344.714844 273.308594 343.925781 274.703125 342.578125 275.078125 C 342.351562 275.140625 342.121094 275.171875 341.898438 275.171875 C 341.027344 275.171875 340.230469 274.714844 339.769531 273.980469 C 339.640625 273.777344 339.523438 273.5625 339.457031 273.316406 L 324.625 219.957031 C 324.421875 220.011719 324.226562 220.082031 324.011719 220.082031 L 214.808594 220.082031 C 213.410156 220.082031 212.273438 218.945312 212.273438 217.546875 C 212.273438 216.148438 213.410156 215.011719 214.808594 215.011719 L 322.523438 215.011719 C 318.230469 210.015625 311.144531 201.503906 304.757812 192.609375 C 304.5625 192.65625 304.378906 192.730469 304.167969 192.730469 L 271.664062 192.730469 C 270.265625 192.730469 269.128906 191.59375 269.128906 190.195312 C 269.128906 188.796875 270.265625 187.660156 271.664062 187.660156 L 301.308594 187.660156 C 294.628906 177.726562 289.632812 168.066406 291.121094 162.96875 L 140.816406 162.96875 C 139.417969 162.96875 138.28125 161.832031 138.28125 160.433594 L 138.28125 84.253906 L 98.683594 84.253906 C 97.285156 84.253906 96.148438 83.117188 96.148438 81.71875 C 96.148438 80.320312 97.285156 79.183594 98.683594 79.183594 Z M 40.21875 160.433594 C 40.21875 159.035156 41.351562 157.898438 42.75 157.898438 L 113.625 157.898438 C 115.023438 157.898438 116.160156 159.035156 116.160156 160.433594 C 116.160156 161.832031 115.023438 162.96875 113.625 162.96875 L 42.75 162.96875 C 41.351562 162.96875 40.21875 161.832031 40.21875 160.433594 Z M 44.183594 3.003906 C 44.183594 1.601562 45.320312 0.46875 46.71875 0.46875 L 115.363281 0.46875 C 116.761719 0.46875 117.894531 1.601562 117.894531 3.003906 C 117.894531 4.402344 116.761719 5.535156 115.363281 5.535156 L 46.71875 5.535156 C 45.320312 5.535156 44.183594 4.402344 44.183594 3.003906 Z M 20.824219 3.003906 C 20.824219 4.402344 19.6875 5.535156 18.289062 5.535156 L 2.535156 5.535156 C 1.136719 5.535156 0 4.402344 0 3.003906 C 0 1.601562 1.136719 0.46875 2.535156 0.46875 L 18.289062 0.46875 C 19.6875 0.46875 20.824219 1.601562 20.824219 3.003906 Z M 190.234375 215.011719 C 191.636719 215.011719 192.769531 216.148438 192.769531 217.546875 C 192.769531 218.945312 191.636719 220.082031 190.234375 220.082031 L 163.074219 220.082031 C 161.675781 220.082031 160.542969 218.945312 160.542969 217.546875 C 160.542969 216.148438 161.675781 215.011719 163.074219 215.011719 Z M 997.023438 481.945312 L 997.023438 503.21875 C 997.023438 504.621094 995.886719 505.753906 994.488281 505.753906 L 902.445312 505.753906 C 901.046875 505.753906 899.910156 504.621094 899.910156 503.21875 C 899.910156 501.816406 901.046875 500.683594 902.445312 500.683594 L 991.953125 500.683594 L 991.953125 481.945312 C 991.953125 480.542969 993.089844 479.410156 994.488281 479.410156 C 995.886719 479.410156 997.023438 480.546875 997.023438 481.945312 Z M 784.253906 382.707031 L 968.140625 382.707031 C 969.539062 382.707031 970.671875 383.84375 970.671875 385.242188 C 970.671875 386.640625 969.539062 387.777344 968.140625 387.777344 L 786.785156 387.777344 L 786.785156 425.253906 L 831.453125 425.253906 C 832.851562 425.253906 833.988281 426.390625 833.988281 427.789062 C 833.988281 429.1875 832.851562 430.324219 831.453125 430.324219 L 784.253906 430.324219 C 782.851562 430.324219 781.71875 429.1875 781.71875 427.789062 L 781.71875 385.242188 C 781.71875 383.84375 782.851562 382.707031 784.253906 382.707031 Z M 643.050781 336.75 C 642.683594 336.9375 642.285156 337.03125 641.894531 337.03125 C 640.972656 337.03125 640.085938 336.527344 639.640625 335.65625 C 633.195312 323.125 626.371094 317.867188 616.824219 318.085938 C 615.394531 318.140625 614.265625 317.011719 614.234375 315.609375 C 614.203125 314.210938 615.308594 313.050781 616.710938 313.019531 C 631.675781 312.628906 639.191406 323.699219 644.148438 333.335938 C 644.785156 334.582031 644.296875 336.109375 643.050781 336.75 Z M 643.050781 336.75 " fill-opacity="1" fill-rule="nonzero"/></g></svg>