<svg xmlns="http://www.w3.org/2000/svg" xmlns:xlink="http://www.w3.org/1999/xlink" width="493" zoomAndPan="magnify" viewBox="0 0 369.75 299.999988" height="400" preserveAspectRatio="xMidYMid meet" version="1.0"><defs><clipPath id="cef176f9fe"><path d="M 0 0.101562 L 369.5 0.101562 L 369.5 299.898438 L 0 299.898438 Z M 0 0.101562 " clip-rule="nonzero"/></clipPath><clipPath id="5829780252"><path d="M 0.0195312 0.101562 L 369.5 0.101562 L 369.5 299.898438 L 0.0195312 299.898438 Z M 0.0195312 0.101562 " clip-rule="nonzero"/></clipPath><clipPath id="9181744e9f"><path d="M 26 29 L 369 29 L 369 299.898438 L 26 299.898438 Z M 26 29 " clip-rule="nonzero"/></clipPath><clipPath id="ca53ecf0ef"><path d="M 0.0195312 0.101562 L 369.5 0.101562 L 369.5 263 L 0.0195312 263 Z M 0.0195312 0.101562 " clip-rule="nonzero"/></clipPath></defs><g clip-path="url(#cef176f9fe)"><path fill="#ffffff" d="M 0 0.101562 L 369.5 0.101562 L 369.5 299.898438 L 0 299.898438 Z M 0 0.101562 " fill-opacity="1" fill-rule="nonzero"/><path fill="#ffffff" d="M 0 0.101562 L 369.5 0.101562 L 369.5 299.898438 L 0 299.898438 Z M 0 0.101562 " fill-opacity="1" fill-rule="nonzero"/></g><g clip-path="url(#5829780252)"><path fill="#ffffff" d="M 338.300781 244.332031 C 338.589844 244.105469 338.730469 243.71875 338.625 243.34375 L 335.621094 232.507812 C 336.90625 230.695312 341.386719 223.890625 339.378906 219.722656 C 337.441406 215.710938 328.984375 214.019531 326.324219 213.578125 C 325.878906 210.734375 324.199219 201.277344 321.152344 199.167969 C 320.515625 198.726562 319.8125 198.574219 319.125 198.726562 C 315.652344 199.5 316.460938 209.921875 317.5625 217.660156 C 316.449219 218.300781 314.265625 219.808594 313.542969 222.113281 C 313.519531 222.1875 313.503906 222.257812 313.484375 222.332031 C 308.890625 216.367188 303.59375 209.472656 297.976562 202.136719 C 282.679688 182.15625 276.1875 174.878906 255.074219 171.621094 L 258.796875 154.996094 C 267.476562 155.261719 275.984375 144.644531 281.429688 136.476562 C 287.1875 127.835938 289.636719 121.710938 290.371094 114.117188 C 291.109375 106.519531 286.453125 98.867188 282.347656 98.589844 C 278.246094 98.3125 278 104.4375 278 104.4375 C 278 104.4375 275.089844 92.15625 269.917969 92.1875 C 264.742188 92.21875 265.75 99.046875 265.75 99.046875 C 265.75 99.046875 259.6875 86.800781 255.09375 87.535156 C 250.5 88.269531 251.296875 93.902344 251.296875 93.902344 C 251.296875 93.902344 245.785156 84.902344 241.4375 86.035156 C 237.089844 87.167969 238.3125 92.679688 238.3125 92.679688 C 238.3125 92.679688 233.78125 83.796875 230.410156 86.921875 C 227.195312 89.90625 223.21875 105.007812 228.71875 108.597656 C 228.316406 109.269531 225.3125 114.320312 222.089844 120.96875 C 221.066406 121.875 215.6875 126.71875 213.382812 130.402344 C 212.546875 131.742188 212.375 132.964844 212.875 134.035156 C 213.46875 135.308594 214.863281 135.941406 215.859375 136.242188 C 213.851562 142.652344 212.90625 148.796875 214.53125 152.925781 C 216.378906 157.609375 219.808594 160.160156 223.40625 161.527344 L 221.171875 168.375 C 221.164062 168.394531 221.167969 168.414062 221.164062 168.429688 C 214.84375 166.757812 207.597656 164.121094 200.582031 159.957031 C 200.664062 159.816406 200.722656 159.664062 200.722656 159.488281 L 200.722656 120.964844 C 200.722656 120.449219 200.304688 120.027344 199.785156 120.027344 L 199.785156 112.203125 L 163.730469 112.203125 C 164.4375 113.652344 165.167969 115.125 165.921875 116.605469 C 160.152344 105.265625 155.65625 94.5 153.578125 88.640625 C 152.558594 89.140625 151.363281 89.714844 150.066406 90.332031 L 143.074219 72.144531 L 146.210938 67.769531 C 146.914062 66.835938 149.257812 63.605469 150.539062 60.421875 L 250.460938 60.421875 C 250.980469 60.421875 251.398438 60 251.398438 59.480469 L 251.398438 10.457031 C 251.398438 9.941406 250.980469 9.519531 250.460938 9.519531 L 250.460938 1.136719 L 83.71875 1.136719 C 83.714844 0.621094 83.296875 0.203125 82.78125 0.203125 L 52.203125 0.203125 C 51.683594 0.203125 51.261719 0.625 51.261719 1.140625 L 51.261719 29.371094 L 36.589844 29.371094 C 36.070312 29.371094 35.648438 29.792969 35.648438 30.3125 C 35.648438 30.832031 36.070312 31.25 36.589844 31.25 L 51.261719 31.25 L 51.261719 59.480469 C 51.261719 60 51.683594 60.421875 52.203125 60.421875 L 107.898438 60.421875 C 107.347656 62.308594 109.199219 65.890625 111.675781 69.570312 L 100.691406 69.570312 C 100.171875 69.570312 99.75 69.992188 99.75 70.507812 C 99.75 71.027344 100.171875 71.449219 100.691406 71.449219 L 112.734375 71.449219 C 112.8125 71.449219 112.882812 71.421875 112.953125 71.40625 C 115.320312 74.699219 117.945312 77.855469 119.539062 79.707031 L 79.621094 79.707031 C 79.101562 79.707031 78.679688 80.125 78.679688 80.644531 C 78.679688 81.164062 79.101562 81.585938 79.621094 81.585938 L 120.082031 81.585938 C 120.164062 81.585938 120.238281 81.558594 120.3125 81.539062 L 125.808594 101.3125 C 125.832031 101.402344 125.875 101.480469 125.921875 101.558594 C 124.828125 102.058594 123.8125 102.523438 122.917969 102.933594 C 123.535156 105.253906 124.742188 108.675781 126.320312 112.824219 C 126.242188 112.621094 126.15625 112.40625 126.082031 112.203125 L 43.0625 112.203125 C 43.0625 111.683594 42.644531 111.265625 42.125 111.265625 L 13.378906 111.265625 C 12.859375 111.265625 12.4375 111.683594 12.4375 112.203125 L 12.4375 167.066406 C 12.4375 167.585938 12.859375 168.007812 13.378906 168.007812 L 148.660156 168.007812 C 148.8125 168.007812 148.953125 167.960938 149.078125 167.894531 C 157.050781 183.511719 166.199219 197.25 172.726562 206.339844 L 162.109375 206.339844 C 162.109375 205.820312 161.6875 205.402344 161.167969 205.402344 L 13.378906 205.402344 C 12.859375 205.402344 12.4375 205.820312 12.4375 206.339844 L 12.4375 261.207031 C 12.4375 261.722656 12.859375 262.144531 13.378906 262.144531 L 182.386719 262.144531 L 183.386719 298.25 C 183.390625 298.394531 183.433594 298.527344 183.492188 298.644531 L 183.503906 299.578125 L 283.386719 299.578125 L 283.386719 288.105469 L 283.785156 262.675781 C 286.171875 266.09375 299.238281 283.332031 319.769531 282.671875 C 342.550781 281.933594 341.132812 257.730469 340.035156 248.546875 C 339.847656 246.980469 339.214844 245.582031 338.300781 244.332031 Z M 130.65625 123.886719 C 131.179688 125.199219 131.714844 126.539062 132.257812 127.902344 C 131.621094 126.308594 131 124.75 130.394531 123.230469 C 130.480469 123.445312 130.566406 123.671875 130.65625 123.886719 Z M 129.117188 120.023438 C 129.527344 121.058594 129.949219 122.117188 130.378906 123.199219 C 129.949219 122.121094 129.527344 121.054688 129.117188 120.023438 Z M 130.824219 124.308594 C 131.09375 124.992188 131.367188 125.671875 131.644531 126.367188 C 131.367188 125.671875 131.09375 124.988281 130.824219 124.308594 Z M 132.867188 129.425781 C 133 129.757812 133.132812 130.089844 133.265625 130.425781 C 133.132812 130.09375 132.996094 129.757812 132.867188 129.425781 Z M 134.195312 132.757812 C 134.367188 133.1875 134.539062 133.617188 134.710938 134.050781 C 134.539062 133.621094 134.367188 133.1875 134.195312 132.757812 Z M 135.542969 136.15625 C 135.722656 136.609375 135.902344 137.0625 136.082031 137.515625 C 135.902344 137.0625 135.722656 136.609375 135.542969 136.15625 Z M 136.90625 139.609375 C 137.082031 140.058594 137.261719 140.507812 137.4375 140.960938 C 137.261719 140.507812 137.082031 140.058594 136.90625 139.609375 Z M 138.300781 143.179688 C 138.457031 143.582031 138.617188 143.984375 138.773438 144.390625 C 138.617188 143.984375 138.457031 143.582031 138.300781 143.179688 Z M 16.394531 1.140625 C 16.394531 0.625 16.8125 0.203125 17.332031 0.203125 L 42.769531 0.203125 C 43.289062 0.203125 43.707031 0.625 43.707031 1.140625 C 43.707031 1.660156 43.289062 2.082031 42.769531 2.082031 L 17.332031 2.082031 C 16.8125 2.082031 16.394531 1.660156 16.394531 1.140625 Z M 290.636719 141.847656 L 358.777344 141.847656 C 359.296875 141.847656 359.71875 142.269531 359.71875 142.789062 L 368.542969 142.789062 L 368.542969 158.554688 L 309.066406 158.554688 C 309.066406 159.070312 308.648438 159.492188 308.128906 159.492188 L 290.636719 159.492188 C 290.117188 159.492188 289.699219 159.070312 289.699219 158.554688 L 289.699219 142.789062 C 289.695312 142.269531 290.117188 141.847656 290.636719 141.847656 Z M 14.921875 59.480469 C 14.921875 58.960938 15.34375 58.542969 15.863281 58.542969 L 42.125 58.542969 C 42.644531 58.542969 43.066406 58.960938 43.066406 59.480469 C 43.066406 60 42.644531 60.421875 42.125 60.421875 L 15.863281 60.421875 C 15.34375 60.421875 14.921875 60 14.921875 59.480469 Z M 60.449219 81.585938 C 59.929688 81.585938 59.511719 81.164062 59.511719 80.644531 C 59.511719 80.125 59.929688 79.707031 60.449219 79.707031 L 70.515625 79.707031 C 71.03125 79.707031 71.453125 80.125 71.453125 80.644531 C 71.453125 81.164062 71.03125 81.585938 70.515625 81.585938 Z M 7.738281 1.140625 C 7.738281 1.660156 7.316406 2.082031 6.796875 2.082031 L 0.960938 2.082031 C 0.441406 2.082031 0.0195312 1.660156 0.0195312 1.140625 C 0.0195312 0.625 0.441406 0.203125 0.960938 0.203125 L 6.796875 0.203125 C 7.316406 0.203125 7.738281 0.625 7.738281 1.140625 Z M 369.480469 178.621094 L 369.480469 186.503906 C 369.480469 187.023438 369.0625 187.445312 368.542969 187.445312 L 334.433594 187.445312 C 333.914062 187.445312 333.496094 187.023438 333.496094 186.503906 L 309.070312 186.503906 L 309.070312 170.738281 L 368.542969 170.738281 L 368.542969 177.683594 C 369.0625 177.683594 369.480469 178.101562 369.480469 178.621094 Z M 369.480469 178.621094 " fill-opacity="1" fill-rule="nonzero"/></g><path fill="#ffffff" d="M 14.316406 223.015625 L 183.078125 223.015625 L 183.078125 262.144531 L 14.316406 262.144531 Z M 226.917969 129.613281 C 227.441406 129.921875 227.984375 130.179688 228.542969 130.367188 C 231.210938 131.257812 233.871094 130.625 235.246094 130.15625 C 234.4375 128.953125 232.699219 126.835938 230.035156 125.941406 C 229.710938 125.832031 229.382812 125.75 229.050781 125.683594 C 229.226562 126.285156 229.226562 126.949219 229.011719 127.589844 C 228.667969 128.601562 227.867188 129.320312 226.917969 129.613281 Z M 82.78125 15.25 C 84.335938 15.25 85.605469 13.980469 85.605469 12.425781 C 85.605469 10.871094 84.335938 9.601562 82.78125 9.601562 C 81.222656 9.601562 79.957031 10.871094 79.957031 12.425781 C 79.957031 13.980469 81.222656 15.25 82.78125 15.25 Z M 65.101562 15.25 C 66.660156 15.25 67.925781 13.980469 67.925781 12.425781 C 67.925781 10.871094 66.660156 9.601562 65.101562 9.601562 C 63.546875 9.601562 62.28125 10.871094 62.28125 12.425781 C 62.28125 13.980469 63.546875 15.25 65.101562 15.25 Z M 183.976562 251.75 L 281.972656 258.441406 L 282.425781 229.832031 L 183.078125 219.199219 Z M 333.839844 231.765625 C 335.402344 229.664062 339.136719 223.546875 337.6875 220.539062 C 336.210938 217.480469 328.292969 215.742188 325.367188 215.332031 C 324.953125 215.273438 324.628906 214.949219 324.566406 214.535156 C 323.921875 209.941406 322.128906 202.128906 320.082031 200.710938 C 319.820312 200.527344 319.652344 200.53125 319.53125 200.5625 C 318.140625 200.871094 318.207031 208.710938 319.523438 218.023438 C 319.53125 218.074219 319.546875 218.121094 319.546875 218.171875 C 319.753906 219.617188 319.988281 221.097656 320.253906 222.589844 C 320.34375 223.097656 320.003906 223.585938 319.496094 223.675781 C 318.984375 223.773438 318.496094 223.429688 318.40625 222.917969 C 318.238281 221.988281 318.054688 220.890625 317.863281 219.6875 C 316.949219 220.308594 315.75 221.335938 315.332031 222.679688 C 315.117188 223.367188 315.148438 224.070312 315.386719 224.800781 C 318.855469 229.300781 321.839844 233.167969 324.164062 236.171875 C 326.839844 236.929688 332.5625 238.839844 336.367188 242.226562 L 333.691406 232.574219 C 333.613281 232.296875 333.667969 231.996094 333.839844 231.765625 Z M 245.683594 133.871094 C 247.476562 132.480469 251.453125 129.886719 253.691406 130.550781 C 254.398438 130.761719 254.882812 131.324219 255.175781 132.277344 C 256.910156 137.914062 249.441406 143.253906 249.367188 143.304688 C 249.179688 143.433594 249.046875 143.628906 248.992188 143.847656 C 248.953125 144.003906 248.058594 147.722656 250.183594 151.058594 C 251.527344 153.167969 253.75 154.621094 256.789062 155.378906 L 253.210938 171.351562 C 251.40625 171.105469 249.511719 170.875 247.488281 170.675781 C 246.960938 170.628906 246.511719 171 246.457031 171.515625 C 246.457031 171.527344 246.460938 171.539062 246.460938 171.550781 C 244.289062 171.40625 242.03125 171.324219 239.664062 171.324219 C 239.664062 171.324219 232.601562 171.230469 222.980469 168.890625 L 225.191406 162.117188 C 227.6875 162.804688 230.15625 163 232.132812 163 C 234.589844 163 236.285156 162.703125 236.339844 162.691406 C 236.847656 162.597656 237.1875 162.109375 237.09375 161.597656 C 237 161.089844 236.511719 160.753906 236 160.84375 C 235.375 160.957031 220.714844 163.496094 216.28125 152.238281 C 214.011719 146.480469 217.449219 135.941406 221.492188 126.773438 C 221.636719 127.007812 221.824219 127.289062 222.050781 127.609375 C 222.589844 128.355469 223.5 129.453125 224.792969 130.453125 C 225.765625 131.195312 226.824219 131.765625 227.945312 132.148438 C 229.144531 132.550781 230.332031 132.699219 231.429688 132.699219 C 234.511719 132.699219 236.90625 131.527344 237.039062 131.460938 C 237.503906 131.230469 237.691406 130.667969 237.464844 130.203125 C 237.375 130.023438 235.203125 125.695312 230.632812 124.160156 C 229.980469 123.941406 229.308594 123.785156 228.648438 123.707031 C 226.273438 123.394531 224.128906 123.890625 222.75 124.363281 C 222.675781 124.386719 222.621094 124.410156 222.550781 124.433594 C 226.339844 116.242188 230.273438 109.660156 230.359375 109.519531 C 230.40625 109.4375 230.425781 109.351562 230.449219 109.265625 C 232.585938 109.855469 237.9375 111.582031 239.109375 114.363281 C 240.578125 117.851562 239.109375 122.445312 239.109375 122.445312 L 242.417969 125.695312 L 237.332031 135.554688 L 242.050781 137.820312 C 242.050781 137.820312 243.640625 135.875 245.683594 133.871094 Z M 237.882812 124.921875 C 238.027344 124.921875 238.175781 124.886719 238.3125 124.816406 C 238.773438 124.582031 238.957031 124.015625 238.71875 123.550781 C 236.882812 119.980469 234.097656 115.878906 228.550781 116.023438 C 228.03125 116.035156 227.621094 116.464844 227.632812 116.984375 C 227.644531 117.5 228.0625 117.921875 228.59375 117.902344 C 232.132812 117.820312 234.660156 119.769531 237.046875 124.410156 C 237.214844 124.734375 237.542969 124.921875 237.882812 124.921875 Z M 228.0625 146.855469 C 228.042969 146.339844 227.636719 145.929688 227.085938 145.953125 C 221.433594 146.160156 219.492188 143.652344 219.402344 143.527344 C 219.101562 143.109375 218.519531 143.007812 218.097656 143.308594 C 217.671875 143.605469 217.570312 144.191406 217.867188 144.613281 C 217.964844 144.753906 220.210938 147.84375 226.410156 147.84375 C 226.652344 147.84375 226.902344 147.839844 227.160156 147.832031 C 227.675781 147.808594 228.082031 147.375 228.0625 146.855469 Z M 247.261719 135.398438 C 247.617188 135.765625 248.210938 135.773438 248.585938 135.425781 C 249.167969 134.894531 251.546875 133.796875 252.035156 134.207031 C 252.257812 135.152344 250.339844 137.070312 248.867188 138.089844 C 248.4375 138.382812 248.332031 138.96875 248.628906 139.394531 C 248.808594 139.660156 249.101562 139.800781 249.402344 139.800781 C 249.585938 139.800781 249.769531 139.746094 249.933594 139.636719 C 250.695312 139.109375 254.472656 136.351562 253.867188 133.777344 C 253.691406 133.027344 253.199219 132.503906 252.480469 132.300781 C 250.582031 131.761719 247.628906 133.730469 247.265625 134.09375 C 246.902344 134.457031 246.910156 135.027344 247.261719 135.398438 Z M 214.976562 131.398438 C 214.5 132.164062 214.363281 132.78125 214.574219 133.238281 C 214.859375 133.855469 215.746094 134.242188 216.445312 134.453125 C 217.464844 131.453125 218.683594 128.433594 219.957031 125.566406 C 218.160156 127.355469 216.121094 129.566406 214.976562 131.398438 Z M 22.90625 216.953125 C 22.90625 218.382812 24.070312 219.550781 25.503906 219.550781 C 26.9375 219.550781 28.101562 218.386719 28.101562 216.953125 C 28.101562 215.519531 26.9375 214.351562 25.503906 214.351562 C 24.070312 214.351562 22.90625 215.519531 22.90625 216.953125 Z M 25.503906 125.417969 C 26.9375 125.417969 28.101562 124.25 28.101562 122.816406 C 28.101562 121.382812 26.9375 120.21875 25.503906 120.21875 C 24.070312 120.21875 22.90625 121.382812 22.90625 122.816406 C 22.90625 124.25 24.070312 125.417969 25.503906 125.417969 Z M 42.125 125.417969 C 43.558594 125.417969 44.722656 124.25 44.722656 122.816406 C 44.722656 121.382812 43.558594 120.21875 42.125 120.21875 C 40.691406 120.21875 39.527344 121.382812 39.527344 122.816406 C 39.527344 124.25 40.691406 125.417969 42.125 125.417969 Z M 133.21875 35.101562 L 126.644531 35.101562 C 128.335938 38.167969 129.976562 42.542969 131.230469 46.308594 C 131.5625 41.785156 132.160156 37.480469 133.21875 35.101562 Z M 39.527344 216.953125 C 39.527344 218.382812 40.691406 219.550781 42.125 219.550781 C 43.558594 219.550781 44.722656 218.386719 44.722656 216.953125 C 44.722656 215.519531 43.558594 214.351562 42.125 214.351562 C 40.691406 214.351562 39.527344 215.519531 39.527344 216.953125 Z M 144.699219 66.652344 C 146.320312 64.507812 148.144531 61.523438 149.019531 59.148438 C 149.023438 59.128906 149.03125 59.113281 149.039062 59.097656 C 149.550781 57.679688 149.722656 56.484375 149.292969 55.832031 C 149.171875 55.644531 149.039062 55.5625 148.824219 55.546875 C 147.363281 55.449219 144.347656 57.960938 142.265625 60.128906 C 142.257812 60.136719 142.25 60.144531 142.238281 60.152344 C 142.003906 60.398438 141.777344 60.640625 141.570312 60.871094 C 141.324219 61.148438 140.9375 61.25 140.585938 61.140625 C 140.234375 61.03125 139.980469 60.722656 139.9375 60.355469 C 139.90625 60.070312 139.871094 59.785156 139.835938 59.5 C 139.835938 59.492188 139.832031 59.488281 139.832031 59.480469 C 139.832031 59.480469 139.835938 59.476562 139.835938 59.476562 C 138.570312 48.878906 136.511719 37.21875 135.140625 35.222656 C 134.046875 36.707031 133.078125 44.609375 132.832031 51.578125 C 132.816406 52.039062 132.46875 52.417969 132.011719 52.476562 C 131.554688 52.53125 131.125 52.253906 130.992188 51.8125 C 128.117188 42.121094 124.492188 33.726562 122.953125 33.132812 C 121.847656 34.59375 122.507812 45.054688 123.851562 54.179688 C 123.914062 54.601562 123.683594 55.015625 123.289062 55.179688 C 122.898438 55.347656 122.4375 55.226562 122.179688 54.886719 C 122.136719 54.835938 118.160156 49.71875 115.109375 51.46875 C 114.550781 51.789062 114.226562 52.21875 114.085938 52.824219 C 113.640625 54.738281 115.257812 57.710938 115.921875 58.691406 C 116.160156 59.042969 116.128906 59.511719 115.851562 59.832031 C 115.574219 60.152344 115.117188 60.246094 114.738281 60.0625 C 114.128906 59.773438 112.265625 59.132812 110.96875 59.625 C 110.679688 59.738281 110.433594 59.898438 110.222656 60.113281 C 110.210938 60.125 110.203125 60.140625 110.191406 60.152344 C 109.996094 60.363281 109.832031 60.617188 109.699219 60.929688 C 108.894531 62.851562 115.191406 71.851562 121.488281 79.089844 C 121.578125 79.195312 121.648438 79.320312 121.683594 79.453125 L 127.613281 100.78125 C 133.835938 97.925781 142.089844 94.113281 148.367188 91.140625 L 141.140625 72.34375 C 141.027344 72.050781 141.070312 71.71875 141.253906 71.460938 Z M 148.195312 166.128906 L 14.316406 166.128906 L 14.316406 131.070312 L 133.519531 131.070312 C 132.441406 128.367188 131.394531 125.746094 130.394531 123.230469 C 133.410156 130.8125 136.886719 139.414062 140.074219 147.789062 C 142.457031 154.050781 145.234375 160.210938 148.195312 166.128906 Z M 26.511719 144.675781 L 110.671875 144.675781 L 110.671875 138.796875 L 26.511719 138.796875 Z M 129.78125 150.761719 L 26.511719 150.761719 L 26.511719 156.640625 L 129.78125 156.640625 Z M 109.183594 58.542969 L 53.140625 58.542969 L 53.140625 21.203125 L 249.523438 21.203125 L 249.523438 58.542969 L 151.148438 58.542969 C 151.496094 57.105469 151.5 55.777344 150.863281 54.804688 C 150.421875 54.125 149.761719 53.738281 148.964844 53.675781 C 146.660156 53.507812 143.453125 56.28125 141.566406 58.152344 C 139.832031 43.800781 138.253906 37.699219 137.0625 35.101562 L 175.351562 35.101562 L 175.351562 29.222656 L 66.625 29.222656 L 66.625 35.101562 L 120.648438 35.101562 C 120.199219 39.527344 120.984375 46.929688 121.59375 51.578125 C 119.734375 49.960938 116.890625 48.28125 114.171875 49.839844 C 113.160156 50.421875 112.511719 51.285156 112.253906 52.402344 C 111.851562 54.136719 112.523438 56.175781 113.214844 57.664062 C 112.3125 57.515625 111.265625 57.503906 110.304688 57.867188 C 109.882812 58.027344 109.519531 58.265625 109.183594 58.542969 Z M 208.453125 51.425781 C 208.453125 51.941406 208.871094 52.363281 209.390625 52.363281 L 239.492188 52.363281 C 240.007812 52.363281 240.429688 51.941406 240.429688 51.425781 L 240.429688 34.96875 C 240.429688 34.453125 240.007812 34.03125 239.492188 34.03125 C 238.972656 34.03125 238.550781 34.453125 238.550781 34.96875 L 238.550781 50.484375 L 209.390625 50.484375 C 208.871094 50.484375 208.453125 50.90625 208.453125 51.425781 Z M 191.234375 50.484375 L 170.453125 50.484375 C 169.933594 50.484375 169.515625 50.90625 169.515625 51.425781 C 169.515625 51.941406 169.933594 52.363281 170.453125 52.363281 L 191.234375 52.363281 C 191.753906 52.363281 192.175781 51.941406 192.175781 51.425781 C 192.175781 50.90625 191.753906 50.484375 191.234375 50.484375 Z M 190.046875 152.210938 C 192.855469 154.765625 195.820312 156.96875 198.847656 158.890625 L 198.847656 131.070312 L 173.90625 131.070312 C 178.992188 139.503906 184.539062 147.199219 190.046875 152.210938 Z M 190.046875 152.210938 " fill-opacity="1" fill-rule="nonzero"/><path fill="#88028f" d="M 83.71875 1.140625 C 83.71875 1.660156 83.296875 2.082031 82.78125 2.082031 L 53.140625 2.082031 L 53.140625 21.203125 L 249.523438 21.203125 L 249.523438 10.457031 C 249.523438 9.941406 249.941406 9.519531 250.460938 9.519531 L 250.460938 1.136719 L 83.71875 1.136719 C 83.71875 1.140625 83.71875 1.140625 83.71875 1.140625 Z M 65.101562 17.128906 C 62.507812 17.128906 60.402344 15.019531 60.402344 12.425781 C 60.402344 9.835938 62.511719 7.726562 65.101562 7.726562 C 67.695312 7.726562 69.804688 9.835938 69.804688 12.425781 C 69.804688 15.019531 67.695312 17.128906 65.101562 17.128906 Z M 87.480469 12.425781 C 87.480469 15.019531 85.371094 17.128906 82.78125 17.128906 C 80.1875 17.128906 78.078125 15.019531 78.078125 12.425781 C 78.078125 9.835938 80.1875 7.726562 82.78125 7.726562 C 85.371094 7.726562 87.480469 9.832031 87.480469 12.425781 Z M 129.117188 120.023438 C 129.089844 119.941406 129.054688 119.863281 129.023438 119.785156 C 128.710938 118.988281 128.402344 118.207031 128.105469 117.441406 C 128.042969 117.289062 127.980469 117.132812 127.921875 116.980469 C 127.773438 116.597656 127.625 116.21875 127.480469 115.847656 C 127.394531 115.617188 127.304688 115.394531 127.21875 115.171875 C 126.996094 114.597656 126.78125 114.035156 126.570312 113.480469 C 126.484375 113.261719 126.402344 113.039062 126.320312 112.824219 C 126.242188 112.621094 126.160156 112.40625 126.082031 112.203125 L 43.066406 112.203125 C 43.066406 112.722656 42.644531 113.144531 42.125 113.144531 L 14.316406 113.144531 L 14.316406 131.070312 L 133.523438 131.070312 C 131.976562 127.199219 130.484375 123.480469 129.117188 120.023438 Z M 25.503906 127.292969 C 23.035156 127.292969 21.027344 125.285156 21.027344 122.816406 C 21.027344 120.351562 23.035156 118.339844 25.503906 118.339844 C 27.972656 118.339844 29.980469 120.351562 29.980469 122.816406 C 29.980469 125.285156 27.972656 127.292969 25.503906 127.292969 Z M 42.125 127.292969 C 39.65625 127.292969 37.648438 125.285156 37.648438 122.816406 C 37.648438 120.351562 39.65625 118.339844 42.125 118.339844 C 44.59375 118.339844 46.601562 120.351562 46.601562 122.816406 C 46.601562 125.285156 44.59375 127.292969 42.125 127.292969 Z M 163.734375 112.203125 L 199.785156 112.203125 L 199.785156 120.027344 C 199.265625 120.027344 198.847656 120.449219 198.847656 120.964844 L 198.847656 131.070312 L 173.90625 131.070312 C 173.851562 130.984375 173.804688 130.894531 173.75 130.808594 C 172.90625 129.398438 172.070312 127.972656 171.253906 126.53125 C 171.175781 126.398438 171.101562 126.261719 171.027344 126.128906 C 170.226562 124.710938 169.4375 123.285156 168.667969 121.855469 C 168.566406 121.660156 168.464844 121.46875 168.359375 121.273438 C 167.613281 119.878906 166.878906 118.480469 166.171875 117.089844 C 166.085938 116.925781 166.007812 116.765625 165.921875 116.605469 C 165.171875 115.125 164.4375 113.652344 163.734375 112.203125 Z M 172.730469 206.34375 L 162.109375 206.34375 C 162.109375 206.863281 161.6875 207.28125 161.167969 207.28125 L 14.316406 207.28125 L 14.316406 225.210938 L 181.980469 225.210938 L 181.398438 217.808594 C 181.398438 217.808594 177.886719 213.527344 172.730469 206.34375 Z M 25.503906 221.429688 C 23.035156 221.429688 21.027344 219.417969 21.027344 216.949219 C 21.027344 214.484375 23.035156 212.472656 25.503906 212.472656 C 27.972656 212.472656 29.980469 214.484375 29.980469 216.949219 C 29.980469 219.421875 27.972656 221.429688 25.503906 221.429688 Z M 42.125 221.429688 C 39.65625 221.429688 37.648438 219.417969 37.648438 216.949219 C 37.648438 214.484375 39.65625 212.472656 42.125 212.472656 C 44.59375 212.472656 46.601562 214.484375 46.601562 216.949219 C 46.601562 219.421875 44.59375 221.429688 42.125 221.429688 Z M 368.542969 142.789062 L 368.542969 158.554688 L 309.066406 158.554688 C 309.066406 158.035156 308.644531 157.613281 308.128906 157.613281 L 291.574219 157.613281 L 291.574219 143.726562 L 358.777344 143.726562 C 359.296875 143.726562 359.71875 143.304688 359.71875 142.789062 Z M 368.542969 142.789062 " fill-opacity="1" fill-rule="nonzero"/><g clip-path="url(#9181744e9f)"><path fill="#000000" d="M 338.300781 244.332031 C 338.207031 244.40625 338.097656 244.464844 337.972656 244.5 C 337.886719 244.523438 337.804688 244.535156 337.722656 244.535156 C 337.308594 244.535156 336.933594 244.261719 336.816406 243.847656 L 336.367188 242.230469 C 332.5625 238.839844 326.839844 236.929688 324.164062 236.175781 C 327.453125 240.433594 329.40625 242.953125 329.457031 243.019531 C 329.773438 243.429688 329.699219 244.019531 329.289062 244.335938 C 329.117188 244.46875 328.914062 244.535156 328.714844 244.535156 C 328.433594 244.535156 328.15625 244.410156 327.972656 244.167969 C 327.886719 244.058594 322.71875 237.390625 314.886719 227.230469 C 314.621094 227.183594 314.378906 227.035156 314.234375 226.789062 C 314.015625 226.421875 313.839844 226.054688 313.695312 225.6875 C 308.730469 219.242188 302.808594 211.539062 296.484375 203.277344 C 279.523438 181.125 273.984375 175.21875 247.296875 172.542969 C 246.792969 172.492188 246.429688 172.050781 246.460938 171.546875 C 244.285156 171.40625 242.027344 171.320312 239.660156 171.320312 C 239.660156 171.320312 232.597656 171.226562 222.976562 168.890625 L 222.957031 168.957031 C 222.828125 169.355469 222.460938 169.605469 222.0625 169.605469 C 221.964844 169.605469 221.867188 169.589844 221.769531 169.558594 C 221.296875 169.402344 221.039062 168.90625 221.164062 168.429688 C 214.84375 166.757812 207.597656 164.117188 200.578125 159.957031 C 200.414062 160.230469 200.128906 160.425781 199.785156 160.425781 C 199.265625 160.425781 198.84375 160.003906 198.84375 159.488281 L 198.84375 158.886719 C 195.820312 156.96875 192.851562 154.765625 190.046875 152.207031 C 184.539062 147.195312 178.988281 139.503906 173.90625 131.070312 L 173.902344 131.070312 C 173.851562 130.984375 173.800781 130.894531 173.75 130.804688 C 172.902344 129.398438 172.066406 127.972656 171.25 126.53125 C 171.175781 126.394531 171.101562 126.261719 171.023438 126.125 C 170.222656 124.707031 169.433594 123.28125 168.667969 121.855469 C 168.5625 121.660156 168.460938 121.464844 168.355469 121.273438 C 167.609375 119.875 166.878906 118.480469 166.167969 117.089844 C 166.085938 116.925781 166.003906 116.765625 165.921875 116.601562 C 160.148438 105.265625 155.652344 94.496094 153.578125 88.640625 C 152.558594 89.140625 151.363281 89.710938 150.066406 90.332031 L 150.132812 90.503906 C 150.320312 90.988281 150.078125 91.53125 149.59375 91.71875 C 149.109375 91.902344 148.566406 91.664062 148.378906 91.175781 L 148.363281 91.136719 C 142.085938 94.109375 133.832031 97.921875 127.609375 100.78125 L 127.617188 100.804688 C 127.753906 101.304688 127.460938 101.824219 126.960938 101.960938 C 126.878906 101.984375 126.792969 101.996094 126.710938 101.996094 C 126.386719 101.996094 126.09375 101.828125 125.921875 101.554688 C 124.828125 102.058594 123.808594 102.523438 122.914062 102.933594 C 123.53125 105.253906 124.742188 108.671875 126.316406 112.820312 C 126.398438 113.039062 126.484375 113.257812 126.566406 113.480469 C 126.777344 114.03125 126.996094 114.59375 127.214844 115.167969 C 127.304688 115.394531 127.390625 115.617188 127.476562 115.84375 C 127.625 116.21875 127.769531 116.59375 127.917969 116.976562 C 127.980469 117.128906 128.039062 117.285156 128.101562 117.441406 C 128.402344 118.207031 128.707031 118.984375 129.023438 119.78125 C 129.054688 119.859375 129.085938 119.941406 129.117188 120.019531 C 132.398438 128.324219 136.425781 138.207031 140.074219 147.785156 C 142.453125 154.050781 145.230469 160.210938 148.191406 166.125 L 148.65625 166.125 C 149.175781 166.125 149.597656 166.546875 149.597656 167.066406 C 149.597656 167.429688 149.378906 167.738281 149.078125 167.894531 C 157.046875 183.511719 166.195312 197.246094 172.722656 206.339844 L 172.726562 206.339844 C 177.882812 213.523438 181.394531 217.804688 181.394531 217.804688 L 181.976562 225.207031 L 181.363281 225.207031 L 183.386719 298.25 C 183.386719 298.394531 183.429688 298.523438 183.492188 298.644531 L 183.5 299.574219 L 283.382812 299.574219 L 283.382812 288.101562 L 283.785156 262.675781 C 286.167969 266.09375 299.234375 283.332031 319.765625 282.671875 C 342.550781 281.929688 341.132812 257.726562 340.03125 248.542969 C 339.847656 246.980469 339.214844 245.582031 338.300781 244.332031 Z M 281.972656 258.441406 L 183.976562 251.75 L 183.078125 219.199219 L 282.425781 229.832031 Z M 26.511719 234.53125 L 118.929688 234.53125 L 118.929688 240.410156 L 26.511719 240.410156 Z M 110.671875 144.675781 L 26.511719 144.675781 L 26.511719 138.796875 L 110.671875 138.796875 Z M 120.648438 35.101562 L 66.625 35.101562 L 66.625 29.222656 L 175.351562 29.222656 L 175.351562 35.101562 L 137.0625 35.101562 C 136.171875 33.160156 135.496094 33.175781 135.140625 33.1875 C 134.371094 33.214844 133.742188 33.929688 133.21875 35.101562 L 126.644531 35.101562 C 125.417969 32.875 124.164062 31.332031 123.003906 31.230469 C 122.5 31.191406 122.019531 31.378906 121.652344 31.769531 C 121.121094 32.335938 120.808594 33.53125 120.648438 35.101562 Z M 26.511719 150.761719 L 129.78125 150.761719 L 129.78125 156.640625 L 26.511719 156.640625 Z M 368.542969 170.738281 L 368.542969 177.683594 C 368.023438 177.683594 367.601562 178.101562 367.601562 178.621094 L 367.601562 185.566406 L 334.433594 185.566406 C 333.914062 185.566406 333.496094 185.984375 333.496094 186.503906 L 309.070312 186.503906 L 309.070312 170.738281 Z M 368.542969 170.738281 " fill-opacity="1" fill-rule="nonzero"/></g><g clip-path="url(#ca53ecf0ef)"><path fill="#6b0780" d="M 339.378906 219.722656 C 337.441406 215.710938 328.984375 214.019531 326.324219 213.578125 C 325.878906 210.734375 324.199219 201.277344 321.152344 199.167969 C 320.515625 198.726562 319.8125 198.574219 319.125 198.726562 C 315.652344 199.5 316.460938 209.921875 317.5625 217.660156 C 316.449219 218.300781 314.265625 219.808594 313.542969 222.113281 C 313.519531 222.1875 313.503906 222.257812 313.484375 222.332031 C 308.890625 216.367188 303.59375 209.472656 297.976562 202.136719 C 282.679688 182.15625 276.1875 174.878906 255.074219 171.621094 L 258.796875 154.996094 C 267.476562 155.261719 275.984375 144.644531 281.429688 136.476562 C 287.1875 127.835938 289.636719 121.710938 290.371094 114.117188 C 291.109375 106.519531 286.453125 98.867188 282.347656 98.589844 C 278.246094 98.3125 278 104.4375 278 104.4375 C 278 104.4375 275.089844 92.15625 269.917969 92.1875 C 264.742188 92.21875 265.75 99.046875 265.75 99.046875 C 265.75 99.046875 259.6875 86.800781 255.09375 87.535156 C 250.5 88.269531 251.296875 93.902344 251.296875 93.902344 C 251.296875 93.902344 245.785156 84.902344 241.4375 86.035156 C 237.089844 87.167969 238.3125 92.679688 238.3125 92.679688 C 238.3125 92.679688 233.78125 83.796875 230.410156 86.921875 C 227.195312 89.90625 223.21875 105.007812 228.71875 108.597656 C 228.316406 109.269531 225.3125 114.320312 222.089844 120.96875 C 221.066406 121.875 215.6875 126.71875 213.382812 130.402344 C 212.546875 131.742188 212.375 132.964844 212.875 134.035156 C 213.46875 135.308594 214.863281 135.941406 215.859375 136.242188 C 213.851562 142.652344 212.90625 148.796875 214.53125 152.925781 C 216.378906 157.609375 219.808594 160.160156 223.40625 161.527344 L 221.171875 168.375 C 221.164062 168.394531 221.167969 168.414062 221.164062 168.429688 C 221.039062 168.910156 221.296875 169.40625 221.773438 169.558594 C 221.867188 169.59375 221.96875 169.605469 222.0625 169.605469 C 222.460938 169.605469 222.828125 169.355469 222.957031 168.960938 L 222.976562 168.890625 L 225.191406 162.117188 C 227.6875 162.804688 230.152344 163 232.128906 163 C 234.585938 163 236.285156 162.703125 236.339844 162.691406 C 236.847656 162.597656 237.1875 162.109375 237.09375 161.597656 C 237 161.089844 236.511719 160.753906 236 160.84375 C 235.375 160.957031 220.714844 163.496094 216.277344 152.238281 C 214.011719 146.480469 217.449219 135.941406 221.492188 126.773438 C 221.636719 127.007812 221.824219 127.289062 222.050781 127.609375 C 222.589844 128.355469 223.5 129.453125 224.792969 130.453125 C 225.765625 131.195312 226.824219 131.765625 227.941406 132.148438 C 229.144531 132.550781 230.328125 132.699219 231.429688 132.699219 C 234.507812 132.699219 236.902344 131.527344 237.039062 131.460938 C 237.5 131.230469 237.691406 130.667969 237.460938 130.203125 C 237.371094 130.023438 235.203125 125.695312 230.632812 124.160156 C 229.980469 123.941406 229.308594 123.785156 228.644531 123.707031 C 226.273438 123.394531 224.128906 123.890625 222.75 124.363281 C 222.675781 124.386719 222.617188 124.410156 222.550781 124.433594 C 226.339844 116.242188 230.273438 109.660156 230.359375 109.519531 C 230.40625 109.4375 230.425781 109.351562 230.449219 109.265625 C 232.585938 109.855469 237.9375 111.582031 239.109375 114.363281 C 240.578125 117.851562 239.109375 122.445312 239.109375 122.445312 L 242.414062 125.695312 L 237.332031 135.554688 L 242.046875 137.820312 C 242.046875 137.820312 243.640625 135.878906 245.683594 133.875 C 247.472656 132.480469 251.449219 129.886719 253.691406 130.550781 C 254.398438 130.761719 254.882812 131.328125 255.175781 132.277344 C 256.910156 137.914062 249.4375 143.253906 249.363281 143.308594 C 249.179688 143.4375 249.046875 143.628906 248.992188 143.847656 C 248.953125 144.003906 248.054688 147.726562 250.183594 151.058594 C 251.527344 153.171875 253.746094 154.621094 256.789062 155.378906 L 253.210938 171.355469 C 251.402344 171.105469 249.511719 170.878906 247.484375 170.675781 C 246.960938 170.628906 246.507812 171 246.457031 171.515625 C 246.457031 171.527344 246.460938 171.539062 246.460938 171.550781 C 246.429688 172.050781 246.792969 172.492188 247.296875 172.542969 C 273.984375 175.222656 279.523438 181.128906 296.484375 203.28125 C 302.8125 211.542969 308.730469 219.242188 313.699219 225.6875 C 313.839844 226.054688 314.015625 226.421875 314.234375 226.792969 C 314.378906 227.039062 314.625 227.1875 314.886719 227.230469 C 322.71875 237.394531 327.886719 244.0625 327.972656 244.171875 C 328.15625 244.410156 328.433594 244.535156 328.714844 244.535156 C 328.917969 244.535156 329.121094 244.472656 329.289062 244.339844 C 329.699219 244.023438 329.773438 243.429688 329.457031 243.023438 C 329.40625 242.957031 327.453125 240.4375 324.164062 236.179688 C 321.839844 233.175781 318.855469 229.308594 315.390625 224.808594 C 315.148438 224.074219 315.117188 223.375 315.332031 222.6875 C 315.75 221.339844 316.949219 220.3125 317.867188 219.691406 C 318.054688 220.894531 318.238281 221.996094 318.40625 222.921875 C 318.496094 223.433594 318.984375 223.777344 319.496094 223.683594 C 320.003906 223.59375 320.347656 223.105469 320.253906 222.59375 C 319.988281 221.101562 319.753906 219.625 319.546875 218.179688 C 319.546875 218.128906 319.535156 218.078125 319.527344 218.027344 C 318.207031 208.71875 318.140625 200.875 319.535156 200.566406 C 319.652344 200.539062 319.820312 200.535156 320.082031 200.714844 C 322.128906 202.136719 323.921875 209.949219 324.570312 214.539062 C 324.628906 214.953125 324.953125 215.28125 325.367188 215.339844 C 328.292969 215.75 336.210938 217.484375 337.6875 220.542969 C 339.136719 223.550781 335.402344 229.667969 333.839844 231.769531 C 333.667969 232.003906 333.613281 232.300781 333.691406 232.582031 L 336.367188 242.234375 L 336.816406 243.851562 C 336.933594 244.265625 337.3125 244.539062 337.722656 244.539062 C 337.804688 244.539062 337.890625 244.527344 337.972656 244.503906 C 338.097656 244.46875 338.207031 244.414062 338.300781 244.335938 C 338.589844 244.109375 338.730469 243.722656 338.628906 243.347656 L 335.621094 232.515625 C 336.90625 230.699219 341.386719 223.890625 339.378906 219.722656 Z M 216.445312 134.449219 C 215.746094 134.242188 214.863281 133.855469 214.574219 133.234375 C 214.363281 132.78125 214.5 132.164062 214.976562 131.394531 C 216.121094 129.566406 218.160156 127.355469 219.957031 125.566406 C 218.683594 128.433594 217.464844 131.453125 216.445312 134.449219 Z M 229.007812 127.589844 C 229.226562 126.949219 229.226562 126.285156 229.050781 125.683594 C 229.378906 125.75 229.710938 125.832031 230.03125 125.941406 C 232.699219 126.835938 234.4375 128.953125 235.246094 130.15625 C 233.871094 130.625 231.210938 131.257812 228.542969 130.367188 C 227.980469 130.179688 227.441406 129.921875 226.917969 129.613281 C 227.867188 129.320312 228.667969 128.601562 229.007812 127.589844 Z M 228.0625 146.855469 C 228.082031 147.375 227.675781 147.8125 227.160156 147.832031 C 226.90625 147.839844 226.65625 147.84375 226.410156 147.84375 C 220.210938 147.84375 217.964844 144.753906 217.867188 144.613281 C 217.570312 144.191406 217.671875 143.605469 218.097656 143.308594 C 218.519531 143.011719 219.101562 143.109375 219.402344 143.527344 C 219.496094 143.652344 221.433594 146.160156 227.085938 145.953125 C 227.636719 145.929688 228.042969 146.335938 228.0625 146.855469 Z M 252.035156 134.207031 C 251.546875 133.796875 249.167969 134.894531 248.585938 135.425781 C 248.210938 135.773438 247.617188 135.765625 247.261719 135.398438 C 246.910156 135.027344 246.902344 134.457031 247.265625 134.09375 C 247.628906 133.730469 250.578125 131.765625 252.480469 132.300781 C 253.195312 132.503906 253.6875 133.027344 253.863281 133.777344 C 254.46875 136.351562 250.695312 139.109375 249.929688 139.636719 C 249.769531 139.746094 249.582031 139.800781 249.398438 139.800781 C 249.101562 139.800781 248.808594 139.660156 248.625 139.394531 C 248.332031 138.96875 248.4375 138.382812 248.863281 138.089844 C 250.339844 137.070312 252.257812 135.152344 252.035156 134.207031 Z M 208.453125 51.425781 C 208.453125 50.90625 208.871094 50.484375 209.390625 50.484375 L 238.550781 50.484375 L 238.550781 34.96875 C 238.550781 34.453125 238.972656 34.03125 239.492188 34.03125 C 240.007812 34.03125 240.429688 34.453125 240.429688 34.96875 L 240.429688 51.425781 C 240.429688 51.941406 240.007812 52.363281 239.492188 52.363281 L 209.390625 52.363281 C 208.871094 52.363281 208.453125 51.941406 208.453125 51.425781 Z M 169.511719 51.425781 C 169.511719 50.90625 169.933594 50.484375 170.453125 50.484375 L 191.234375 50.484375 C 191.753906 50.484375 192.175781 50.90625 192.175781 51.425781 C 192.175781 51.941406 191.753906 52.363281 191.234375 52.363281 L 170.453125 52.363281 C 169.933594 52.363281 169.511719 51.941406 169.511719 51.425781 Z M 60.398438 12.425781 C 60.398438 15.019531 62.507812 17.128906 65.101562 17.128906 C 67.695312 17.128906 69.804688 15.019531 69.804688 12.425781 C 69.804688 9.835938 67.695312 7.726562 65.101562 7.726562 C 62.507812 7.726562 60.398438 9.832031 60.398438 12.425781 Z M 67.925781 12.425781 C 67.925781 13.984375 66.660156 15.25 65.101562 15.25 C 63.546875 15.25 62.28125 13.980469 62.28125 12.425781 C 62.28125 10.871094 63.546875 9.601562 65.101562 9.601562 C 66.660156 9.601562 67.925781 10.867188 67.925781 12.425781 Z M 78.078125 12.425781 C 78.078125 15.019531 80.1875 17.128906 82.78125 17.128906 C 85.371094 17.128906 87.480469 15.019531 87.480469 12.425781 C 87.480469 9.835938 85.371094 7.726562 82.78125 7.726562 C 80.1875 7.726562 78.078125 9.832031 78.078125 12.425781 Z M 85.605469 12.425781 C 85.605469 13.984375 84.335938 15.25 82.78125 15.25 C 81.222656 15.25 79.957031 13.980469 79.957031 12.425781 C 79.957031 10.871094 81.222656 9.601562 82.78125 9.601562 C 84.335938 9.601562 85.605469 10.867188 85.605469 12.425781 Z M 200.726562 120.964844 L 200.726562 159.488281 C 200.726562 159.664062 200.664062 159.816406 200.582031 159.957031 C 200.417969 160.234375 200.128906 160.429688 199.785156 160.429688 C 199.265625 160.429688 198.847656 160.007812 198.847656 159.488281 L 198.847656 120.964844 C 198.847656 120.449219 199.265625 120.027344 199.785156 120.027344 C 200.304688 120.027344 200.726562 120.449219 200.726562 120.964844 Z M 12.4375 167.066406 L 12.4375 112.203125 C 12.4375 111.683594 12.859375 111.265625 13.378906 111.265625 L 42.125 111.265625 C 42.644531 111.265625 43.0625 111.683594 43.0625 112.203125 C 43.0625 112.722656 42.644531 113.144531 42.125 113.144531 L 14.316406 113.144531 L 14.316406 166.128906 L 148.660156 166.128906 C 149.179688 166.128906 149.597656 166.550781 149.597656 167.066406 C 149.597656 167.433594 149.382812 167.742188 149.078125 167.894531 C 148.953125 167.960938 148.8125 168.007812 148.660156 168.007812 L 13.378906 168.007812 C 12.859375 168.007812 12.4375 167.585938 12.4375 167.066406 Z M 21.027344 122.816406 C 21.027344 125.285156 23.035156 127.292969 25.503906 127.292969 C 27.972656 127.292969 29.980469 125.285156 29.980469 122.816406 C 29.980469 120.351562 27.972656 118.339844 25.503906 118.339844 C 23.035156 118.339844 21.027344 120.347656 21.027344 122.816406 Z M 28.101562 122.816406 C 28.101562 124.25 26.9375 125.417969 25.503906 125.417969 C 24.070312 125.417969 22.90625 124.25 22.90625 122.816406 C 22.90625 121.382812 24.070312 120.21875 25.503906 120.21875 C 26.9375 120.21875 28.101562 121.382812 28.101562 122.816406 Z M 37.648438 122.816406 C 37.648438 125.285156 39.65625 127.292969 42.125 127.292969 C 44.59375 127.292969 46.601562 125.285156 46.601562 122.816406 C 46.601562 120.351562 44.59375 118.339844 42.125 118.339844 C 39.65625 118.339844 37.648438 120.347656 37.648438 122.816406 Z M 44.722656 122.816406 C 44.722656 124.25 43.558594 125.417969 42.125 125.417969 C 40.691406 125.417969 39.527344 124.25 39.527344 122.816406 C 39.527344 121.382812 40.691406 120.21875 42.125 120.21875 C 43.558594 120.21875 44.722656 121.382812 44.722656 122.816406 Z M 171.390625 261.207031 C 171.390625 261.726562 170.96875 262.144531 170.453125 262.144531 L 13.378906 262.144531 C 12.859375 262.144531 12.4375 261.726562 12.4375 261.207031 L 12.4375 206.34375 C 12.4375 205.824219 12.859375 205.402344 13.378906 205.402344 L 161.167969 205.402344 C 161.6875 205.402344 162.109375 205.824219 162.109375 206.34375 C 162.109375 206.863281 161.6875 207.28125 161.167969 207.28125 L 14.316406 207.28125 L 14.316406 260.265625 L 170.453125 260.265625 C 170.972656 260.265625 171.390625 260.6875 171.390625 261.207031 Z M 35.890625 252.679688 L 55.433594 252.679688 C 55.953125 252.679688 56.371094 253.101562 56.371094 253.621094 C 56.371094 254.140625 55.953125 254.558594 55.433594 254.558594 L 35.890625 254.558594 C 35.375 254.558594 34.953125 254.140625 34.953125 253.621094 C 34.953125 253.101562 35.375 252.679688 35.890625 252.679688 Z M 21.027344 216.953125 C 21.027344 219.421875 23.035156 221.429688 25.503906 221.429688 C 27.972656 221.429688 29.980469 219.421875 29.980469 216.953125 C 29.980469 214.484375 27.972656 212.476562 25.503906 212.476562 C 23.035156 212.476562 21.027344 214.484375 21.027344 216.953125 Z M 28.101562 216.953125 C 28.101562 218.382812 26.9375 219.550781 25.503906 219.550781 C 24.070312 219.550781 22.90625 218.386719 22.90625 216.953125 C 22.90625 215.519531 24.070312 214.351562 25.503906 214.351562 C 26.9375 214.351562 28.101562 215.519531 28.101562 216.953125 Z M 46.601562 216.953125 C 46.601562 214.484375 44.59375 212.476562 42.125 212.476562 C 39.65625 212.476562 37.648438 214.484375 37.648438 216.953125 C 37.648438 219.421875 39.65625 221.429688 42.125 221.429688 C 44.59375 221.429688 46.601562 219.421875 46.601562 216.953125 Z M 39.527344 216.953125 C 39.527344 215.519531 40.691406 214.351562 42.125 214.351562 C 43.558594 214.351562 44.722656 215.519531 44.722656 216.953125 C 44.722656 218.382812 43.558594 219.550781 42.125 219.550781 C 40.691406 219.550781 39.527344 218.382812 39.527344 216.953125 Z M 36.589844 29.371094 L 51.261719 29.371094 L 51.261719 1.140625 C 51.261719 0.625 51.683594 0.203125 52.203125 0.203125 L 82.78125 0.203125 C 83.296875 0.203125 83.714844 0.621094 83.71875 1.136719 C 83.71875 1.140625 83.71875 1.140625 83.71875 1.140625 C 83.71875 1.660156 83.296875 2.082031 82.78125 2.082031 L 53.140625 2.082031 L 53.140625 58.542969 L 109.183594 58.542969 C 109.519531 58.265625 109.882812 58.027344 110.304688 57.867188 C 111.265625 57.503906 112.3125 57.515625 113.214844 57.664062 C 112.523438 56.175781 111.851562 54.136719 112.253906 52.402344 C 112.511719 51.285156 113.160156 50.421875 114.171875 49.839844 C 116.890625 48.28125 119.734375 49.960938 121.59375 51.578125 C 120.984375 46.929688 120.199219 39.527344 120.648438 35.101562 C 120.808594 33.53125 121.121094 32.335938 121.652344 31.769531 C 122.019531 31.378906 122.5 31.191406 123.003906 31.230469 C 124.164062 31.332031 125.417969 32.875 126.644531 35.101562 C 128.335938 38.167969 129.976562 42.542969 131.230469 46.308594 C 131.5625 41.785156 132.160156 37.480469 133.21875 35.101562 C 133.742188 33.929688 134.371094 33.214844 135.140625 33.1875 C 135.496094 33.175781 136.171875 33.160156 137.0625 35.101562 C 138.253906 37.699219 139.835938 43.800781 141.566406 58.152344 C 143.453125 56.28125 146.660156 53.507812 148.964844 53.675781 C 149.765625 53.738281 150.421875 54.125 150.863281 54.804688 C 151.5 55.777344 151.496094 57.105469 151.148438 58.542969 L 249.523438 58.542969 L 249.523438 10.457031 C 249.523438 9.941406 249.941406 9.519531 250.460938 9.519531 C 250.980469 9.519531 251.398438 9.941406 251.398438 10.457031 L 251.398438 59.480469 C 251.398438 60 250.980469 60.421875 250.460938 60.421875 L 150.539062 60.421875 C 149.261719 63.605469 146.917969 66.835938 146.210938 67.769531 L 143.074219 72.144531 L 150.070312 90.332031 L 150.136719 90.507812 C 150.320312 90.992188 150.082031 91.535156 149.597656 91.71875 C 149.113281 91.90625 148.570312 91.664062 148.382812 91.179688 L 148.367188 91.140625 L 141.140625 72.34375 C 141.027344 72.050781 141.070312 71.71875 141.253906 71.460938 L 144.699219 66.652344 C 146.320312 64.507812 148.148438 61.523438 149.019531 59.148438 C 149.027344 59.128906 149.03125 59.113281 149.039062 59.097656 C 149.554688 57.679688 149.722656 56.484375 149.296875 55.832031 C 149.171875 55.644531 149.039062 55.5625 148.824219 55.546875 C 147.363281 55.449219 144.351562 57.960938 142.265625 60.128906 C 142.257812 60.136719 142.25 60.144531 142.242188 60.152344 C 142.003906 60.398438 141.777344 60.640625 141.570312 60.871094 C 141.324219 61.148438 140.9375 61.25 140.585938 61.140625 C 140.234375 61.03125 139.980469 60.722656 139.9375 60.355469 C 139.90625 60.070312 139.871094 59.785156 139.839844 59.5 C 139.839844 59.492188 139.835938 59.488281 139.835938 59.480469 C 139.835938 59.480469 139.835938 59.476562 139.835938 59.476562 C 138.574219 48.878906 136.515625 37.21875 135.144531 35.222656 C 134.046875 36.707031 133.082031 44.609375 132.832031 51.578125 C 132.816406 52.039062 132.46875 52.417969 132.011719 52.476562 C 131.554688 52.53125 131.125 52.253906 130.996094 51.8125 C 128.117188 42.121094 124.492188 33.726562 122.953125 33.132812 C 121.847656 34.59375 122.507812 45.054688 123.855469 54.179688 C 123.917969 54.601562 123.683594 55.015625 123.289062 55.179688 C 122.898438 55.347656 122.441406 55.226562 122.179688 54.886719 C 122.140625 54.835938 118.160156 49.71875 115.109375 51.46875 C 114.550781 51.789062 114.226562 52.21875 114.085938 52.824219 C 113.640625 54.738281 115.261719 57.710938 115.921875 58.691406 C 116.160156 59.042969 116.132812 59.511719 115.855469 59.832031 C 115.578125 60.152344 115.117188 60.246094 114.738281 60.0625 C 114.128906 59.773438 112.265625 59.132812 110.96875 59.625 C 110.679688 59.738281 110.433594 59.898438 110.222656 60.113281 C 110.210938 60.125 110.207031 60.140625 110.191406 60.152344 C 109.996094 60.363281 109.832031 60.617188 109.699219 60.929688 C 108.894531 62.851562 115.191406 71.851562 121.488281 79.089844 C 121.582031 79.195312 121.648438 79.320312 121.683594 79.453125 L 127.613281 100.78125 L 127.621094 100.808594 C 127.757812 101.308594 127.464844 101.824219 126.964844 101.964844 C 126.882812 101.988281 126.796875 102 126.714844 102 C 126.394531 102 126.097656 101.828125 125.925781 101.558594 C 125.878906 101.480469 125.835938 101.402344 125.8125 101.3125 L 120.316406 81.539062 C 120.238281 81.558594 120.167969 81.585938 120.085938 81.585938 L 79.621094 81.585938 C 79.101562 81.585938 78.679688 81.164062 78.679688 80.644531 C 78.679688 80.128906 79.101562 79.707031 79.621094 79.707031 L 119.535156 79.707031 C 117.945312 77.855469 115.320312 74.699219 112.953125 71.40625 C 112.878906 71.421875 112.8125 71.449219 112.734375 71.449219 L 100.6875 71.449219 C 100.171875 71.449219 99.75 71.027344 99.75 70.507812 C 99.75 69.992188 100.171875 69.570312 100.6875 69.570312 L 111.675781 69.570312 C 109.199219 65.890625 107.347656 62.308594 107.898438 60.421875 L 52.203125 60.421875 C 51.683594 60.421875 51.261719 60 51.261719 59.480469 L 51.261719 31.25 L 36.589844 31.25 C 36.070312 31.25 35.648438 30.832031 35.648438 30.3125 C 35.648438 29.792969 36.070312 29.371094 36.589844 29.371094 Z M 14.921875 59.480469 C 14.921875 58.960938 15.34375 58.542969 15.863281 58.542969 L 42.125 58.542969 C 42.644531 58.542969 43.066406 58.960938 43.066406 59.480469 C 43.066406 60 42.644531 60.421875 42.125 60.421875 L 15.863281 60.421875 C 15.34375 60.421875 14.921875 60 14.921875 59.480469 Z M 16.394531 1.140625 C 16.394531 0.625 16.8125 0.203125 17.332031 0.203125 L 42.769531 0.203125 C 43.289062 0.203125 43.707031 0.625 43.707031 1.140625 C 43.707031 1.660156 43.289062 2.082031 42.769531 2.082031 L 17.332031 2.082031 C 16.8125 2.082031 16.394531 1.660156 16.394531 1.140625 Z M 7.738281 1.140625 C 7.738281 1.660156 7.316406 2.082031 6.796875 2.082031 L 0.960938 2.082031 C 0.441406 2.082031 0.0195312 1.660156 0.0195312 1.140625 C 0.0195312 0.625 0.441406 0.203125 0.960938 0.203125 L 6.796875 0.203125 C 7.316406 0.203125 7.738281 0.625 7.738281 1.140625 Z M 70.515625 79.707031 C 71.03125 79.707031 71.453125 80.125 71.453125 80.644531 C 71.453125 81.164062 71.03125 81.585938 70.515625 81.585938 L 60.449219 81.585938 C 59.929688 81.585938 59.511719 81.164062 59.511719 80.644531 C 59.511719 80.125 59.929688 79.707031 60.449219 79.707031 Z M 369.480469 178.621094 L 369.480469 186.503906 C 369.480469 187.023438 369.0625 187.445312 368.542969 187.445312 L 334.433594 187.445312 C 333.914062 187.445312 333.496094 187.023438 333.496094 186.503906 C 333.496094 185.984375 333.914062 185.566406 334.433594 185.566406 L 367.601562 185.566406 L 367.601562 178.621094 C 367.601562 178.101562 368.023438 177.683594 368.542969 177.683594 C 369.0625 177.683594 369.480469 178.101562 369.480469 178.621094 Z M 290.636719 141.847656 L 358.777344 141.847656 C 359.296875 141.847656 359.71875 142.269531 359.71875 142.789062 C 359.71875 143.304688 359.296875 143.726562 358.777344 143.726562 L 291.574219 143.726562 L 291.574219 157.613281 L 308.128906 157.613281 C 308.644531 157.613281 309.066406 158.035156 309.066406 158.554688 C 309.066406 159.070312 308.644531 159.492188 308.128906 159.492188 L 290.636719 159.492188 C 290.117188 159.492188 289.695312 159.070312 289.695312 158.554688 L 289.695312 142.789062 C 289.695312 142.269531 290.117188 141.847656 290.636719 141.847656 Z M 238.3125 124.816406 C 238.175781 124.886719 238.027344 124.921875 237.882812 124.921875 C 237.542969 124.921875 237.214844 124.734375 237.046875 124.414062 C 234.660156 119.769531 232.132812 117.820312 228.59375 117.902344 C 228.0625 117.921875 227.644531 117.503906 227.632812 116.984375 C 227.621094 116.464844 228.03125 116.035156 228.550781 116.023438 C 234.097656 115.878906 236.882812 119.980469 238.71875 123.554688 C 238.953125 124.015625 238.773438 124.582031 238.3125 124.816406 Z M 238.3125 124.816406 " fill-opacity="1" fill-rule="nonzero"/></g></svg>