<svg xmlns="http://www.w3.org/2000/svg" xmlns:xlink="http://www.w3.org/1999/xlink" width="500" zoomAndPan="magnify" viewBox="0 0 375 374.999991" height="500" preserveAspectRatio="xMidYMid meet" version="1.0"><defs><filter x="0%" y="0%" width="100%" height="100%" id="a6518719d8"><feColorMatrix values="0 0 0 0 1 0 0 0 0 1 0 0 0 0 1 0 0 0 1 0" color-interpolation-filters="sRGB"/></filter><g/><clipPath id="548245312a"><path d="M 49.40625 165.605469 L 118.300781 165.605469 L 118.300781 220.207031 L 49.40625 220.207031 Z M 49.40625 165.605469 " clip-rule="nonzero"/></clipPath><clipPath id="8e89c7faf3"><path d="M 73.1875 165.605469 L 112.792969 165.605469 C 114.53125 165.605469 116.160156 166.4375 117.175781 167.847656 C 118.195312 169.257812 118.46875 171.070312 117.921875 172.71875 L 104.464844 213.089844 C 103.046875 217.339844 99.070312 220.207031 94.589844 220.207031 L 54.988281 220.207031 C 53.25 220.207031 51.617188 219.371094 50.601562 217.960938 C 49.585938 216.550781 49.308594 214.738281 49.859375 213.089844 L 63.316406 172.71875 C 64.734375 168.46875 68.710938 165.605469 73.1875 165.605469 Z M 73.1875 165.605469 " clip-rule="nonzero"/></clipPath><mask id="f97d54f4fd"><g filter="url(#a6518719d8)"><rect x="-37.5" width="450" fill="#000000" y="-37.499999" height="449.999989" fill-opacity="0.8"/></g></mask><clipPath id="9e6e6caecb"><path d="M 2.417969 0.554688 L 71.3125 0.554688 L 71.3125 55.15625 L 2.417969 55.15625 Z M 2.417969 0.554688 " clip-rule="nonzero"/></clipPath><clipPath id="d89d9b624d"><path d="M 26.199219 0.554688 L 65.804688 0.554688 C 67.542969 0.554688 69.171875 1.386719 70.1875 2.796875 C 71.207031 4.207031 71.480469 6.019531 70.933594 7.667969 L 57.476562 48.042969 C 56.058594 52.289062 52.082031 55.15625 47.601562 55.15625 L 8 55.15625 C 6.261719 55.15625 4.628906 54.320312 3.613281 52.910156 C 2.597656 51.5 2.320312 49.691406 2.871094 48.042969 L 16.328125 7.667969 C 17.746094 3.417969 21.722656 0.554688 26.199219 0.554688 Z M 26.199219 0.554688 " clip-rule="nonzero"/></clipPath><clipPath id="10c004682e"><rect x="0" width="74" y="0" height="56"/></clipPath></defs><rect x="-37.5" width="450" fill="#ffffff" y="-37.499999" height="449.999989" fill-opacity="1"/><rect x="-37.5" width="450" fill="#ffffff" y="-37.499999" height="449.999989" fill-opacity="1"/><g clip-path="url(#548245312a)"><g clip-path="url(#8e89c7faf3)"><path fill="#0558ee" d="M 47.488281 165.605469 L 120.222656 165.605469 L 120.222656 220.207031 L 47.488281 220.207031 Z M 47.488281 165.605469 " fill-opacity="1" fill-rule="nonzero"/></g></g><g mask="url(#f97d54f4fd)"><g transform="matrix(1, 0, 0, 1, 37, 155)"><g clip-path="url(#10c004682e)"><g clip-path="url(#9e6e6caecb)"><g clip-path="url(#d89d9b624d)"><path fill="#21e8e6" d="M 0.5 0.554688 L 73.234375 0.554688 L 73.234375 55.15625 L 0.5 55.15625 Z M 0.5 0.554688 " fill-opacity="1" fill-rule="nonzero"/></g></g></g></g></g><g fill="#000000" fill-opacity="1"><g transform="translate(120.292175, 201.3383)"><g><path d="M 10.941406 0.667969 C 16.292969 0.667969 20.03125 -1.652344 20.03125 -6.691406 C 20.03125 -11.058594 17.867188 -12.789062 13.617188 -13.65625 L 10.113281 -14.402344 C 8.972656 -14.679688 8.304688 -14.992188 8.304688 -16.015625 C 8.304688 -17 8.972656 -17.710938 11.414062 -17.710938 C 14.207031 -17.710938 17.039062 -17.039062 19.007812 -16.136719 L 19.007812 -21.371094 C 16.6875 -22.15625 13.890625 -22.785156 11.136719 -22.785156 C 5.117188 -22.785156 2.164062 -20.386719 2.164062 -15.625 C 2.164062 -11.804688 4.289062 -9.878906 8.421875 -9.011719 L 11.925781 -8.265625 C 13.261719 -7.949219 13.890625 -7.476562 13.890625 -6.375 C 13.890625 -5.234375 13.144531 -4.40625 10.941406 -4.40625 C 7.792969 -4.40625 4.839844 -4.996094 1.851562 -6.691406 L 1.851562 -1.257812 C 4.878906 0.15625 7.359375 0.667969 10.941406 0.667969 Z M 10.941406 0.667969 "/></g></g></g><g fill="#000000" fill-opacity="1"><g transform="translate(142.015567, 201.3383)"><g><path d="M 2.953125 -25.816406 L 9.011719 -25.816406 L 9.011719 -31.757812 L 2.953125 -31.757812 Z M 2.953125 0 L 9.011719 0 L 9.011719 -22.15625 L 2.953125 -22.15625 Z M 2.953125 0 "/></g></g></g><g fill="#000000" fill-opacity="1"><g transform="translate(153.979174, 201.3383)"><g><path d="M 29.28125 -22.628906 C 26.5625 -22.628906 24.398438 -21.449219 22.117188 -19.164062 C 20.816406 -21.566406 18.417969 -22.628906 14.992188 -22.628906 C 12.75 -22.628906 10.902344 -21.839844 9.011719 -20.265625 L 9.011719 -22.15625 L 2.953125 -22.15625 L 2.953125 0 L 9.011719 0 L 9.011719 -15.152344 C 10.507812 -16.449219 12.042969 -17.199219 13.734375 -17.199219 C 16.410156 -17.199219 17.238281 -15.820312 17.238281 -13.300781 L 17.238281 0 L 23.296875 0 L 23.296875 -13.300781 C 23.296875 -13.929688 23.257812 -14.523438 23.21875 -15.074219 C 24.753906 -16.410156 26.289062 -17.199219 28.019531 -17.199219 C 30.695312 -17.199219 31.523438 -15.820312 31.523438 -13.300781 L 31.523438 0 L 37.582031 0 L 37.582031 -13.300781 C 37.582031 -19.953125 34.789062 -22.628906 29.28125 -22.628906 Z M 29.28125 -22.628906 "/></g></g></g><g fill="#000000" fill-opacity="1"><g transform="translate(194.159562, 201.3383)"><g><path d="M 15.074219 -22.785156 C 12.789062 -22.785156 10.824219 -21.921875 9.011719 -20.503906 L 9.011719 -22.15625 L 2.953125 -22.15625 L 2.953125 9.207031 L 9.011719 9.207031 L 9.011719 -1.574219 C 10.824219 -0.195312 12.789062 0.667969 15.074219 0.667969 C 20.898438 0.667969 25.148438 -3.1875 25.148438 -11.058594 C 25.148438 -18.890625 20.898438 -22.785156 15.074219 -22.785156 Z M 13.8125 -4.722656 C 12.082031 -4.722656 10.46875 -5.46875 9.011719 -6.53125 L 9.011719 -15.585938 C 10.46875 -16.648438 12.082031 -17.355469 13.8125 -17.355469 C 17.160156 -17.355469 18.851562 -15.152344 18.851562 -11.058594 C 18.851562 -6.925781 17.160156 -4.722656 13.8125 -4.722656 Z M 13.8125 -4.722656 "/></g></g></g><g fill="#000000" fill-opacity="1"><g transform="translate(220.920261, 201.3383)"><g><path d="M 9.523438 0.511719 C 10.902344 0.511719 12.003906 0.316406 13.339844 0.0390625 L 13.339844 -5.195312 C 12.710938 -4.996094 12.042969 -4.878906 11.097656 -4.878906 C 9.484375 -4.878906 9.011719 -5.507812 9.011719 -7.359375 L 9.011719 -33.292969 L 2.953125 -33.292969 L 2.953125 -5.234375 C 2.953125 -1.496094 4.996094 0.511719 9.523438 0.511719 Z M 9.523438 0.511719 "/></g></g></g><g fill="#000000" fill-opacity="1"><g transform="translate(235.245107, 201.3383)"><g><path d="M 8.027344 -9.40625 L 22.433594 -9.40625 L 22.433594 -11.804688 C 22.433594 -19.125 18.457031 -22.785156 12.277344 -22.785156 C 6.375 -22.785156 1.574219 -18.734375 1.574219 -11.097656 C 1.574219 -4.132812 5.707031 0.667969 13.460938 0.667969 C 16.84375 0.667969 19.324219 0.15625 22.039062 -1.339844 L 20.425781 -6.058594 C 18.0625 -4.917969 16.292969 -4.40625 14.246094 -4.40625 C 10.035156 -4.40625 8.421875 -6.570312 8.027344 -9.40625 Z M 12.277344 -17.710938 C 14.601562 -17.710938 15.820312 -16.566406 16.097656 -14.011719 L 8.144531 -14.011719 C 8.695312 -16.726562 10.191406 -17.710938 12.277344 -17.710938 Z M 12.277344 -17.710938 "/></g></g></g><g fill="#000000" fill-opacity="1"><g transform="translate(259.014893, 201.3383)"><g><path d="M 17 0.667969 C 19.953125 0.667969 23.453125 -0.117188 26.601562 -1.730469 L 24.753906 -6.886719 C 22.195312 -5.550781 19.753906 -4.644531 17 -4.644531 C 11.214844 -4.644531 7.949219 -8.816406 7.949219 -14.875 C 7.949219 -20.738281 11.609375 -25.070312 17.199219 -25.070312 C 19.558594 -25.070312 21.878906 -24.597656 24.242188 -23.453125 L 24.242188 -28.925781 C 21.839844 -29.910156 19.875 -30.382812 17 -30.382812 C 6.691406 -30.382812 1.574219 -23.414062 1.574219 -14.835938 C 1.574219 -5.589844 6.414062 0.667969 17 0.667969 Z M 17 0.667969 "/></g></g></g><g fill="#000000" fill-opacity="1"><g transform="translate(286.995565, 201.3383)"><g><path d="M 24.558594 -29.832031 L 1.574219 -29.832031 L 1.574219 -24.4375 L 9.917969 -24.4375 L 9.917969 0 L 16.214844 0 L 16.214844 -24.4375 L 24.558594 -24.4375 Z M 24.558594 -29.832031 "/></g></g></g><g fill="#000000" fill-opacity="1"><g transform="translate(313.126589, 201.3383)"><g><path d="M 22.707031 -24.4375 L 22.707031 -29.832031 L 3.421875 -29.832031 L 3.421875 0 L 9.679688 0 L 9.679688 -11.570312 L 20.738281 -11.570312 L 20.738281 -16.960938 L 9.679688 -16.960938 L 9.679688 -24.4375 Z M 22.707031 -24.4375 "/></g></g></g></svg>