<svg xmlns="http://www.w3.org/2000/svg" xmlns:xlink="http://www.w3.org/1999/xlink" width="273" zoomAndPan="magnify" viewBox="0 0 204.75 61.499998" height="82" preserveAspectRatio="xMidYMid meet" version="1.0"><defs><filter x="0%" y="0%" width="100%" height="100%" id="16660644e3"><feColorMatrix values="0 0 0 0 1 0 0 0 0 1 0 0 0 0 1 0 0 0 1 0" color-interpolation-filters="sRGB"/></filter><g/><clipPath id="ecfd2a6c79"><path d="M 24.09375 18.722656 L 62.109375 18.722656 L 62.109375 47.597656 L 24.09375 47.597656 Z M 24.09375 18.722656 " clip-rule="nonzero"/></clipPath><clipPath id="90bd1ba9bf"><path d="M 34.511719 18.722656 L 61.355469 18.722656 C 61.589844 18.722656 61.8125 18.835938 61.949219 19.027344 C 62.085938 19.214844 62.125 19.460938 62.050781 19.6875 L 53.066406 46.632812 C 52.875 47.210938 52.335938 47.597656 51.730469 47.597656 L 24.886719 47.597656 C 24.648438 47.597656 24.429688 47.484375 24.292969 47.292969 C 24.152344 47.101562 24.117188 46.855469 24.191406 46.632812 L 33.171875 19.6875 C 33.367188 19.109375 33.902344 18.722656 34.511719 18.722656 Z M 34.511719 18.722656 " clip-rule="nonzero"/></clipPath><mask id="9a3769aa9b"><g filter="url(#16660644e3)"><rect x="-20.475" width="245.7" fill="#000000" y="-6.15" height="73.799998" fill-opacity="0.8"/></g></mask><clipPath id="01930f8a69"><path d="M 0.8125 0.40625 L 38.824219 0.40625 L 38.824219 29.28125 L 0.8125 29.28125 Z M 0.8125 0.40625 " clip-rule="nonzero"/></clipPath><clipPath id="153df2730b"><path d="M 11.230469 0.40625 L 38.074219 0.40625 C 38.308594 0.40625 38.527344 0.519531 38.667969 0.710938 C 38.804688 0.902344 38.84375 1.148438 38.769531 1.371094 L 29.785156 28.320312 C 29.59375 28.894531 29.054688 29.28125 28.445312 29.28125 L 1.601562 29.28125 C 1.367188 29.28125 1.148438 29.167969 1.007812 28.976562 C 0.871094 28.789062 0.835938 28.542969 0.910156 28.320312 L 9.890625 1.371094 C 10.082031 0.792969 10.621094 0.40625 11.230469 0.40625 Z M 11.230469 0.40625 " clip-rule="nonzero"/></clipPath><clipPath id="0ebfef5f2b"><rect x="0" width="40" y="0" height="30"/></clipPath></defs><g clip-path="url(#ecfd2a6c79)"><g clip-path="url(#90bd1ba9bf)"><path fill="#0558ee" d="M 23.871094 18.722656 L 62.332031 18.722656 L 62.332031 47.597656 L 23.871094 47.597656 Z M 23.871094 18.722656 " fill-opacity="1" fill-rule="nonzero"/></g></g><g mask="url(#9a3769aa9b)"><g transform="matrix(1, 0, 0, 1, 18, 13)"><g clip-path="url(#0ebfef5f2b)"><g clip-path="url(#01930f8a69)"><g clip-path="url(#153df2730b)"><path fill="#21e8e6" d="M 0.585938 0.40625 L 39.050781 0.40625 L 39.050781 29.28125 L 0.585938 29.28125 Z M 0.585938 0.40625 " fill-opacity="1" fill-rule="nonzero"/></g></g></g></g></g><g fill="#ffffff" fill-opacity="1"><g transform="translate(69.24204, 34.890152)"><g><path d="M 5.875 0.359375 C 8.75 0.359375 10.761719 -0.886719 10.761719 -3.59375 C 10.761719 -5.941406 9.597656 -6.871094 7.3125 -7.335938 L 5.433594 -7.738281 C 4.820312 -7.886719 4.460938 -8.054688 4.460938 -8.605469 C 4.460938 -9.132812 4.820312 -9.511719 6.128906 -9.511719 C 7.632812 -9.511719 9.152344 -9.152344 10.210938 -8.667969 L 10.210938 -11.480469 C 8.964844 -11.902344 7.460938 -12.238281 5.980469 -12.238281 C 2.75 -12.238281 1.164062 -10.949219 1.164062 -8.390625 C 1.164062 -6.339844 2.304688 -5.304688 4.523438 -4.839844 L 6.40625 -4.4375 C 7.125 -4.269531 7.460938 -4.015625 7.460938 -3.425781 C 7.460938 -2.8125 7.058594 -2.367188 5.875 -2.367188 C 4.183594 -2.367188 2.601562 -2.683594 0.992188 -3.59375 L 0.992188 -0.675781 C 2.621094 0.0859375 3.953125 0.359375 5.875 0.359375 Z M 5.875 0.359375 "/></g></g></g><g fill="#ffffff" fill-opacity="1"><g transform="translate(80.909773, 34.890152)"><g><path d="M 1.585938 -13.867188 L 4.839844 -13.867188 L 4.839844 -17.058594 L 1.585938 -17.058594 Z M 1.585938 0 L 4.839844 0 L 4.839844 -11.902344 L 1.585938 -11.902344 Z M 1.585938 0 "/></g></g></g><g fill="#ffffff" fill-opacity="1"><g transform="translate(87.335481, 34.890152)"><g><path d="M 15.726562 -12.15625 C 14.269531 -12.15625 13.105469 -11.519531 11.878906 -10.292969 C 11.183594 -11.585938 9.894531 -12.15625 8.054688 -12.15625 C 6.847656 -12.15625 5.855469 -11.730469 4.839844 -10.886719 L 4.839844 -11.902344 L 1.585938 -11.902344 L 1.585938 0 L 4.839844 0 L 4.839844 -8.136719 C 5.644531 -8.835938 6.46875 -9.238281 7.378906 -9.238281 C 8.816406 -9.238281 9.257812 -8.496094 9.257812 -7.144531 L 9.257812 0 L 12.515625 0 L 12.515625 -7.144531 C 12.515625 -7.484375 12.492188 -7.800781 12.472656 -8.097656 C 13.296875 -8.816406 14.121094 -9.238281 15.050781 -9.238281 C 16.488281 -9.238281 16.933594 -8.496094 16.933594 -7.144531 L 16.933594 0 L 20.1875 0 L 20.1875 -7.144531 C 20.1875 -10.71875 18.6875 -12.15625 15.726562 -12.15625 Z M 15.726562 -12.15625 "/></g></g></g><g fill="#ffffff" fill-opacity="1"><g transform="translate(108.91655, 34.890152)"><g><path d="M 8.097656 -12.238281 C 6.871094 -12.238281 5.8125 -11.773438 4.839844 -11.011719 L 4.839844 -11.902344 L 1.585938 -11.902344 L 1.585938 4.945312 L 4.839844 4.945312 L 4.839844 -0.84375 C 5.8125 -0.105469 6.871094 0.359375 8.097656 0.359375 C 11.226562 0.359375 13.507812 -1.710938 13.507812 -5.941406 C 13.507812 -10.148438 11.226562 -12.238281 8.097656 -12.238281 Z M 7.417969 -2.535156 C 6.488281 -2.535156 5.621094 -2.9375 4.839844 -3.507812 L 4.839844 -8.371094 C 5.621094 -8.941406 6.488281 -9.324219 7.417969 -9.324219 C 9.214844 -9.324219 10.125 -8.136719 10.125 -5.941406 C 10.125 -3.71875 9.214844 -2.535156 7.417969 -2.535156 Z M 7.417969 -2.535156 "/></g></g></g><g fill="#ffffff" fill-opacity="1"><g transform="translate(123.289843, 34.890152)"><g><path d="M 5.117188 0.273438 C 5.855469 0.273438 6.449219 0.167969 7.167969 0.0195312 L 7.167969 -2.789062 C 6.828125 -2.683594 6.46875 -2.621094 5.960938 -2.621094 C 5.09375 -2.621094 4.839844 -2.960938 4.839844 -3.953125 L 4.839844 -17.882812 L 1.585938 -17.882812 L 1.585938 -2.8125 C 1.585938 -0.804688 2.683594 0.273438 5.117188 0.273438 Z M 5.117188 0.273438 "/></g></g></g><g fill="#ffffff" fill-opacity="1"><g transform="translate(130.983783, 34.890152)"><g><path d="M 4.3125 -5.050781 L 12.050781 -5.050781 L 12.050781 -6.339844 C 12.050781 -10.273438 9.914062 -12.238281 6.59375 -12.238281 C 3.425781 -12.238281 0.84375 -10.0625 0.84375 -5.960938 C 0.84375 -2.21875 3.066406 0.359375 7.230469 0.359375 C 9.046875 0.359375 10.378906 0.0859375 11.835938 -0.71875 L 10.972656 -3.253906 C 9.703125 -2.640625 8.75 -2.367188 7.652344 -2.367188 C 5.390625 -2.367188 4.523438 -3.53125 4.3125 -5.050781 Z M 6.59375 -9.511719 C 7.84375 -9.511719 8.496094 -8.898438 8.644531 -7.527344 L 4.375 -7.527344 C 4.671875 -8.984375 5.476562 -9.511719 6.59375 -9.511719 Z M 6.59375 -9.511719 "/></g></g></g><g fill="#ffffff" fill-opacity="1"><g transform="translate(143.750644, 34.890152)"><g><path d="M 9.132812 0.359375 C 10.71875 0.359375 12.597656 -0.0625 14.289062 -0.929688 L 13.296875 -3.699219 C 11.921875 -2.980469 10.613281 -2.496094 9.132812 -2.496094 C 6.023438 -2.496094 4.269531 -4.734375 4.269531 -7.992188 C 4.269531 -11.140625 6.234375 -13.464844 9.238281 -13.464844 C 10.507812 -13.464844 11.753906 -13.210938 13.023438 -12.597656 L 13.023438 -15.539062 C 11.730469 -16.066406 10.675781 -16.320312 9.132812 -16.320312 C 3.59375 -16.320312 0.84375 -12.578125 0.84375 -7.96875 C 0.84375 -3 3.445312 0.359375 9.132812 0.359375 Z M 9.132812 0.359375 "/></g></g></g><g fill="#ffffff" fill-opacity="1"><g transform="translate(158.77919, 34.890152)"><g><path d="M 13.191406 -16.023438 L 0.84375 -16.023438 L 0.84375 -13.128906 L 5.328125 -13.128906 L 5.328125 0 L 8.710938 0 L 8.710938 -13.128906 L 13.191406 -13.128906 Z M 13.191406 -16.023438 "/></g></g></g><g fill="#ffffff" fill-opacity="1"><g transform="translate(172.814282, 34.890152)"><g><path d="M 12.195312 -13.128906 L 12.195312 -16.023438 L 1.839844 -16.023438 L 1.839844 0 L 5.199219 0 L 5.199219 -6.214844 L 11.140625 -6.214844 L 11.140625 -9.109375 L 5.199219 -9.109375 L 5.199219 -13.128906 Z M 12.195312 -13.128906 "/></g></g></g></svg>