<svg xmlns="http://www.w3.org/2000/svg" xmlns:xlink="http://www.w3.org/1999/xlink" width="500" zoomAndPan="magnify" viewBox="0 0 375 374.999991" height="500" preserveAspectRatio="xMidYMid meet" version="1.0"><defs><filter x="0%" y="0%" width="100%" height="100%" id="1f43eea1a9"><feColorMatrix values="0 0 0 0 1 0 0 0 0 1 0 0 0 0 1 0 0 0 1 0" color-interpolation-filters="sRGB"/></filter><g/><clipPath id="dc5787aef9"><path d="M 12.074219 10.96875 L 49.957031 10.96875 L 49.957031 42.457031 L 12.074219 42.457031 Z M 12.074219 10.96875 " clip-rule="nonzero"/></clipPath><clipPath id="bc5f6db09a"><path d="M 27.980469 10.96875 L 44.464844 10.96875 C 46.203125 10.96875 47.835938 11.804688 48.851562 13.214844 C 49.867188 14.625 50.144531 16.433594 49.59375 18.082031 L 43.84375 35.339844 C 42.425781 39.589844 38.449219 42.457031 33.972656 42.457031 L 17.484375 42.457031 C 15.746094 42.457031 14.113281 41.621094 13.097656 40.210938 C 12.082031 38.800781 11.808594 36.988281 12.355469 35.339844 L 18.109375 18.082031 C 19.523438 13.835938 23.5 10.96875 27.980469 10.96875 Z M 27.980469 10.96875 " clip-rule="nonzero"/></clipPath><mask id="f8e8a40ca8"><g filter="url(#1f43eea1a9)"><rect x="-37.5" width="450" fill="#000000" y="-37.499999" height="449.999989" fill-opacity="0.8"/></g></mask><clipPath id="70b44b4fb4"><path d="M 2.316406 0.171875 L 40.199219 0.171875 L 40.199219 31.660156 L 2.316406 31.660156 Z M 2.316406 0.171875 " clip-rule="nonzero"/></clipPath><clipPath id="c0a4a19676"><path d="M 18.21875 0.171875 L 34.707031 0.171875 C 36.445312 0.171875 38.078125 1.007812 39.09375 2.417969 C 40.109375 3.828125 40.382812 5.640625 39.835938 7.289062 L 34.082031 24.542969 C 32.667969 28.792969 28.691406 31.660156 24.210938 31.660156 L 7.726562 31.660156 C 5.988281 31.660156 4.355469 30.824219 3.339844 29.414062 C 2.324219 28.003906 2.046875 26.191406 2.597656 24.542969 L 8.347656 7.289062 C 9.765625 3.039062 13.742188 0.171875 18.21875 0.171875 Z M 18.21875 0.171875 " clip-rule="nonzero"/></clipPath><clipPath id="04db307660"><rect x="0" width="43" y="0" height="32"/></clipPath></defs><g clip-path="url(#dc5787aef9)"><g clip-path="url(#bc5f6db09a)"><path fill="#0558ee" d="M 9.984375 10.96875 L 51.925781 10.96875 L 51.925781 42.457031 L 9.984375 42.457031 Z M 9.984375 10.96875 " fill-opacity="1" fill-rule="nonzero"/></g></g><g mask="url(#f8e8a40ca8)"><g transform="matrix(1, 0, 0, 1, 4, 5)"><g clip-path="url(#04db307660)"><g clip-path="url(#70b44b4fb4)"><g clip-path="url(#c0a4a19676)"><path fill="#21e8e6" d="M 0.226562 0.171875 L 42.164062 0.171875 L 42.164062 31.660156 L 0.226562 31.660156 Z M 0.226562 0.171875 " fill-opacity="1" fill-rule="nonzero"/></g></g></g></g></g><g fill="#000000" fill-opacity="1"><g transform="translate(51.966534, 31.36973)"><g><path d="M 6.308594 0.386719 C 9.394531 0.386719 11.550781 -0.953125 11.550781 -3.859375 C 11.550781 -6.375 10.300781 -7.375 7.851562 -7.875 L 5.832031 -8.304688 C 5.175781 -8.464844 4.789062 -8.644531 4.789062 -9.234375 C 4.789062 -9.804688 5.175781 -10.210938 6.582031 -10.210938 C 8.191406 -10.210938 9.824219 -9.824219 10.960938 -9.304688 L 10.960938 -12.320312 C 9.621094 -12.777344 8.011719 -13.140625 6.421875 -13.140625 C 2.949219 -13.140625 1.25 -11.753906 1.25 -9.007812 C 1.25 -6.808594 2.472656 -5.695312 4.855469 -5.195312 L 6.875 -4.765625 C 7.648438 -4.582031 8.011719 -4.3125 8.011719 -3.675781 C 8.011719 -3.019531 7.578125 -2.542969 6.308594 -2.542969 C 4.492188 -2.542969 2.792969 -2.882812 1.066406 -3.859375 L 1.066406 -0.726562 C 2.8125 0.0898438 4.242188 0.386719 6.308594 0.386719 Z M 6.308594 0.386719 "/></g></g></g><g fill="#000000" fill-opacity="1"><g transform="translate(64.492465, 31.36973)"><g><path d="M 1.703125 -14.886719 L 5.195312 -14.886719 L 5.195312 -18.3125 L 1.703125 -18.3125 Z M 1.703125 0 L 5.195312 0 L 5.195312 -12.777344 L 1.703125 -12.777344 Z M 1.703125 0 "/></g></g></g><g fill="#000000" fill-opacity="1"><g transform="translate(71.390806, 31.36973)"><g><path d="M 16.882812 -13.046875 C 15.316406 -13.046875 14.070312 -12.367188 12.753906 -11.050781 C 12.003906 -12.433594 10.621094 -13.046875 8.644531 -13.046875 C 7.351562 -13.046875 6.285156 -12.59375 5.195312 -11.6875 L 5.195312 -12.777344 L 1.703125 -12.777344 L 1.703125 0 L 5.195312 0 L 5.195312 -8.738281 C 6.058594 -9.484375 6.945312 -9.917969 7.917969 -9.917969 C 9.460938 -9.917969 9.9375 -9.121094 9.9375 -7.671875 L 9.9375 0 L 13.433594 0 L 13.433594 -7.671875 C 13.433594 -8.03125 13.410156 -8.375 13.386719 -8.691406 C 14.273438 -9.460938 15.160156 -9.917969 16.15625 -9.917969 C 17.699219 -9.917969 18.175781 -9.121094 18.175781 -7.671875 L 18.175781 0 L 21.671875 0 L 21.671875 -7.671875 C 21.671875 -11.503906 20.058594 -13.046875 16.882812 -13.046875 Z M 16.882812 -13.046875 "/></g></g></g><g fill="#000000" fill-opacity="1"><g transform="translate(94.559235, 31.36973)"><g><path d="M 8.691406 -13.140625 C 7.375 -13.140625 6.242188 -12.640625 5.195312 -11.824219 L 5.195312 -12.777344 L 1.703125 -12.777344 L 1.703125 5.308594 L 5.195312 5.308594 L 5.195312 -0.90625 C 6.242188 -0.113281 7.375 0.386719 8.691406 0.386719 C 12.050781 0.386719 14.5 -1.839844 14.5 -6.375 C 14.5 -10.890625 12.050781 -13.140625 8.691406 -13.140625 Z M 7.964844 -2.722656 C 6.964844 -2.722656 6.035156 -3.152344 5.195312 -3.765625 L 5.195312 -8.984375 C 6.035156 -9.597656 6.964844 -10.007812 7.964844 -10.007812 C 9.894531 -10.007812 10.871094 -8.738281 10.871094 -6.375 C 10.871094 -3.992188 9.894531 -2.722656 7.964844 -2.722656 Z M 7.964844 -2.722656 "/></g></g></g><g fill="#000000" fill-opacity="1"><g transform="translate(109.989728, 31.36973)"><g><path d="M 5.492188 0.296875 C 6.285156 0.296875 6.921875 0.179688 7.691406 0.0234375 L 7.691406 -2.996094 C 7.328125 -2.882812 6.945312 -2.8125 6.398438 -2.8125 C 5.46875 -2.8125 5.195312 -3.175781 5.195312 -4.242188 L 5.195312 -19.199219 L 1.703125 -19.199219 L 1.703125 -3.019531 C 1.703125 -0.863281 2.882812 0.296875 5.492188 0.296875 Z M 5.492188 0.296875 "/></g></g></g><g fill="#000000" fill-opacity="1"><g transform="translate(118.249579, 31.36973)"><g><path d="M 4.628906 -5.421875 L 12.933594 -5.421875 L 12.933594 -6.808594 C 12.933594 -11.027344 10.644531 -13.140625 7.078125 -13.140625 C 3.675781 -13.140625 0.90625 -10.800781 0.90625 -6.398438 C 0.90625 -2.382812 3.289062 0.386719 7.761719 0.386719 C 9.710938 0.386719 11.140625 0.0898438 12.707031 -0.773438 L 11.777344 -3.496094 C 10.414062 -2.835938 9.394531 -2.542969 8.214844 -2.542969 C 5.785156 -2.542969 4.855469 -3.789062 4.628906 -5.421875 Z M 7.078125 -10.210938 C 8.417969 -10.210938 9.121094 -9.554688 9.28125 -8.078125 L 4.699219 -8.078125 C 5.015625 -9.644531 5.878906 -10.210938 7.078125 -10.210938 Z M 7.078125 -10.210938 "/></g></g></g><g fill="#000000" fill-opacity="1"><g transform="translate(131.95549, 31.36973)"><g><path d="M 9.804688 0.386719 C 11.503906 0.386719 13.523438 -0.0664062 15.339844 -1 L 14.273438 -3.972656 C 12.796875 -3.199219 11.390625 -2.675781 9.804688 -2.675781 C 6.46875 -2.675781 4.582031 -5.082031 4.582031 -8.578125 C 4.582031 -11.957031 6.695312 -14.457031 9.917969 -14.457031 C 11.277344 -14.457031 12.617188 -14.183594 13.980469 -13.523438 L 13.980469 -16.679688 C 12.59375 -17.246094 11.460938 -17.519531 9.804688 -17.519531 C 3.859375 -17.519531 0.90625 -13.503906 0.90625 -8.554688 C 0.90625 -3.222656 3.699219 0.386719 9.804688 0.386719 Z M 9.804688 0.386719 "/></g></g></g><g fill="#000000" fill-opacity="1"><g transform="translate(148.08943, 31.36973)"><g><path d="M 14.160156 -17.199219 L 0.90625 -17.199219 L 0.90625 -14.09375 L 5.71875 -14.09375 L 5.71875 0 L 9.347656 0 L 9.347656 -14.09375 L 14.160156 -14.09375 Z M 14.160156 -17.199219 "/></g></g></g><g fill="#000000" fill-opacity="1"><g transform="translate(163.15685, 31.36973)"><g><path d="M 13.09375 -14.09375 L 13.09375 -17.199219 L 1.972656 -17.199219 L 1.972656 0 L 5.582031 0 L 5.582031 -6.671875 L 11.957031 -6.671875 L 11.957031 -9.78125 L 5.582031 -9.78125 L 5.582031 -14.09375 Z M 13.09375 -14.09375 "/></g></g></g></svg>