<svg xmlns="http://www.w3.org/2000/svg" xmlns:xlink="http://www.w3.org/1999/xlink" width="270" zoomAndPan="magnify" viewBox="0 0 202.5 45.749998" height="61" preserveAspectRatio="xMidYMid meet" version="1.0"><defs><filter x="0%" y="0%" width="100%" height="100%" id="f8f9f25dde"><feColorMatrix values="0 0 0 0 1 0 0 0 0 1 0 0 0 0 1 0 0 0 1 0" color-interpolation-filters="sRGB"/></filter><g/><clipPath id="0ea7ec97f6"><path d="M 8.796875 8.328125 L 55 8.328125 L 55 43.679688 L 8.796875 43.679688 Z M 8.796875 8.328125 " clip-rule="nonzero"/></clipPath><clipPath id="87d0312c66"><path d="M 22.109375 8.328125 L 53.578125 8.328125 C 54.027344 8.328125 54.453125 8.542969 54.714844 8.910156 C 54.976562 9.273438 55.050781 9.742188 54.90625 10.167969 L 44.351562 41.839844 C 43.984375 42.9375 42.953125 43.679688 41.792969 43.679688 L 10.324219 43.679688 C 9.875 43.679688 9.453125 43.464844 9.191406 43.101562 C 8.925781 42.734375 8.855469 42.265625 8.996094 41.839844 L 19.554688 10.167969 C 19.921875 9.070312 20.949219 8.328125 22.109375 8.328125 Z M 22.109375 8.328125 " clip-rule="nonzero"/></clipPath><mask id="49c4ea2fe1"><g filter="url(#f8f9f25dde)"><rect x="-20.25" width="243" fill="#000000" y="-4.575" height="54.899998" fill-opacity="0.8"/></g></mask><clipPath id="db441b26cf"><path d="M 1.332031 0.820312 L 47.59375 0.820312 L 47.59375 36.171875 L 1.332031 36.171875 Z M 1.332031 0.820312 " clip-rule="nonzero"/></clipPath><clipPath id="148fa756f4"><path d="M 14.640625 0.820312 L 46.113281 0.820312 C 46.5625 0.820312 46.984375 1.035156 47.246094 1.402344 C 47.511719 1.765625 47.582031 2.234375 47.441406 2.664062 L 36.882812 34.332031 C 36.515625 35.433594 35.488281 36.171875 34.328125 36.171875 L 2.859375 36.171875 C 2.40625 36.171875 1.984375 35.957031 1.722656 35.59375 C 1.460938 35.226562 1.386719 34.757812 1.53125 34.332031 L 12.085938 2.664062 C 12.453125 1.5625 13.484375 0.820312 14.640625 0.820312 Z M 14.640625 0.820312 " clip-rule="nonzero"/></clipPath><clipPath id="1a16743efd"><rect x="0" width="49" y="0" height="37"/></clipPath></defs><g clip-path="url(#0ea7ec97f6)"><g clip-path="url(#87d0312c66)"><path fill="#0558ee" d="M 8.382812 8.328125 L 55.476562 8.328125 L 55.476562 43.679688 L 8.382812 43.679688 Z M 8.382812 8.328125 " fill-opacity="1" fill-rule="nonzero"/></g></g><g mask="url(#49c4ea2fe1)"><g transform="matrix(1, 0, 0, 1, 1, 1)"><g clip-path="url(#1a16743efd)"><g clip-path="url(#db441b26cf)"><g clip-path="url(#148fa756f4)"><path fill="#21e8e6" d="M 0.917969 0.820312 L 48.007812 0.820312 L 48.007812 36.171875 L 0.917969 36.171875 Z M 0.917969 0.820312 " fill-opacity="1" fill-rule="nonzero"/></g></g></g></g></g><g fill="#000000" fill-opacity="1"><g transform="translate(59.464001, 27.404033)"><g><path d="M 7.082031 0.433594 C 10.546875 0.433594 12.964844 -1.070312 12.964844 -4.332031 C 12.964844 -7.15625 11.566406 -8.277344 8.8125 -8.839844 L 6.546875 -9.324219 C 5.808594 -9.5 5.375 -9.707031 5.375 -10.367188 C 5.375 -11.003906 5.808594 -11.464844 7.386719 -11.464844 C 9.195312 -11.464844 11.03125 -11.03125 12.304688 -10.445312 L 12.304688 -13.832031 C 10.800781 -14.339844 8.992188 -14.75 7.207031 -14.75 C 3.3125 -14.75 1.402344 -13.195312 1.402344 -10.113281 C 1.402344 -7.640625 2.777344 -6.394531 5.453125 -5.832031 L 7.71875 -5.347656 C 8.585938 -5.144531 8.992188 -4.839844 8.992188 -4.125 C 8.992188 -3.386719 8.507812 -2.851562 7.082031 -2.851562 C 5.042969 -2.851562 3.132812 -3.234375 1.195312 -4.332031 L 1.195312 -0.816406 C 3.160156 0.101562 4.761719 0.433594 7.082031 0.433594 Z M 7.082031 0.433594 "/></g></g></g><g fill="#000000" fill-opacity="1"><g transform="translate(73.521392, 27.404033)"><g><path d="M 1.910156 -16.710938 L 5.832031 -16.710938 L 5.832031 -20.558594 L 1.910156 -20.558594 Z M 1.910156 0 L 5.832031 0 L 5.832031 -14.339844 L 1.910156 -14.339844 Z M 1.910156 0 "/></g></g></g><g fill="#000000" fill-opacity="1"><g transform="translate(81.263141, 27.404033)"><g><path d="M 18.953125 -14.648438 C 17.195312 -14.648438 15.792969 -13.882812 14.316406 -12.40625 C 13.476562 -13.960938 11.921875 -14.648438 9.707031 -14.648438 C 8.253906 -14.648438 7.054688 -14.136719 5.832031 -13.117188 L 5.832031 -14.339844 L 1.910156 -14.339844 L 1.910156 0 L 5.832031 0 L 5.832031 -9.808594 C 6.800781 -10.648438 7.792969 -11.132812 8.890625 -11.132812 C 10.621094 -11.132812 11.15625 -10.242188 11.15625 -8.609375 L 11.15625 0 L 15.082031 0 L 15.082031 -8.609375 C 15.082031 -9.015625 15.054688 -9.398438 15.027344 -9.757812 C 16.023438 -10.621094 17.015625 -11.132812 18.136719 -11.132812 C 19.871094 -11.132812 20.402344 -10.242188 20.402344 -8.609375 L 20.402344 0 L 24.328125 0 L 24.328125 -8.609375 C 24.328125 -12.914062 22.519531 -14.648438 18.953125 -14.648438 Z M 18.953125 -14.648438 "/></g></g></g><g fill="#000000" fill-opacity="1"><g transform="translate(107.264215, 27.404033)"><g><path d="M 9.757812 -14.75 C 8.277344 -14.75 7.003906 -14.1875 5.832031 -13.273438 L 5.832031 -14.339844 L 1.910156 -14.339844 L 1.910156 5.960938 L 5.832031 5.960938 L 5.832031 -1.019531 C 7.003906 -0.128906 8.277344 0.433594 9.757812 0.433594 C 13.527344 0.433594 16.277344 -2.0625 16.277344 -7.15625 C 16.277344 -12.226562 13.527344 -14.75 9.757812 -14.75 Z M 8.941406 -3.058594 C 7.820312 -3.058594 6.777344 -3.539062 5.832031 -4.230469 L 5.832031 -10.085938 C 6.777344 -10.773438 7.820312 -11.234375 8.941406 -11.234375 C 11.105469 -11.234375 12.203125 -9.808594 12.203125 -7.15625 C 12.203125 -4.484375 11.105469 -3.058594 8.941406 -3.058594 Z M 8.941406 -3.058594 "/></g></g></g><g fill="#000000" fill-opacity="1"><g transform="translate(124.58129, 27.404033)"><g><path d="M 6.164062 0.332031 C 7.054688 0.332031 7.769531 0.203125 8.636719 0.0273438 L 8.636719 -3.363281 C 8.226562 -3.234375 7.792969 -3.160156 7.183594 -3.160156 C 6.140625 -3.160156 5.832031 -3.566406 5.832031 -4.761719 L 5.832031 -21.550781 L 1.910156 -21.550781 L 1.910156 -3.386719 C 1.910156 -0.96875 3.234375 0.332031 6.164062 0.332031 Z M 6.164062 0.332031 "/></g></g></g><g fill="#000000" fill-opacity="1"><g transform="translate(133.851012, 27.404033)"><g><path d="M 5.195312 -6.089844 L 14.519531 -6.089844 L 14.519531 -7.640625 C 14.519531 -12.378906 11.945312 -14.75 7.949219 -14.75 C 4.125 -14.75 1.019531 -12.125 1.019531 -7.183594 C 1.019531 -2.675781 3.695312 0.433594 8.710938 0.433594 C 10.902344 0.433594 12.507812 0.101562 14.265625 -0.867188 L 13.21875 -3.921875 C 11.691406 -3.183594 10.546875 -2.851562 9.222656 -2.851562 C 6.496094 -2.851562 5.453125 -4.253906 5.195312 -6.089844 Z M 7.949219 -11.464844 C 9.449219 -11.464844 10.242188 -10.722656 10.417969 -9.070312 L 5.273438 -9.070312 C 5.628906 -10.824219 6.597656 -11.464844 7.949219 -11.464844 Z M 7.949219 -11.464844 "/></g></g></g><g fill="#000000" fill-opacity="1"><g transform="translate(149.232642, 27.404033)"><g><path d="M 11.003906 0.433594 C 12.914062 0.433594 15.183594 -0.078125 17.21875 -1.121094 L 16.023438 -4.457031 C 14.367188 -3.589844 12.789062 -3.003906 11.003906 -3.003906 C 7.261719 -3.003906 5.144531 -5.707031 5.144531 -9.628906 C 5.144531 -13.425781 7.515625 -16.226562 11.132812 -16.226562 C 12.660156 -16.226562 14.164062 -15.921875 15.691406 -15.183594 L 15.691406 -18.722656 C 14.136719 -19.359375 12.863281 -19.664062 11.003906 -19.664062 C 4.332031 -19.664062 1.019531 -15.15625 1.019531 -9.601562 C 1.019531 -3.617188 4.152344 0.433594 11.003906 0.433594 Z M 11.003906 0.433594 "/></g></g></g><g fill="#000000" fill-opacity="1"><g transform="translate(167.339165, 27.404033)"><g><path d="M 15.894531 -19.308594 L 1.019531 -19.308594 L 1.019531 -15.820312 L 6.417969 -15.820312 L 6.417969 0 L 10.496094 0 L 10.496094 -15.820312 L 15.894531 -15.820312 Z M 15.894531 -19.308594 "/></g></g></g><g fill="#000000" fill-opacity="1"><g transform="translate(184.248779, 27.404033)"><g><path d="M 14.699219 -15.820312 L 14.699219 -19.308594 L 2.214844 -19.308594 L 2.214844 0 L 6.265625 0 L 6.265625 -7.488281 L 13.425781 -7.488281 L 13.425781 -10.980469 L 6.265625 -10.980469 L 6.265625 -15.820312 Z M 14.699219 -15.820312 "/></g></g></g></svg>