<svg xmlns="http://www.w3.org/2000/svg" xmlns:xlink="http://www.w3.org/1999/xlink" width="270" zoomAndPan="magnify" viewBox="0 0 202.5 45.749998" height="61" preserveAspectRatio="xMidYMid meet" version="1.0"><defs><filter x="0%" y="0%" width="100%" height="100%" id="3993f87268"><feColorMatrix values="0 0 0 0 1 0 0 0 0 1 0 0 0 0 1 0 0 0 1 0" color-interpolation-filters="sRGB"/></filter><g/><clipPath id="6a7e5d19f7"><path d="M 8.796875 8.328125 L 55 8.328125 L 55 43.679688 L 8.796875 43.679688 Z M 8.796875 8.328125 " clip-rule="nonzero"/></clipPath><clipPath id="a83d948240"><path d="M 22.109375 8.328125 L 53.578125 8.328125 C 54.027344 8.328125 54.453125 8.542969 54.714844 8.910156 C 54.976562 9.273438 55.050781 9.742188 54.90625 10.167969 L 44.351562 41.839844 C 43.984375 42.9375 42.953125 43.679688 41.792969 43.679688 L 10.324219 43.679688 C 9.875 43.679688 9.453125 43.464844 9.191406 43.101562 C 8.925781 42.734375 8.855469 42.265625 8.996094 41.839844 L 19.554688 10.167969 C 19.921875 9.070312 20.949219 8.328125 22.109375 8.328125 Z M 22.109375 8.328125 " clip-rule="nonzero"/></clipPath><mask id="1d69b18487"><g filter="url(#3993f87268)"><rect x="-20.25" width="243" fill="#000000" y="-4.575" height="54.899998" fill-opacity="0.8"/></g></mask><clipPath id="24dcb3ffda"><path d="M 1.332031 0.820312 L 47.59375 0.820312 L 47.59375 36.171875 L 1.332031 36.171875 Z M 1.332031 0.820312 " clip-rule="nonzero"/></clipPath><clipPath id="e587f71f5e"><path d="M 14.640625 0.820312 L 46.113281 0.820312 C 46.5625 0.820312 46.984375 1.035156 47.246094 1.402344 C 47.511719 1.765625 47.582031 2.234375 47.441406 2.664062 L 36.882812 34.332031 C 36.515625 35.433594 35.488281 36.171875 34.328125 36.171875 L 2.859375 36.171875 C 2.40625 36.171875 1.984375 35.957031 1.722656 35.59375 C 1.460938 35.226562 1.386719 34.757812 1.53125 34.332031 L 12.085938 2.664062 C 12.453125 1.5625 13.484375 0.820312 14.640625 0.820312 Z M 14.640625 0.820312 " clip-rule="nonzero"/></clipPath><clipPath id="bdca183c33"><rect x="0" width="49" y="0" height="37"/></clipPath></defs><g clip-path="url(#6a7e5d19f7)"><g clip-path="url(#a83d948240)"><path fill="#0558ee" d="M 8.382812 8.328125 L 55.476562 8.328125 L 55.476562 43.679688 L 8.382812 43.679688 Z M 8.382812 8.328125 " fill-opacity="1" fill-rule="nonzero"/></g></g><g mask="url(#1d69b18487)"><g transform="matrix(1, 0, 0, 1, 1, 1)"><g clip-path="url(#bdca183c33)"><g clip-path="url(#24dcb3ffda)"><g clip-path="url(#e587f71f5e)"><path fill="#21e8e6" d="M 0.917969 0.820312 L 48.007812 0.820312 L 48.007812 36.171875 L 0.917969 36.171875 Z M 0.917969 0.820312 " fill-opacity="1" fill-rule="nonzero"/></g></g></g></g></g><g fill="#ffffff" fill-opacity="1"><g transform="translate(59.464001, 27.849466)"><g><path d="M 7.082031 0.433594 C 10.546875 0.433594 12.96875 -1.070312 12.96875 -4.332031 C 12.96875 -7.160156 11.566406 -8.28125 8.816406 -8.839844 L 6.546875 -9.324219 C 5.808594 -9.503906 5.375 -9.707031 5.375 -10.371094 C 5.375 -11.007812 5.808594 -11.464844 7.390625 -11.464844 C 9.199219 -11.464844 11.03125 -11.03125 12.304688 -10.445312 L 12.304688 -13.835938 C 10.804688 -14.34375 8.996094 -14.753906 7.210938 -14.753906 C 3.3125 -14.753906 1.402344 -13.199219 1.402344 -10.117188 C 1.402344 -7.644531 2.777344 -6.394531 5.453125 -5.835938 L 7.71875 -5.351562 C 8.585938 -5.148438 8.996094 -4.839844 8.996094 -4.128906 C 8.996094 -3.390625 8.511719 -2.855469 7.082031 -2.855469 C 5.042969 -2.855469 3.132812 -3.234375 1.199219 -4.332031 L 1.199219 -0.816406 C 3.160156 0.101562 4.765625 0.433594 7.082031 0.433594 Z M 7.082031 0.433594 "/></g></g></g><g fill="#ffffff" fill-opacity="1"><g transform="translate(73.528289, 27.849466)"><g><path d="M 1.910156 -16.714844 L 5.835938 -16.714844 L 5.835938 -20.5625 L 1.910156 -20.5625 Z M 1.910156 0 L 5.835938 0 L 5.835938 -14.34375 L 1.910156 -14.34375 Z M 1.910156 0 "/></g></g></g><g fill="#ffffff" fill-opacity="1"><g transform="translate(81.273841, 27.849466)"><g><path d="M 18.957031 -14.652344 C 17.199219 -14.652344 15.796875 -13.886719 14.320312 -12.410156 C 13.480469 -13.960938 11.925781 -14.652344 9.707031 -14.652344 C 8.253906 -14.652344 7.058594 -14.140625 5.835938 -13.121094 L 5.835938 -14.34375 L 1.910156 -14.34375 L 1.910156 0 L 5.835938 0 L 5.835938 -9.808594 C 6.804688 -10.648438 7.796875 -11.132812 8.890625 -11.132812 C 10.625 -11.132812 11.160156 -10.242188 11.160156 -8.613281 L 11.160156 0 L 15.082031 0 L 15.082031 -8.613281 C 15.082031 -9.019531 15.058594 -9.402344 15.03125 -9.757812 C 16.027344 -10.625 17.019531 -11.132812 18.140625 -11.132812 C 19.875 -11.132812 20.410156 -10.242188 20.410156 -8.613281 L 20.410156 0 L 24.332031 0 L 24.332031 -8.613281 C 24.332031 -12.917969 22.523438 -14.652344 18.957031 -14.652344 Z M 18.957031 -14.652344 "/></g></g></g><g fill="#ffffff" fill-opacity="1"><g transform="translate(107.287672, 27.849466)"><g><path d="M 9.757812 -14.753906 C 8.28125 -14.753906 7.007812 -14.191406 5.835938 -13.273438 L 5.835938 -14.34375 L 1.910156 -14.34375 L 1.910156 5.960938 L 5.835938 5.960938 L 5.835938 -1.019531 C 7.007812 -0.128906 8.28125 0.433594 9.757812 0.433594 C 13.53125 0.433594 16.28125 -2.0625 16.28125 -7.160156 C 16.28125 -12.230469 13.53125 -14.753906 9.757812 -14.753906 Z M 8.941406 -3.058594 C 7.820312 -3.058594 6.777344 -3.542969 5.835938 -4.230469 L 5.835938 -10.089844 C 6.777344 -10.777344 7.820312 -11.238281 8.941406 -11.238281 C 11.109375 -11.238281 12.203125 -9.808594 12.203125 -7.160156 C 12.203125 -4.484375 11.109375 -3.058594 8.941406 -3.058594 Z M 8.941406 -3.058594 "/></g></g></g><g fill="#ffffff" fill-opacity="1"><g transform="translate(124.613244, 27.849466)"><g><path d="M 6.164062 0.332031 C 7.058594 0.332031 7.769531 0.203125 8.636719 0.0273438 L 8.636719 -3.363281 C 8.230469 -3.234375 7.796875 -3.160156 7.183594 -3.160156 C 6.140625 -3.160156 5.835938 -3.566406 5.835938 -4.765625 L 5.835938 -21.554688 L 1.910156 -21.554688 L 1.910156 -3.390625 C 1.910156 -0.96875 3.234375 0.332031 6.164062 0.332031 Z M 6.164062 0.332031 "/></g></g></g><g fill="#ffffff" fill-opacity="1"><g transform="translate(133.887518, 27.849466)"><g><path d="M 5.199219 -6.089844 L 14.523438 -6.089844 L 14.523438 -7.644531 C 14.523438 -12.382812 11.949219 -14.753906 7.949219 -14.753906 C 4.128906 -14.753906 1.019531 -12.128906 1.019531 -7.183594 C 1.019531 -2.675781 3.695312 0.433594 8.714844 0.433594 C 10.90625 0.433594 12.511719 0.101562 14.269531 -0.867188 L 13.222656 -3.921875 C 11.695312 -3.183594 10.546875 -2.855469 9.222656 -2.855469 C 6.496094 -2.855469 5.453125 -4.253906 5.199219 -6.089844 Z M 7.949219 -11.464844 C 9.453125 -11.464844 10.242188 -10.726562 10.421875 -9.070312 L 5.273438 -9.070312 C 5.632812 -10.828125 6.597656 -11.464844 7.949219 -11.464844 Z M 7.949219 -11.464844 "/></g></g></g><g fill="#ffffff" fill-opacity="1"><g transform="translate(149.276703, 27.849466)"><g><path d="M 11.007812 0.433594 C 12.917969 0.433594 15.1875 -0.078125 17.222656 -1.121094 L 16.027344 -4.457031 C 14.371094 -3.59375 12.789062 -3.007812 11.007812 -3.007812 C 7.261719 -3.007812 5.148438 -5.707031 5.148438 -9.632812 C 5.148438 -13.425781 7.515625 -16.230469 11.132812 -16.230469 C 12.664062 -16.230469 14.167969 -15.925781 15.695312 -15.1875 L 15.695312 -18.726562 C 14.140625 -19.363281 12.867188 -19.671875 11.007812 -19.671875 C 4.332031 -19.671875 1.019531 -15.160156 1.019531 -9.605469 C 1.019531 -3.617188 4.152344 0.433594 11.007812 0.433594 Z M 11.007812 0.433594 "/></g></g></g><g fill="#ffffff" fill-opacity="1"><g transform="translate(167.392114, 27.849466)"><g><path d="M 15.898438 -19.3125 L 1.019531 -19.3125 L 1.019531 -15.824219 L 6.421875 -15.824219 L 6.421875 0 L 10.496094 0 L 10.496094 -15.824219 L 15.898438 -15.824219 Z M 15.898438 -19.3125 "/></g></g></g><g fill="#ffffff" fill-opacity="1"><g transform="translate(184.310021, 27.849466)"><g><path d="M 14.703125 -15.824219 L 14.703125 -19.3125 L 2.214844 -19.3125 L 2.214844 0 L 6.269531 0 L 6.269531 -7.492188 L 13.425781 -7.492188 L 13.425781 -10.980469 L 6.269531 -10.980469 L 6.269531 -15.824219 Z M 14.703125 -15.824219 "/></g></g></g></svg>